<?xml version="1.0" encoding="utf-8"?>
<!-- Generator: Adobe Illustrator 25.0.1, SVG Export Plug-In . SVG Version: 6.00 Build 0)  -->
<svg version="1.1" id="Layer_1" xmlns="http://www.w3.org/2000/svg" xmlns:xlink="http://www.w3.org/1999/xlink" x="0px" y="0px"
	 viewBox="0 0 636.1 418.1" style="enable-background:new 0 0 636.1 418.1;" xml:space="preserve">
<style type="text/css">
	.st0{fill-rule:evenodd;clip-rule:evenodd;fill:#181919;}
	.st1{fill:#181919;}
</style>
<g>
	<path class="st0" d="M573.3,64h-35.8v12.2H548v42.1h14.9V76.2h10.5L573.3,64z M533.9,118.2H519V64h14.9V118.2z M516.5,118.2H500
		l-19.7-21.1V85l19-21h17l-21.9,27.2L516.5,118.2z"/>
	<path class="st0" d="M434.4,83.8c-2.9,3.5-5.3,7.3-7.2,11.3l49.6,23.1L434.4,83.8z"/>
	<path class="st0" d="M476.8,118.2L453.6,69c-4.1,1.8-7.9,4.2-11.4,7L476.8,118.2L476.8,118.2z"/>
	<path class="st0" d="M476.8,118.2l0.1-54.2h-0.4c-4.3,0-8.6,0.5-12.8,1.6L476.8,118.2z"/>
	<path class="st0" d="M423.6,104.9c-1.1,4.3-1.7,8.8-1.7,13.3h54.9L423.6,104.9z"/>
	<path class="st1" d="M574,130.4c-0.5,0.3-1,0.5-1.5,0.5c-0.9,0-1.6-0.7-1.6-1.6l0,0h3.5c0-1.6-0.5-2.8-2.2-2.8
		c-1.3,0-2.3,1-2.3,2.3c0,0.1,0,0.2,0,0.2c-0.2,1.3,0.7,2.5,2,2.7c0.2,0,0.4,0,0.5,0c0.5,0,1.1-0.1,1.6-0.3V130.4L574,130.4z
		 M570.8,128.5c0-0.7,0.6-1.4,1.3-1.4s1.2,0.6,1.2,1.3v0.1H570.8z M567.8,131.5h0.9v-5h-0.9V131.5z M568.8,124.4h-1v1h1V124.4z
		 M510.3,124.6h1v1h-1V124.6z M512.5,124.6h1v1h-1V124.6z M515.4,131.5h0.9v-2.3c0-1.2,0.5-2,1.4-2c0.2,0,0.3,0,0.5,0.1v-0.8
		c-0.2,0-0.4-0.1-0.6-0.1c-0.6,0-1.1,0.4-1.3,0.9l0,0v-0.8h-0.8L515.4,131.5L515.4,131.5z M514.1,126.5h-0.9v2.3c0,1.2-0.5,2-1.5,2
		c-0.8-0.1-1-0.6-1-1.8v-2.6h-0.9v3c0,1.3,0.6,2.1,1.9,2.1c0.7,0,1.3-0.3,1.6-0.9l0,0v0.8h0.9L514.1,126.5L514.1,126.5z
		 M464.8,131.5h0.9v-2.3c0-1.2,0.5-2,1.4-2c0.2,0,0.3,0,0.5,0.1v-0.8c-0.2,0-0.4-0.1-0.6-0.1c-0.6,0-1.1,0.4-1.3,0.9l0,0v-0.8h-0.9
		V131.5z M566.5,126.5h-0.8v0.7l0,0c-0.3-0.6-1-0.9-1.6-0.9c-1.3,0.1-2.3,1.2-2.2,2.5v0.1c-0.1,1.2,0.7,2.3,1.9,2.4
		c0.1,0,0.1,0,0.2,0c0.6,0,1.3-0.3,1.7-0.8l0,0v0.5c0.1,0.8-0.5,1.6-1.3,1.7c-0.1,0-0.2,0-0.2,0c-0.6,0-1.2-0.2-1.8-0.4l-0.1,0.9
		c0.6,0.2,1.2,0.3,1.8,0.3c1.8,0,2.6-0.9,2.6-2.4L566.5,126.5L566.5,126.5z M564.2,130.8c-0.8,0-1.4-0.8-1.4-1.8s0.5-1.8,1.4-1.8
		s1.5,0.9,1.5,1.9C565.7,129.9,565.1,130.7,564.2,130.8L564.2,130.8z M555.9,129c0,1.4,1.1,2.5,2.5,2.5s2.5-1.1,2.5-2.5l0,0
		c0-1.4-1.1-2.5-2.5-2.5S555.9,127.6,555.9,129L555.9,129z M556.9,129c-0.2-0.9,0.4-1.7,1.3-1.8c0.9-0.2,1.7,0.4,1.8,1.3
		c0,0.2,0,0.4,0,0.6c0.2,0.9-0.4,1.7-1.3,1.8c-0.9,0.2-1.7-0.4-1.8-1.3C556.9,129.4,556.9,129.2,556.9,129z M553.7,131.5h0.9v-7.3
		h-0.9V131.5z M547.3,129c0,1.4,1.1,2.5,2.5,2.5s2.5-1.1,2.5-2.5l0,0c0-1.4-1.1-2.5-2.5-2.5S547.3,127.6,547.3,129L547.3,129z
		 M548.3,129c-0.2-0.9,0.4-1.7,1.3-1.8c0.9-0.2,1.7,0.4,1.8,1.3c0,0.2,0,0.4,0,0.6c0.2,0.9-0.4,1.7-1.3,1.8
		c-0.9,0.2-1.7-0.4-1.8-1.3C548.2,129.4,548.2,129.2,548.3,129z M541.7,131.5h0.9v-2.3c0-1.2,0.5-2,1.5-2c0.8,0,1,0.6,1,1.8v2.6h0.9
		v-3c0-1.3-0.6-2.1-1.9-2.1c-0.7,0-1.3,0.3-1.6,0.9l0,0v-0.8h-0.9L541.7,131.5L541.7,131.5z M535.7,131.5h0.9v-2.3
		c0-1.2,0.5-2,1.5-2c0.8,0,1,0.6,1,1.8v2.6h0.9v-3c0-1.3-0.6-2.1-1.9-2.1c-0.6,0-1.3,0.3-1.6,0.8l0,0v-3h-0.9L535.7,131.5
		L535.7,131.5z M534.6,126.6c-0.4-0.1-0.7-0.2-1.1-0.2c-1.4,0-2.5,1.1-2.5,2.4c0,0.1,0,0.1,0,0.2c0,1.4,1,2.5,2.4,2.6h0.1
		c0.4,0,0.8-0.1,1.2-0.2l-0.1-0.8c-0.3,0.2-0.6,0.3-1,0.3c-0.9,0-1.7-0.8-1.7-1.7c0-0.1,0-0.1,0-0.2c-0.1-0.9,0.6-1.8,1.5-1.9l0,0
		c0.3,0,0.7,0.1,1,0.2L534.6,126.6L534.6,126.6z M529.7,130.4c-0.5,0.3-1,0.5-1.5,0.5c-0.9,0-1.6-0.7-1.6-1.6l0,0h3.5
		c0-1.6-0.5-2.8-2.2-2.8c-1.3,0-2.3,1-2.3,2.3c0,0.1,0,0.2,0,0.2c-0.2,1.3,0.7,2.5,2,2.7c0.2,0,0.4,0,0.5,0c0.5,0,1.1-0.1,1.6-0.3
		V130.4L529.7,130.4z M526.6,128.5c0-0.7,0.6-1.4,1.3-1.4s1.2,0.6,1.2,1.3v0.1H526.6z M522.7,131.5h1v-5.9h2.1v-0.9h-5.2v0.9h2.1
		L522.7,131.5z M506.5,131.5h0.9v-4.2h1.3v-0.7h-1.3V126c0-0.7,0.1-1.2,0.9-1.2c0.1,0,0.3,0,0.4,0.1v-0.7c-0.2,0-0.4-0.1-0.6-0.1
		c-1.4,0-1.7,0.8-1.7,2v0.5h-1.2v0.7h1.2L506.5,131.5L506.5,131.5z M502.3,126.5H501v-1.4l-0.9,0.3v1.2H499v0.7h1v2.9
		c-0.1,0.7,0.5,1.4,1.2,1.5c0.1,0,0.2,0,0.3,0c0.3,0,0.5-0.1,0.8-0.1v-0.8c-0.2,0.1-0.4,0.2-0.6,0.2c-0.4-0.1-0.7-0.4-0.7-0.9v-2.7
		h1.3L502.3,126.5L502.3,126.5z M498.1,126.5h-0.9v2.3c0,1.2-0.5,2.1-1.5,2.1c-0.8-0.1-1-0.6-1-1.8v-2.6h-0.9v3
		c0,1.3,0.6,2.1,1.9,2.1c0.7,0,1.3-0.3,1.6-0.9l0,0v0.8h0.9L498.1,126.5L498.1,126.5z M492.5,126.5h-1.3v-1.4l-0.9,0.3v1.2h-1.1v0.7
		h1.1v2.9c-0.1,0.7,0.5,1.4,1.2,1.5c0.1,0,0.2,0,0.3,0c0.3,0,0.5-0.1,0.8-0.1v-0.8c-0.2,0.1-0.4,0.2-0.6,0.2c-0.4,0-0.8-0.4-0.8-0.8
		v-0.1v-2.7h1.3V126.5z M487.3,131.5h0.9v-5h-0.9V131.5z M488.3,124.4h-1v1h1V124.4z M486,126.5h-1.3v-1.4l-0.9,0.3v1.2h-1.1v0.7
		h1.1v2.9c-0.1,0.7,0.5,1.4,1.2,1.5c0.1,0,0.2,0,0.3,0c0.3,0,0.5-0.1,0.8-0.1v-0.8c-0.2,0.1-0.4,0.2-0.6,0.2c-0.4,0-0.8-0.4-0.8-0.8
		v-0.1v-2.7h1.3V126.5z M479.2,131.3c0.4,0.2,0.9,0.3,1.4,0.3c0.9,0.1,1.6-0.5,1.7-1.4c0-0.1,0-0.1,0-0.2c0-1.6-2.1-1.3-2.1-2.3
		c0-0.4,0.4-0.6,0.9-0.6c0.3,0,0.7,0.1,1,0.2l0.1-0.8c-0.4-0.1-0.8-0.2-1.1-0.2c-1,0-1.8,0.5-1.8,1.5c0,1.4,2.1,1.3,2.1,2.2
		c0,0.5-0.5,0.7-0.9,0.7s-0.8-0.1-1.1-0.4L479.2,131.3L479.2,131.3z M473.6,131.5h0.9v-2.3c0-1.2,0.5-2,1.5-2c0.8,0,1,0.6,1,1.8v2.6
		h0.9v-3c0-1.3-0.6-2.1-1.9-2.1c-0.7,0-1.3,0.3-1.6,0.9l0,0v-0.8h-0.9L473.6,131.5L473.6,131.5z M471,131.5h1v-6.8h-1V131.5z
		 M463,130.4c-0.5,0.3-1,0.5-1.5,0.5c-0.9,0-1.6-0.7-1.6-1.6c0,0,0,0,0-0.1h3.5c0-1.6-0.5-2.8-2.2-2.8c-1.3,0-2.3,1-2.3,2.3
		c0,0.1,0,0.2,0,0.2c-0.2,1.3,0.7,2.5,2,2.7c0.2,0,0.4,0,0.5,0c0.5,0,1.1-0.1,1.6-0.3V130.4L463,130.4z M459.8,128.5
		c0-0.7,0.6-1.4,1.3-1.4c0.7,0,1.2,0.6,1.2,1.3v0.1H459.8z M453.2,131.5h0.9v-2.3c0-1.2,0.5-2,1.5-2c0.8,0,1,0.6,1,1.8v2.6h0.9v-3
		c0-1.3-0.6-2.1-1.9-2.1c-0.6,0-1.2,0.3-1.6,0.8l0,0v-3h-0.9L453.2,131.5L453.2,131.5z M451.7,126.5h-0.9v2.3c0,1.2-0.5,2.1-1.5,2.1
		c-0.8-0.1-1-0.6-1-1.8v-2.6h-0.9v3c0,1.3,0.6,2.1,1.9,2.1c0.7,0,1.3-0.3,1.6-0.9l0,0v0.8h0.9L451.7,126.5L451.7,126.5z
		 M443.5,131.5h0.9v-2.3c0-1.2,0.5-2,1.4-2c0.2,0,0.3,0,0.5,0.1v-0.8c-0.2,0-0.4-0.1-0.6-0.1c-0.6,0-1.1,0.4-1.3,0.9l0,0v-0.8h-0.9
		V131.5L443.5,131.5z M439.3,131.4c0.4,0.2,0.9,0.3,1.4,0.3c0.9,0.1,1.6-0.5,1.7-1.4c0-0.1,0-0.1,0-0.2c0-1.6-2.1-1.3-2.1-2.3
		c0-0.4,0.4-0.6,0.9-0.6c0.3,0,0.7,0.1,1,0.2l0.1-0.8c-0.4-0.1-0.8-0.2-1.1-0.2c-1,0-1.8,0.5-1.8,1.5c0,1.4,2.2,1.3,2.2,2.2
		c0,0.5-0.5,0.7-0.9,0.7s-0.8-0.1-1.1-0.4L439.3,131.4L439.3,131.4z M437.1,131.5h0.9v-7.3h-0.9V131.5z M433.2,131.5h0.9v-2.3
		c0-1.2,0.5-2,1.4-2c0.2,0,0.3,0,0.5,0.1v-0.8c-0.2,0-0.4-0.1-0.6-0.1c-0.6,0-1.1,0.4-1.3,0.9l0,0v-0.8h-0.9V131.5z M428,127.7
		c0.4-0.3,0.9-0.5,1.4-0.5c0.9,0,1.2,0.4,1.2,1.3h-1c-0.9,0-2.3,0.4-2.3,1.6c0,1.1,0.8,1.6,1.8,1.6c0.6,0,1.2-0.3,1.5-0.8l0,0v0.6
		h0.9c0-0.3,0-0.7,0-1v-2.1c0-1.3-0.6-2.1-2-2.1c-0.6,0-1.1,0.2-1.6,0.5L428,127.7L428,127.7z M430.7,129.6c0,0.7-0.5,1.3-1.2,1.3
		c-0.1,0-0.1,0-0.2,0c-0.5,0-0.9-0.3-0.9-0.8c0-0.9,1.2-0.9,1.7-0.9h0.6V129.6z M421.4,131.5h1v-3.3l3,3.3h1.4l-3.5-3.6l3.2-3.2
		h-1.3l-2.9,3v-3h-1L421.4,131.5z"/>
</g>
<g>
	<path class="st1" d="M142.8,339c-1.4-0.2-2.8-0.4-4.3-0.6c-3.6-0.6-6.8-2.2-9.4-4.8c-2.4-2.6-3.7-6-3.6-9.6c-0.1-8.1,0-16.1,0-24.2
		c0-0.9,0.3-1.2,1.2-1.2c2.8,0,5.6,0,8.5,0c1,0,1.3,0.3,1.3,1.3c0,7.6,0,15.2,0,22.8c0,1.4,0.2,2.7,0.7,4c1.3,3.2,4.7,5.1,8.1,4.6
		c4.1-0.5,6.5-2.8,7-6.6c0.1-1,0.2-1.9,0.2-2.9c0-7.4,0-14.9,0-22.4c0-0.7,0.2-0.9,0.9-0.9c3,0,6,0,9.1,0c0.5,0,0.9,0,0.9,0.8
		c0,8.3,0,16.6,0,24.9c0.1,6.1-4,11.6-9.9,13.2c-2.2,0.5-4.4,1-6.6,1.3c-0.3,0-0.5,0.1-0.8,0.2L142.8,339z"/>
	<path class="st1" d="M85.1,298.4h1H119c1.4,0,1.4,0,1.4,1.4v5.1c0,1.4,0,1.4-1.4,1.4h-8.9c-2.1,0-2-0.3-2,1.9c0,9.5,0,18.9,0,28.4
		c0,1.6,0,1.6-1.7,1.6c-2.6,0-5.2,0-7.7,0c-1.9,0-1.9,0.4-1.9-1.9v-28.2c0-0.3,0-0.6,0-0.9c0.1-0.8-0.3-1.1-1.1-1.1
		c-3.2,0-6.3,0-9.5,0c-0.4,0-0.8-0.1-1.2-0.1L85.1,298.4z"/>
	<path class="st1" d="M132.9,258.8c0.4,2.2-0.8,3.7-2.3,5c-2.5,2-5.2,3.9-7.8,5.9c-1.2,1-2.4,2.1-3.5,3.2c-0.9,1-1.4,2.3-1.2,3.6
		c0.1,1.7,1.4,3,3.1,2.9c0,0,0,0,0.1,0c2.3,0,4-1.2,5.7-2.5c0.4-0.3,0.9-0.5,1.3-0.7c0,0.5,0,1-0.1,1.5c-1.9,6-5.6,11.3-10.7,15.1
		c-2.2,1.8-4.9,2.9-7.8,3.3c-0.7,0-1.4,0-2.1,0l-0.3-0.6l0.9-0.4c4.6-1.9,6.4-5.7,7.2-10.3c0.1-0.6,0.2-1.3,0.2-2l-0.3-0.1l-0.6,0.9
		c-0.9,1.5-2.3,2.7-4,3.3c-1.1,0.6-2.5,0.4-3.5-0.5c-1.1-0.9-1.4-2.4-0.9-3.7c0.5-1,1-2,1.6-2.9c0.8-1.5,1.7-2.9,2.5-4.4
		c0.2-0.5,0.3-0.9,0.3-1.4l-0.3-0.2c-0.1,0.2-0.2,0.4-0.3,0.6c-1.4,2.1-3.2,3.9-5.4,5.4c-1.4,1.1-2.8,2.1-4.1,3.3
		c-2.4,2-3.8,5.1-3.6,8.3c0,0.7-0.1,1.5-0.2,2.2h-0.5c-0.2-0.4-0.4-0.7-0.5-1.1c-2.1-7.4-0.4-13.6,5.5-18.6c4.3-3.5,9.3-6,14.7-7.3
		c2.8-0.8,5.7-1.6,8.5-2.4c2.2-0.7,4.2-1.8,5.9-3.3c0.5-0.6,1-1.3,1.3-2L132.9,258.8z"/>
	<path class="st1" d="M221.6,339c-2.3-0.4-4.4-1.4-6.1-3c-2-2-3.2-4.6-3.5-7.4c-0.7-3.6-0.4-7.3,0.7-10.8
		c3.5-10.4,16.5-9.9,20.9-4.6c1.7,2,2.8,4.5,3.1,7.2c0.1,1.3,0.1,2.6,0.2,3.9c0.1,0.9-0.3,1.2-1.2,1.2c-5.7,0-11.4,0-17.1,0
		c-1.4,0-1.5,0-1.3,1.4c0.1,1.4,0.5,2.8,0.9,4.2c1.5,3.5,5.6,5.1,9,3.5c0.4-0.2,0.8-0.4,1.1-0.6c1.2-0.9,2-2.2,2.2-3.6
		c0.1-0.7,0.5-1,1.2-0.9c1.5,0,3.1,0,4.7,0c-0.2,2.9-1.7,5.6-4,7.3c-1.7,1.2-3.7,1.9-5.7,2.2L221.6,339z M224.2,321.6h4.5
		c2.5,0,2.5,0,2.1-2.5c-0.5-3.5-3.7-6-7.3-5.5c-0.2,0-0.5,0.1-0.7,0.1c-3.1,0.6-5.2,3.6-5.5,7.1c-0.1,0.7,0.4,0.7,0.9,0.7
		C220.2,321.6,222.2,321.6,224.2,321.6L224.2,321.6z"/>
	<path class="st1" d="M283.8,339c-0.7-0.2-1.5-0.4-2.2-0.6c-2.7-1-3.2-3.3-3.2-5.8c0-5.6,0-11.2,0-16.9c0-1.4,0-1.4-1.4-1.4
		c-0.8,0-1.7,0-2.5,0c-0.6,0-0.8-0.2-0.8-0.8c0-0.8,0-1.5,0-2.3s0.4-0.9,1-0.9c0.9,0.1,1.8,0,2.7,0.1c0.9,0.1,1-0.2,1-1
		c0-1.3,0-2.6,0-3.9c-0.1-0.6,0.3-1.2,0.9-1.3c0,0,0,0,0.1,0c1.5-0.4,2.9-0.9,4.4-1.4c0.1,0.5,0.1,0.9,0.1,1.3c0,1.7,0,3.4,0,5.1
		c0,0.7,0.3,1,1,1c1.7,0,3.5,0,5.2,0v3.9c-1.5,0-3.1,0.1-4.6,0.1s-1.6,0-1.6,1.5v15.4c0,2.6,1.1,3.6,3.8,3.5c0.7,0,1.5-0.1,2.3-0.2
		c0,1.1-0.1,2,0,2.9s-0.2,1.5-1.1,1.5L283.8,339z"/>
	<path class="st1" d="M174.1,318.3v-18.5c0-1.5,0-1.5,1.5-1.5c4.2,0,8.5,0,12.7,0c2.9,0,5.8,0.6,8.5,1.8c4.1,1.9,7.3,5.4,8.6,9.8
		c2,5.7,1.9,11.8-0.2,17.5c-2.7,7.1-8.1,10.5-15.5,10.9c-4.8,0.2-9.7,0-14.5,0.1c-1,0-1-0.5-1-1.2
		C174.1,330.8,174.1,324.6,174.1,318.3z M180,318.3c0,4.6,0,9.3,0,13.9c0,0.6,0,1.1,0.8,1.1c3,0,6.1,0.1,9.2-0.1
		c3.7-0.2,7-2.3,8.6-5.6c3-5.6,3.1-12.3,0.3-18c-1.5-3.4-4.7-5.7-8.4-6c-3.1-0.3-6.2-0.2-9.4-0.3c-0.9,0-1.1,0.3-1.1,1.1
		C180,309.1,180,313.7,180,318.3L180,318.3z"/>
	<path class="st1" d="M264.7,326.3c0,3.6,0,7.1,0,10.7c0,0.9-0.3,1.3-1.2,1.2c-1.1-0.1-2.2-0.1-3.3,0c-0.9,0.1-1-0.4-1-1.1
		c0-4.8,0-9.7,0-14.5c0-2.4,0-4.8,0-7.2c0-0.8-0.2-1.1-1.1-1.1c-1.2,0.1-2.3,0-3.5,0c-0.7,0-0.9-0.3-0.9-0.9c0-3.7-0.5-3,2.9-3.1
		c2.6,0,2.5,0,2.6-2.6c-0.1-1.4,0-2.9,0.2-4.3c0.5-3.1,2.8-5.1,6.1-5.8c1.9-0.4,3.8-0.3,5.6,0.2c0.4,0.1,0.6,0.4,0.7,0.8
		c0.1,1.1,0,2.1,0,3.2c0,0.6-0.3,0.7-0.9,0.7c-1.1,0-2.1-0.1-3.2,0c-2.1,0.1-3,1.2-3.1,3.2c0,1.2,0,2.3,0,3.5c0,0.8,0.3,1.1,1.1,1
		c1.4,0,2.8,0,4.1,0c0.8,0,1.2,0.2,1.2,1.2c0,2.8,0,2.8-2.8,2.8c-0.9,0-1.7,0-2.6,0s-1,0.3-1,1.1
		C264.7,319.1,264.7,322.7,264.7,326.3z"/>
	<path class="st1" d="M242.8,318.2c0-6.1,0-12.2,0-18.3c0-1.5,0-1.5,1.5-1.5h2.7c1.4,0,1.4,0,1.4,1.5v37c0,1.5,0,1.5-1.5,1.5
		c-1,0-1.9-0.1-2.9,0s-1.2-0.4-1.2-1.2c0-2.7,0-5.4,0-8.1V318.2z"/>
</g>
<g>
	<path class="st1" d="M464.6,300.6c0.2-0.8-0.2-1.1-0.8-1.4c-0.9-0.5-1.8-1-2.8-1.5c-0.1-0.1-0.2-0.1-0.3-0.1c-0.6,0.3-1,1-1,1.8
		c0,0.2,0.1,0.4,0.2,0.8c-0.5-0.3-0.9-0.5-1.3-0.8c-0.1-0.1-0.1-0.3-0.1-0.5c0.3-1.1,0.4-2.4,1.3-3.4c-0.2-0.2-0.5-0.3-0.8-0.5
		c-0.7-0.3-1.3-0.6-2-0.9c-0.6-0.2-1.3-0.4-1.9-0.5c-0.3-0.1-0.7-0.1-1.1-0.2c-0.5-0.1-0.9-0.5-1-1c-0.1-0.6-0.2-1.1-0.4-1.7
		c-0.1-0.2-0.3-0.6-0.5-0.6c-0.4,0-0.9-0.3-1.2,0.3c-0.4,0.8-0.9,1.5-1.2,2.2s-0.6,1-1.5,0.6c0.2-0.9,0.8-1.7,0.8-2.6l-0.2-0.1
		c-0.2,0.3-0.5,0.6-0.7,0.9c-0.4,0.5-0.8,1-1.2,1.5c-0.4,0.5-0.9,0-1.4,0c0.5-0.7,0.9-1.3,1.3-2c0.1-0.1,0.1-0.3,0.1-0.4
		c-0.2,0-0.3,0-0.5,0.1c-0.6,0.5-1.3,1-1.9,1.5s-0.9,0.4-1.6,0l1.9-2.3c-0.2,0-0.3,0-0.5,0.1c-0.8,0.4-1.5,0.9-2.2,1.4
		c-0.3,0.3-0.8,0.2-1.1,0c-0.2-0.1-0.3-0.2-0.6-0.4l2.1-1.5v-0.2c-0.2,0-0.3-0.1-0.5,0c-0.5,0.2-1.1,0.5-1.6,0.8
		c-0.8,0.4-0.9,0.4-1.7-0.3l1.2-0.9l1.2-0.7v-0.2c-0.2,0-0.3,0-0.5,0c-0.7,0.3-1.3,0.6-2,0.9c-0.4,0.2-0.7,0.2-1-0.2
		c-0.2-0.2-0.4-0.3-0.6-0.4l3-1.2v-0.1c-0.2,0-0.4-0.2-0.5-0.1c-0.7,0.2-1.5,0.3-2.2,0.6c-0.9,0.3-1.1,0.2-1.6-0.7l3.3-0.6v-0.2
		c-0.2-0.1-0.4-0.1-0.6-0.1c-1,0.1-2.1,0.2-3.1,0.3c-0.2,0-0.4-0.1-0.5-0.3c-0.2-0.3-0.4-0.6-0.6-0.9c1,0,1.9,0.1,2.8,0.1
		c0.7,0,1.3-0.1,2-0.1c3-0.1,6-0.5,8.9-1.2c0.3-0.2,0.7-0.4,0.9-0.6c-1.6-1-2.9-2.5-3.7-4.2c-1.2-2.2-2.2-4.5-3.4-6.7
		c-0.3-0.6-0.8-1.1-1.2-1.7c-0.3-0.6-0.6-1.2-0.7-1.9c0.3,0.3,0.7,0.5,1.1,0.7c0.3,0.2,0.7,0.5,1.1,0.1c-1.4-1.1-2.4-2.6-3-4.2
		c0.7,0.1,1.2,0.8,1.8,0.8l0.1-0.2c-0.5-0.5-0.9-0.9-1.4-1.4c-0.8-0.8-1.6-1.6-2.2-2.5c-0.7-1-1-2.1-1.1-3.3l3.5,2.5
		c0.1,0.1,0.2,0.1,0.3,0.2c0.2,0,0.3,0,0.5,0c0-0.1,0-0.3-0.1-0.4c-1.4-1.7-2.3-3.6-2.9-5.7c-0.2-0.8-0.2-1.6,0-2.4l5,5.7l0.2-0.1
		c0-0.1,0.1-0.3,0-0.4c-0.9-1.7-1.6-3.4-2-5.3c-0.4-1.1-0.4-2.3-0.1-3.4l0.2-0.4l3.6,5.1l0.2-0.1c0-0.2,0.1-0.3,0-0.5
		c-0.7-1.9-1-4-0.8-6.1c0.1-0.8,0.4-1.6,0.8-2.3c0.6,2.7,1.8,5.2,3.3,7.5h0.2c0-0.2,0-0.4,0-0.6c-0.5-2.1-0.3-4.2,0.3-6.2
		c0.2-0.4,0.4-0.8,0.7-1.2c0,1.4,0.2,2.8,0.7,4.2c0.9,2.8,2,5.6,3,8.3c0.7,1.8,1.5,3.5,2.3,5.2c0.1,0.2,0.2,0.5,0.4,0.7
		c0.4,0.8,0.6,1.6,0.4,2.5c0,1,0,2,0,3c0.1,1.2,0.3,2.4,0.5,3.5c0.1,0.7,0.3,1.4,0.8,1.9c0.4-0.7,0.7-1.3,1.1-1.9
		c1.1-1.8,2.4-3.5,3.9-5c1.4-1.4,3-2.5,4.8-3.3c0.3-0.1,0.6-0.2,0.9-0.4c0.4-0.2,0.7-0.5,1.1-0.8c1.4-1,2.7-2.2,4.1-3.1
		c0.9-0.6,1.9-1,2.9-1.4c0.4-0.1,0.8-0.1,1.2-0.1v0.2l-1.3,1.1v0.2c0.2,0,0.3,0,0.5,0c1.2-0.4,2.4-0.9,3.6-1.3
		c0.9-0.4,1.9-0.7,2.9-0.7l-4,3l0.1,0.2c0.1,0,0.3,0.1,0.4,0.1c1.1-0.4,2.2-0.9,3.2-1.4c1.6-0.7,3.3-1.2,5-1.2l-5.9,3.4v0.2
		c0.1,0,0.3,0,0.4,0c1.6-0.5,3.1-1.1,4.7-1.6c1-0.3,2.1-0.5,3.2-0.6c0.6,0,1.2,0.1,1.7,0.3c-2.7,0.7-5.3,1.7-7.8,3v0.2
		c0.2,0.1,0.3,0.1,0.5,0.1c2.1-0.5,4.1-1,6.2-1.4c0.9-0.1,1.8-0.2,2.7-0.2c0.1,0,0.3,0.1,0.5,0.2c-2.6,0.5-5,1.3-7.3,2.5
		c-1.7,0.8-3.4,1.6-5,2.6c-1.3,0.8-2.6,1.7-3.7,2.7c-1.9,1.7-3.6,3.7-5.4,5.5c-1.2,1.3-2.5,2.4-4,3.3c-1.4,0.7-3,1.3-4.5,1.9
		c-0.5,0.2-1.1,0.4-1.6,0.6c-0.1,0-0.2,0.2-0.3,0.3c0.1,0.1,0.2,0.2,0.3,0.2c1,0.1,2,0.2,3.1,0.2c1.2,0.1,2.5,0.2,3.7,0.2
		c0.7,0,1.4,0,2.1,0c1.2,0.1,2.4,0.3,3.6,0.5c0.5,0.1,0.9,0.4,1,0.9c0.1,0.3,0.4,0.6,0.7,0.6c0.6,0.1,1.1,0.3,1.7,0.6
		c0.9,0.4,1,1,0.5,1.9c-0.9-1.2-2.2-0.7-3.2-0.4c-1.8,0.5-3.4,1.2-5.2,1.6c-1.1,0.3-2.2,0.7-3.3,1.2c-2,0.7-1.9,2-0.8,3.4
		c0.8,1,1.7,1.9,2.6,2.9c0,0.1,0.1,0.1,0.2,0.2c0.8,0.4,0.8,1,0.9,1.8c0.2,0.8,0.6,1.6,1.4,2.1c0.1,0.1,0.3,0,0.4,0
		c1.6-0.1,3.1-0.2,4.7-0.2c1.8,0,1.7,0.4,1.1,1.9c-0.6-1.6-1.9-1-3-1c-0.5,0-0.9,0.1-1.4,0.2c-0.2,0.1-0.4,0.2-0.6,0.4
		c0.8,0.3,1.5,0.5,2.2,0.8s1.4,0.6,2,1c0.6,0.3,0.6,0.6,0.3,1.1c0,0.1-0.1,0.1-0.2,0.2c-0.1,0.2-0.3,0.4-0.5,0.5
		c0-1.3-0.9-1.4-1.7-1.6c-0.8-0.2-1.7-0.5-2.6-0.7c-0.8-0.2-1.7,0.3-1.9,1.1c-0.1,0.2-0.1,0.4,0,0.6c0,0.1,0,0.2,0,0.2
		c-1.2-0.3-1.3-0.7-0.8-1.7c0.3-0.6,0.7-1.1,0.4-1.8c-0.3-0.7-0.8-1.7-1.8-2.1c-1.4-0.6-2.8-1.4-4-2.4c-0.6-0.4-1.3-0.7-2-1.1
		c-0.4-0.2-0.8-0.5-1.2-0.8l-0.5,1.2c0.3,0.5,0.7,0.8,1.2,0.9l3.2,1.2c0.1,0.1,0.3,0.1,0.4,0.2c0.7,0.5,0.8,0.7,0.4,1.5
		c-0.2-0.3-0.4-0.8-0.7-0.9c-0.6-0.3-1.2-0.3-1.8,0c0.2,0.2,0.4,0.3,0.5,0.4c0.4,0.3,0.8,0.5,1.2,0.8
		C465.8,299.2,465.7,299.8,464.6,300.6z"/>
	<path class="st1" d="M395.9,321.1l-3.3-9.1h-0.2c-0.1,0.7-0.1,1.4,0,2.2c0,0.8,0,1.5,0,2.3v4.6h-5.1v-14.9h2.9c1.2,0,2.4,0,3.6,0
		c0.4,0,0.7,0.2,0.8,0.5c1.1,3,2.3,6,3.4,8.9c1.7,4.5,0.1,0.1,0.2,0.2l3.7-9.6h6.9V321h-5.1v-9.1h-0.2c-0.2,0.4-0.3,0.8-0.5,1.2
		c-0.9,2.6-1.9,5.1-2.8,7.7c-0.1,0.2-0.2,0.3-0.4,0.3C398.4,321.1,397.1,321.1,395.9,321.1z"/>
	<path class="st1" d="M410.9,306.1h0.7c4,0,8.1,0,12.2,0c0.7,0,1.3,0.1,2,0.3c1.5,0.5,2.1,1.2,2.2,2.9c0.3,1.6-0.6,3.1-2.2,3.5
		c0,0,0,0.1-0.1,0.2c0.3,0.1,0.7,0.3,1,0.4c1.3,0.3,2.1,1.5,2,2.8c0.1,0.8,0,1.6-0.3,2.4c-0.5,1.1-1.6,2-2.8,2.1
		c-1,0.2-2.1,0.3-3.1,0.4c-3.7,0-7.3,0-11,0h-0.6L410.9,306.1z M419.5,315.1c-0.9,0-1.8,0-2.8,0c-0.6,0-0.7,0.2-0.7,0.7
		c0,0.4,0,0.9,0,1.3c0,0.5,0.2,0.6,0.7,0.6c1.7,0,3.5,0,5.2,0c0.3,0,0.6-0.1,0.9-0.2c0.5-0.3,0.8-0.8,0.8-1.4c-0.2-0.6-0.7-1-1.3-1
		H419.5z M419.2,309.5h-1.9c-1.3,0-1.2-0.2-1.2,1.1c0,1.3-0.2,1.2,1.2,1.2s2.8,0,4.3,0c0.6,0,1.2-0.4,1.4-1c0.1-0.5-0.1-1-0.6-1.2
		c-0.3-0.1-0.6-0.2-0.9-0.2C420.8,309.5,420,309.5,419.2,309.5L419.2,309.5z"/>
	<path class="st1" d="M470.2,306.1h0.7c3.6,0,7.2,0,10.8,0c1,0,2.1,0.2,3,0.6c1.1,0.5,1.9,1.6,2.1,2.8c0.4,1.5,0.2,3-0.7,4.3
		c-0.5,0.6-1.2,1.1-1.9,1.2c-0.6,0.1-0.4,0.3-0.2,0.7c1.1,1.7,2.2,3.4,3.2,5.1c0,0.1,0.1,0.2,0.1,0.3c-1.9,0-3.7,0-5.5,0
		c-0.2,0-0.3-0.1-0.4-0.2c-0.9-1.5-1.7-3.1-2.6-4.6c-0.1-0.4-0.5-0.6-0.9-0.5c-0.6,0-1.2,0-1.9,0c-0.4,0-0.6,0.1-0.6,0.6
		c0,1.5,0,3,0,4.4c0,0.1,0,0.2,0,0.3h-5.2v-2c0-0.9,0-1.7,0-2.6c0-0.6-0.1-0.8-0.7-0.8c-2.2,0-4.3,0-6.5,0c0-0.1,0-0.2,0-0.3
		c0.6-0.9,1.2-1.8,1.8-2.8c0.1-0.2,0.4-0.4,0.6-0.3c1.4,0,2.8,0,4.2,0c0.5,0,0.6-0.1,0.6-0.6c0-1.6,0-3.3,0-4.9V306.1z M478,309.5
		c-0.7,0-1.3,0-2,0s-0.7,0.2-0.6,0.7s0,1.1,0,1.6c0,0.6,0.1,0.6,0.6,0.6c1.5-0.1,3-0.1,4.5-0.1c0.7,0,1.3-0.5,1.3-1.2
		c0-0.3-0.1-0.6-0.2-0.8c-0.4-0.4-0.9-0.6-1.4-0.7C479.3,309.5,478.7,309.4,478,309.5L478,309.5z"/>
	<path class="st1" d="M447.7,321.1c-1.9,0-3.8,0-5.6,0c-0.2,0-0.3-0.1-0.4-0.3c-0.6-1.1-1.2-2.1-1.8-3.2c-0.1-0.2-0.2-0.3-0.3-0.4
		c-0.3-0.5-0.5-1.2-0.9-1.4c-0.8-0.1-1.7-0.1-2.5,0c-0.1,0-0.3,0.4-0.3,0.6c0,1.4,0,2.7,0,4.1v0.7h-5.2v-15h0.7c3.6,0,7.3,0,10.9,0
		c1.4-0.1,2.9,0.3,3.9,1.3c1,1.1,1.5,2.6,1.2,4.1c-0.1,1.2-0.7,2.3-1.7,3c-0.3,0.2-0.7,0.4-1.1,0.5s-0.4,0.3-0.2,0.6
		c1.1,1.7,2.1,3.4,3.2,5C447.5,320.7,447.6,320.9,447.7,321.1z M438.1,312.3L438.1,312.3c0.9,0,1.9-0.1,2.8-0.2
		c0.5-0.1,0.9-0.4,1.2-0.8c0.1-0.4,0.1-0.8-0.1-1.1c-0.3-0.5-0.9-0.8-1.5-0.8c-1.4,0-2.7,0-4.1,0c-0.3,0-0.5,0.1-0.5,0.5
		c0,0.6,0,1.2,0,1.9c0,0.4,0.2,0.5,0.5,0.5H438.1z"/>
	<path class="st1" d="M496.2,321.1v-14.9h0.6c2.9,0,5.9-0.1,8.8,0c2.1-0.1,4.2,0.6,5.8,1.9c0.8,0.8,1.4,1.7,1.7,2.8
		c0.7,2.2,0.6,4.5-0.3,6.6c-0.8,1.8-2.5,3-4.5,3.3c-0.9,0.2-1.9,0.3-2.9,0.2c-2.8,0-5.7,0-8.5,0L496.2,321.1z M501.2,313.7
		c0,1.1,0,2.2,0,3.3c0,0.6,0.2,0.7,0.7,0.7c0.8,0,1.7,0,2.5,0c1.1,0,2.2-0.4,3-1.1c0.6-0.6,0.9-1.4,1-2.3c0.4-2-1-4-3-4.4
		c-1.2-0.2-2.3-0.1-3.5-0.1c-0.5,0-0.6,0.2-0.6,0.6C501.3,311.5,501.3,312.6,501.2,313.7L501.2,313.7z"/>
	<path class="st1" d="M515,321.1v-14.9h0.6c2.9,0,5.9,0,8.8,0c1.7,0,3.4,0.4,4.9,1.3c1.5,1,2.5,2.5,2.8,4.2c0.4,1.7,0.3,3.6-0.3,5.3
		c-0.7,2.1-2.6,3.6-4.7,3.9c-1.1,0.2-2.1,0.3-3.2,0.2c-2.7,0-5.5,0-8.2,0H515z M520.1,313.7c0,1.1,0,2.3,0,3.4
		c0,0.4,0.1,0.6,0.5,0.6c1.2-0.1,2.4,0,3.7-0.2c0.8,0,1.5-0.4,2-1c0.8-1.1,1.2-2.4,0.9-3.7c-0.3-1.5-1.5-2.7-3-2.9
		c-1.2,0-2.4-0.1-3.7-0.1c-0.4,0-0.4,0.2-0.4,0.5V313.7z"/>
	<path class="st1" d="M564,321h-15.8v-14.9h15.6v3.3h-0.7c-3,0-6,0-9.1,0c-0.5,0-0.8,0.1-0.7,0.7c0,0.4,0,0.8,0,1.2
		c0,0.5,0.2,0.6,0.6,0.6c2.2,0,4.4,0,6.6,0h2.5v3.4h-0.6c-2.8,0-5.6,0-8.4,0c-0.5,0-0.7,0.2-0.7,0.7c0,0.3,0,0.7,0,1.1
		c0,0.5,0.1,0.7,0.7,0.7c3.1,0,6.2,0,9.2,0h0.7L564,321z"/>
	<path class="st1" d="M385.3,309.5h-8.2c-0.5,0-1.1,0-1.6,0s-0.6,0.2-0.6,0.6s0,0.9,0,1.3c0,0.5,0.2,0.6,0.6,0.6c2.6,0,5.3,0,7.9,0
		h1v3.4h-0.6c-2.8,0-5.6,0-8.4,0c-0.6,0-0.8,0.2-0.7,0.7c0,0.3,0,0.7,0,1c-0.1,0.5,0.2,0.7,0.7,0.7c3.1,0,6.2,0,9.3,0h0.7v3.3h-15.6
		v-14.9h15.5L385.3,309.5z"/>
	<path class="st1" d="M459.1,321h-5.2c0-0.6,0-1.3,0-1.9c0.2-1.6-0.3-3.2-1.3-4.4c-1.9-2.7-3.6-5.5-5.4-8.2
		c-0.1-0.1-0.1-0.2-0.1-0.3h6.2l3.3,6c0.1-0.1,0.1-0.2,0.2-0.2c0.9-1.8,1.9-3.7,2.9-5.5c0.1-0.1,0.3-0.3,0.4-0.3c1.9,0,3.8,0,5.9,0
		c-0.4,0.6-0.7,1.1-1,1.6l-4.4,6.8c-0.4,0.6-0.8,1.1-1.1,1.7c-0.2,0.3-0.3,0.6-0.3,1C459.1,318.5,459.1,319.8,459.1,321z"/>
	<path class="st1" d="M546.7,317.5v3.5h-12.8v-14.9h5.2v10.5c0,0.8,0,0.8,0.8,0.8h6.8V317.5z"/>
	<path class="st1" d="M488.7,321v-14.9h5.2V321H488.7z"/>
	<path class="st1" d="M382.5,336c-0.5,0-1,0-1.4,0c-0.2,0-0.4-0.2-0.5-0.3c-0.3-0.6-0.6-1.2-0.9-1.8c-0.1-0.4-0.5-0.6-0.8-0.5
		c-2,0-4,0-6,0c-0.3-0.1-0.6,0.1-0.6,0.4c-0.3,0.7-0.6,1.4-1,2c-0.1,0.1-0.2,0.2-0.4,0.2c-0.5,0-0.9,0-1.5,0
		c0.3-0.5,0.5-0.8,0.7-1.2c1.1-2.2,2.2-4.4,3.4-6.6c0.5-1,1-1.9,1.5-2.9c0.1-0.3,0.4-0.5,0.7-0.5c1-0.2,1.4,0.4,1.8,1.2
		c1.6,3.2,3.2,6.3,4.8,9.4C382.4,335.6,382.4,335.8,382.5,336z M376.1,326.6l-0.2-0.1l-2.7,5.4h5.5L376.1,326.6z"/>
	<path class="st1" d="M493.7,324.9h1.5v1.1c0,2.1,0,4.1,0,6.2c0,2.4-1.4,3.6-3.5,4c-1.6,0.4-3.2,0.3-4.7-0.1
		c-1.8-0.5-3.2-1.7-3.1-3.8s0-4.4,0-6.7v-0.7h1.4v2.6c0,1.3,0,2.6,0,3.9c0,0.5,0.1,0.9,0.2,1.4c0.2,0.9,0.9,1.6,1.8,1.8
		c1.6,0.6,3.4,0.6,5-0.2c0.9-0.4,1.5-1.3,1.4-2.3c0-2.2,0-4.4,0-6.6L493.7,324.9z"/>
	<path class="st1" d="M462.7,330c0.1-0.7,0.6-1.3,1.3-1.5c1.7-0.5,3.6-0.5,5.3-0.1c1,0.2,1.6,1,1.5,2c0,1.2,0,2.4,0,3.6
		c0,0.9,0.5,1.2,1.4,1c0,0.2,0,0.5,0,0.7s-0.2,0.4-0.4,0.4c-0.4,0-0.9,0-1.3,0c-0.6,0-0.8-0.5-1-1c-1.1,0.9-2.5,1.4-4,1.3
		c-1,0.1-2-0.3-2.7-1c-0.7-0.8-0.8-1.8-0.4-2.8c0.3-0.8,1-1.2,1.9-1.2c1.5-0.1,3-0.1,4.5-0.1c1,0,1.1-0.3,0.6-1.1
		c-0.2-0.3-0.5-0.6-0.9-0.8c-1-0.3-2.1-0.3-3.2,0c-0.2,0-0.4,0.1-0.5,0.2C464.3,330.3,463.4,330.4,462.7,330z M467.2,332.4
		L467.2,332.4c-0.8,0-1.7,0-2.5,0.1s-1.4,1-1,1.6c0.3,0.6,0.8,0.9,1.4,1s1.2,0.1,1.8,0c1.3-0.1,2.4-1,2.7-2.2
		c0.1-0.4-0.1-0.5-0.4-0.5C468.5,332.4,467.8,332.4,467.2,332.4z"/>
	<path class="st1" d="M430.3,335.1c0.1,1.1,0.1,1.1-1,1.1c-0.2,0-0.4,0-0.6,0c-0.4-0.1-0.9-0.1-1-0.7c0-0.1-0.2-0.2-0.2-0.3
		c-1.3,1-3,1.5-4.6,1.1c-0.7-0.1-1.4-0.3-2-0.8c-0.7-0.7-0.9-1.8-0.5-2.8c0.3-0.8,1.2-1.4,2.1-1.3c1.5,0,3-0.1,4.5-0.1
		c0.5,0,0.7-0.1,0.5-0.6c-0.2-0.8-0.8-1.4-1.7-1.4c-0.8-0.2-1.7-0.1-2.5,0.1c-0.2,0-0.4,0.1-0.5,0.2c-0.6,0.7-1.3,0.5-2.1,0.4
		c0.1-1,1-1.7,2-1.8c1.6-0.3,3.2-0.2,4.7,0.2c0.9,0.1,1.5,1,1.4,1.9c0,1.2,0,2.4,0,3.7C428.9,334.9,429.3,335.2,430.3,335.1z
		 M423.9,335.4l0.1-0.1c0.3,0,0.7-0.1,1-0.1c1.3-0.1,2.3-1,2.7-2.2c0.1-0.4,0-0.5-0.4-0.5c-0.7,0-1.4,0-2,0c-0.8,0-1.6,0-2.4,0.1
		c-0.5,0-1,0.4-1.1,0.9s0.1,1,0.5,1.2C422.7,335,423.3,335.2,423.9,335.4z"/>
	<path class="st1" d="M392.1,333.8c-0.5,1.3-1.6,2.2-2.9,2.3c-1.1,0.2-2.3,0.2-3.4-0.1c-1.6-0.4-2.7-1.8-2.9-3.4
		c-0.2-1.2,0.2-2.5,1.1-3.4c0.8-0.7,1.8-1.1,2.9-1.1c0.9-0.1,1.9,0,2.8,0.3c1.4,0.6,2.3,1.8,2.5,3.3c0,0.2,0,0.4,0.1,0.7H385
		c-0.6,0-0.7,0.2-0.5,0.7c0.9,1.8,3,2.5,4.8,1.6c0.5-0.2,0.9-0.6,1.2-1c0.2-0.1,0.4-0.2,0.7-0.2
		C391.5,333.6,391.8,333.7,392.1,333.8z M390.7,331.2c-0.2-0.3-0.4-0.5-0.5-0.7c-0.6-0.9-1.6-1.4-2.6-1.3c-1.1,0-2.2,0.5-2.8,1.4
		c-0.1,0.2-0.2,0.3-0.2,0.5c0.2,0.1,0.3,0.1,0.5,0.2c1.7,0,3.3,0,5,0C390.2,331.3,390.4,331.2,390.7,331.2L390.7,331.2z"/>
	<path class="st1" d="M528.6,332.4h-7.3c-0.6,0-0.7,0.1-0.4,0.7c0.4,0.9,1.1,1.6,2.1,1.8c1.4,0.6,3.1,0.1,4-1.2
		c0.1-0.1,0.3-0.2,0.4-0.2c0.4,0.1,0.7,0.2,1.1,0.3c-0.3,0.8-0.9,1.5-1.7,1.9c-1.5,0.7-3.2,0.8-4.8,0.3c-3.5-1-3.4-5.4-1.5-6.9
		c0.6-0.5,1.4-0.9,2.3-0.9c1.4-0.3,2.9,0,4.1,0.8C528,329.7,528.6,331,528.6,332.4z M526.9,331.2c-0.5-1.3-1.7-2.1-3-2.1
		c-1.1,0-2.1,0.6-2.7,1.4c-0.1,0.2-0.2,0.4-0.3,0.5c0.2,0.1,0.4,0.1,0.6,0.2c1.6,0,3.3,0,4.9,0C526.5,331.3,526.7,331.2,526.9,331.2
		L526.9,331.2z"/>
	<path class="st1" d="M534.8,334.8c0.1-0.1,0.3-0.1,0.4-0.2c0.5-0.6,1.3-0.6,1.9-0.2c1.2,0.7,2.6,0.9,3.9,0.6c0.5-0.1,1-0.2,1.4-0.5
		c0.7-0.4,0.7-1.1-0.1-1.4c-0.5-0.2-1.1-0.3-1.6-0.4c-1-0.1-2-0.2-2.9-0.2s-1.7-0.6-2.1-1.4c-0.4-1.1,0.3-2.3,1.4-2.6
		c0.1,0,0.2,0,0.2-0.1c1.2-0.4,2.4-0.5,3.6-0.3c1.1,0.1,2.2,0.4,3.2,1c0.4,0.3,0.4,0.4,0,0.6c-0.1,0.1-0.3,0.1-0.4,0.2
		c-0.2,0.2-0.6,0.2-0.9,0c-1.5-0.9-3.3-1-4.9-0.3c-0.3,0.1-0.6,0.5-0.6,0.7s0.4,0.6,0.7,0.6c0.6,0.2,1.2,0.3,1.8,0.4
		c0.9,0.1,1.8,0.1,2.8,0.2c1.1,0,1.9,0.8,2,1.9c0.1,0.9-0.3,1.8-1.2,2.3c-1.3,0.6-2.8,0.8-4.2,0.5c-0.9-0.2-1.8-0.3-2.7-0.6
		C535.9,335.4,535.3,335.1,534.8,334.8z"/>
	<path class="st1" d="M403.7,336.3c-1.2,0.1-2.4-0.2-3.4-0.8c-0.9-0.6-1.4-1.5-1.5-2.6c-0.2-1.3,0.3-2.6,1.2-3.5
		c0.7-0.6,1.6-1,2.6-1.1c1-0.2,2.1-0.2,3.1,0.1c2.1,0.3,3.5,2.3,3.1,4.3c0,0.1,0,0.1,0,0.2c-0.3,2.4-2.6,3.4-4.4,3.4H403.7z
		 M403.9,329.4l-0.1-0.2c-0.8,0.2-1.5,0.4-2.2,0.8c-2,1.3-1.8,3.3-0.1,4.4c1.5,1,3.4,1,4.9-0.1c1.1-0.8,1.4-2.3,0.7-3.4
		C406.3,329.9,405.1,329.3,403.9,329.4z"/>
	<path class="st1" d="M554.5,328.4L554.5,328.4c1.5-0.1,1.5-0.1,2.2,1.2s1.4,2.9,2.1,4.3c0.1,0.2,0.3,0.4,0.4,0.6
		c0.3-0.6,0.6-1.2,0.9-1.7c0.6-1.3,1.3-2.5,1.9-3.8c0.1-0.4,0.6-0.7,1-0.6c0.3,0,0.6,0,0.9,0c-0.6,1.2-1.2,2.4-1.8,3.6
		c-1,1.9-2,3.8-3,5.7c-0.4,0.7-1.1,1.1-1.8,1.1c-0.5,0-1,0-1.5,0c-0.8,0-0.8,0-0.8-0.8v-0.5c0.8-0.1,1.6,0.4,2.4-0.1
		c0.3-0.2,0.6-0.5,0.8-0.8c0.1-0.2,0.1-0.5,0-0.8c-1.1-2.2-2.2-4.4-3.4-6.7C554.6,328.8,554.6,328.6,554.5,328.4z"/>
	<path class="st1" d="M461,330.5l-1.3,0.4c-0.7-1-1.7-1.6-2.9-1.6c-1.6-0.1-3,0.8-3.7,2.2c-0.4,1.2,0.1,2.5,1.2,3.1
		c1.6,0.9,3.5,0.9,5-0.1c0.2-0.2,0.5-0.5,0.7-0.7l1.3,0.3c-0.3,0.8-0.9,1.4-1.7,1.7c-1,0.5-2,0.7-3.1,0.6c-0.9,0-1.8-0.2-2.7-0.5
		c-1.3-0.4-2.1-1.6-2.2-2.9c-0.3-1.3,0.2-2.8,1.2-3.7c0.7-0.5,1.5-0.9,2.4-1c1.4-0.3,2.8-0.2,4.1,0.4C460,329,460.7,329.6,461,330.5
		z"/>
	<path class="st1" d="M431.2,328.4h1.4v0.5c0,1.2,0.1,2.4,0,3.6s0.8,2.4,2,2.5c0.1,0,0.1,0,0.2,0c1.1,0.2,2.3-0.1,3.2-0.8
		c0.6-0.4,0.9-1.1,0.9-1.8c0-1.3,0-2.7,0-4h1.3v7.6h-1.3l-0.2-0.8c-0.8,0.8-1.9,1.2-3.1,1.2c-1.3,0.2-2.6-0.2-3.6-1
		c-0.5-0.5-0.7-1.1-0.8-1.7C431.1,331.9,431.2,330.2,431.2,328.4z"/>
	<path class="st1" d="M505.7,336h-1.4c0-1.3,0-2.6,0-3.9c0-1.9-1.1-2.6-2.6-2.8c-1.2-0.2-2.4,0.2-3.1,1.1c-0.3,0.4-0.5,0.9-0.6,1.4
		c-0.1,1.3,0,2.7,0,4h-1.3v-7.6h1.2l0.2,0.7c1.2-0.8,2.6-1.2,4-1c1.5,0.1,2.9,0.7,3.3,2.2c0.1,0.3,0.2,0.7,0.2,1
		C505.7,332.8,505.7,334.4,505.7,336z"/>
	<path class="st1" d="M418.9,336h-1.2c0-1.2,0-2.4,0-3.5c0.1-0.9-0.2-1.7-0.8-2.3c-0.8-0.7-1.9-1-3-0.7c-0.5,0.1-1,0.3-1.5,0.6
		c-0.6,0.4-1,1.1-1,1.8c-0.1,1.4-0.1,2.7-0.2,4.1H410v-7.6h1.2l0.1,0.6c0.8-0.3,1.6-0.6,2.4-0.8c1.5-0.4,3.1,0,4.3,0.9
		c0.5,0.5,0.8,1.1,0.8,1.8C419,332.6,418.9,334.3,418.9,336z"/>
	<path class="st1" d="M514.4,334.5c0.2-0.3,0.4-0.5,0.5-0.8c0.8-1.7,1.7-3.3,2.5-5c0.2-0.3,0.3-0.5,0.7-0.4c0.4,0,0.8,0,1.2,0
		l-1.5,2.9c-0.7,1.3-1.3,2.6-2,3.9c-0.2,0.3-0.3,0.7-0.6,0.8c-0.5,0.1-1,0.1-1.5,0c-0.1,0-0.2-0.1-0.2-0.2l-3.6-7.1
		c0-0.1-0.1-0.2-0.1-0.3h1.6L514.4,334.5z"/>
	<path class="st1" d="M441.7,329.4v-1c0.1,0,0.2,0,0.3,0c1.1,0,1-0.1,1-1v-1.5c0,0,0-0.1,0-0.2h1.3c0,0.7,0,1.4,0,2.1
		c0,0.4,0.1,0.6,0.6,0.6c0.4,0,1.1,0,1.6,0v1c-0.5,0-1.1,0-1.6,0s-0.6,0.2-0.6,0.6c0.1,1.2,0.1,2.4,0,3.6c-0.1,0.7,0.4,1.3,1.1,1.4
		c0.2,0,0.5,0,0.7-0.1c0.1,0,0.2,0,0.3,0v1.3c-0.8,0.1-1.5,0.1-2.3,0c-0.9-0.2-1.2-0.6-1.2-1.9c0-1.2,0-2.6,0-4c0-0.8,0-0.8-0.8-0.9
		H441.7z"/>
	<path class="st1" d="M553.6,334.8c0.1,1.4,0.1,1.4-1.1,1.4h-0.7c-1.1,0-1.6-0.5-1.6-1.6c0-1.4,0-2.9,0-4.3c0-0.8,0-0.8-0.8-0.8
		h-0.6v-1h0.3c1.2,0,1.1,0.1,1.1-1.1V326v-0.1h1.3v1.5c0,1.3-0.1,1.2,1.2,1.2h0.9v1H552c-0.3,0-0.5,0.1-0.5,0.4c0,1.5,0,2.9,0,4.4
		c0,0.6,0.8,0.9,1.6,0.7L553.6,334.8z"/>
	<path class="st1" d="M531.1,336h-1.3v-7.6h1.3l0.2,0.7c0.9-0.7,2.1-1,3.2-1c0.4,0,0.6,0.1,0.5,0.5s0,0.7,0,1
		c-0.9-0.3-1.9-0.3-2.7,0.2c-0.8,0.4-1.2,1.2-1.2,2C531.1,333.2,531.1,334.6,531.1,336z"/>
	<path class="st1" d="M394.7,336h-1.3v-7.6h1.3l0.2,0.7l0.9-0.5c0.8-0.4,1.6-0.5,2.5-0.4c0.2,0,0.3,0.2,0.3,0.3c0,0.3,0,0.7,0,1
		c-0.7,0-1.3,0.1-2,0.1c-1.1,0.1-1.9,1.1-1.8,2.3c0,1.2,0,2.3,0,3.5C394.7,335.6,394.7,335.8,394.7,336z"/>
	<path class="st1" d="M473.8,324.9h1.2V336h-1.2V324.9z"/>
	<path class="st1" d="M507.4,328.4h1.3v7.6h-1.3V328.4z"/>
	<path class="st1" d="M545.9,328.4h1.3v7.6h-1.3V328.4z"/>
	<path class="st1" d="M448.5,328.4h1.2v7.6h-1.2V328.4z"/>
	<path class="st1" d="M547.2,327h-1.3v-1.4h1.3V327z"/>
	<path class="st1" d="M507.4,327v-1.4h1.3v1.4H507.4z"/>
	<path class="st1" d="M449.7,327h-1.3v-1.4h1.3V327z"/>
</g>
<path id="sze_logo" class="st1" d="M267.5,116l-1-0.4l-1,2h1L267.5,116z M269.2,116.1l-1-0.5l-1,2h1L269.2,116.1z M305.4,126.4V123
	c0-0.1-0.1-0.1-0.1-0.1h-19.1c-0.1,0-0.1,0.1-0.1,0.1v3.5c0,0.1,0.1,0.1,0.1,0.1h19.1c0.1,0,0.1,0,0.2-0.1
	C305.4,126.5,305.4,126.5,305.4,126.4L305.4,126.4z M108.1,126.4V123c0-0.1-0.1-0.1-0.2-0.1H55.2c-0.1,0-0.2,0-0.2,0.1l0,0v3.5
	c0,0.1,0.1,0.1,0.1,0.1h52.8C108,126.7,108.1,126.6,108.1,126.4C108.1,126.5,108.1,126.5,108.1,126.4L108.1,126.4z M108.1,112.4
	v-3.5c0-0.1-0.1-0.1-0.2-0.1H55.2c-0.1,0-0.1,0.1-0.1,0.1v3.5c0,0.1,0.1,0.1,0.1,0.1L108.1,112.4
	C107.9,112.6,108.1,112.6,108.1,112.4L108.1,112.4z M129.6,126.4V123c0-0.1-0.1-0.1-0.1-0.1h-14.3c-0.1,0-0.1,0.1-0.1,0.1v3.5
	c0,0.1,0.1,0.1,0.1,0.1h14.2C129.5,126.6,129.6,126.6,129.6,126.4L129.6,126.4z M129.6,119.4V116c0-0.1-0.1-0.1-0.1-0.2h-14.3
	c-0.1,0-0.1,0.1-0.1,0.2v3.5c0,0.1,0.1,0.1,0.1,0.2h14.2C129.5,119.6,129.6,119.6,129.6,119.4L129.6,119.4z M129.6,112.4v-3.5
	c0-0.1-0.1-0.1-0.1-0.1h-14.3c-0.1,0-0.1,0.1-0.1,0.1v3.5c0,0.1,0.1,0.1,0.1,0.1h14.2C129.5,112.7,129.6,112.6,129.6,112.4
	L129.6,112.4z M129.6,105.4v-3.5c0-0.1-0.1-0.1-0.1-0.1h-14.3c-0.1,0-0.1,0.1-0.1,0.1v3.5c0,0.1,0.1,0.1,0.1,0.2h14.2
	C129.5,105.7,129.6,105.6,129.6,105.4L129.6,105.4z M129.6,98.4v-3.5c0-0.1-0.1-0.1-0.1-0.1h-14.3c-0.1,0-0.1,0.1-0.1,0.1v3.5
	c0,0.1,0.1,0.1,0.1,0.1h14.2C129.5,98.7,129.6,98.6,129.6,98.4L129.6,98.4z M129.6,91.4v-3.5c0-0.1-0.1-0.1-0.1-0.1h-14.3
	c-0.1,0-0.1,0.1-0.1,0.1v3.5c0,0.1,0.1,0.1,0.1,0.1h14.2C129.5,91.6,129.6,91.5,129.6,91.4L129.6,91.4z M129.6,84.4V81
	c0-0.1-0.1-0.1-0.1-0.2h-14.3c-0.1,0-0.2,0-0.2,0.1l0,0v3.5c0,0.1,0.1,0.1,0.1,0.1h14.2C129.5,84.6,129.6,84.5,129.6,84.4
	L129.6,84.4z M129.6,77.4v-3.5c0-0.1-0.1-0.1-0.1-0.1h-14.3c-0.1,0-0.1,0.1-0.1,0.1v3.5c0,0.1,0.1,0.1,0.1,0.1h14.2
	C129.5,77.5,129.5,77.5,129.6,77.4C129.6,77.5,129.6,77.5,129.6,77.4L129.6,77.4z M129.6,70.4V67c0-0.1-0.1-0.1-0.1-0.1h-14.3
	c-0.1,0-0.2,0-0.2,0.1l0,0v3.5c0,0.1,0.1,0.1,0.1,0.1h14.2C129.5,70.6,129.6,70.6,129.6,70.4L129.6,70.4z M276.4,122.6h-1.7v-2.9
	h1.8c0.5,0,1,0.1,1.5,0.3c0.3,0.3,0.5,0.7,0.4,1.1c0,0.4-0.1,0.9-0.4,1.2C277.5,122.6,276.9,122.7,276.4,122.6L276.4,122.6z
	 M279,119.1c-0.8-0.5-1.7-0.7-2.7-0.6h-3v8.1h1.4v-2.7h1.8l2,2.7h1.8l-2.1-3c1.1-0.3,1.9-1.4,1.8-2.5
	C279.9,120.3,279.6,119.6,279,119.1L279,119.1z M270.2,122.5c0,0.8-0.3,1.5-0.8,2.1c-1.1,1.1-3,1.1-4.1,0l0,0
	c-0.5-0.6-0.8-1.3-0.8-2.1c0-0.8,0.3-1.5,0.8-2.1c1.1-1.1,3-1.1,4.1,0l0,0C269.9,121,270.2,121.7,270.2,122.5L270.2,122.5z
	 M271.6,122.5c0-2.3-1.8-4.2-4.1-4.2c-0.1,0-0.1,0-0.2,0c-1.1,0-2.2,0.4-3.1,1.2c-1.7,1.6-1.7,4.3-0.1,5.9c0.8,0.8,2,1.3,3.1,1.3
	c2.3,0.1,4.2-1.7,4.3-4C271.6,122.6,271.6,122.6,271.6,122.5z M259.5,123.4l3-4.9H261l-2.2,3.7l-2.2-3.7H255l3,4.9v3.2h1.4
	L259.5,123.4L259.5,123.4z M253.2,124.9c-0.6,0.4-1.3,0.5-2,0.5s-1.5-0.2-2-0.8c-0.5-0.6-0.8-1.3-0.8-2.1c0-0.8,0.3-1.6,0.9-2.1
	c0.6-0.5,1.3-0.8,2.1-0.8c0.4,0,0.8,0,1.1,0.1c0.4,0.1,0.7,0.3,1,0.6l0.7-1c-0.8-0.7-1.9-1-2.9-1c-1.1,0-2.2,0.4-3,1.2
	c-0.8,0.8-1.3,1.9-1.2,3c-0.1,2.3,1.7,4.1,4,4.2c0.1,0,0.1,0,0.2,0c1.2,0.1,2.4-0.4,3.3-1.3v-2.8h-1.4L253.2,124.9L253.2,124.9z
	 M242.8,119.8v-1.3h-5.4v8.1h1.4v-3.3h3.6V122h-3.6v-2.2H242.8z M234.3,122.5c0,0.8-0.3,1.5-0.8,2.1c-1.1,1.1-2.9,1.2-4.1,0
	c-0.6-0.6-0.9-1.3-0.9-2.1c0-0.8,0.3-1.5,0.8-2.1c1.1-1.1,3-1.1,4.1,0l0,0C234,121,234.3,121.7,234.3,122.5L234.3,122.5z
	 M235.6,122.5c0-2.3-1.8-4.2-4.1-4.2c-0.1,0-0.1,0-0.2,0c-1.1,0-2.2,0.4-3.1,1.2c-1.7,1.6-1.7,4.3-0.1,5.9c0.8,0.8,1.9,1.3,3.1,1.3
	c1.1,0,2.2-0.4,3.1-1.2C235.2,124.7,235.7,123.6,235.6,122.5L235.6,122.5z M220.4,123.4l3-4.9h-1.5l-2.2,3.7l-2.2-3.7H216l3,4.9v3.2
	h1.4V123.4L220.4,123.4z M215.7,119.7v-1.2h-6.3v1.2h2.5v6.9h1.4v-6.9H215.7z M206.5,126.6h1.4v-8.1h-1.4V126.6z M202.8,119.8
	c0.4,0.1,0.7,0.3,1,0.5l0.7-1c-0.4-0.3-0.9-0.6-1.3-0.7c-0.5-0.2-1-0.2-1.5-0.2c-0.7,0-1.4,0.2-2,0.6c-0.5,0.4-0.8,1.1-0.8,1.7
	s0.2,1.3,0.7,1.7c0.3,0.2,0.5,0.4,0.8,0.5c0.5,0.2,0.9,0.3,1.4,0.4c0.4,0.1,0.9,0.2,1.2,0.5c0.2,0.2,0.4,0.4,0.4,0.7
	c0,0.3-0.1,0.6-0.4,0.8c-0.3,0.2-0.7,0.3-1.1,0.3c-1,0-1.9-0.4-2.6-1.1l-0.9,1.1c0.9,0.9,2.1,1.3,3.4,1.3c0.8,0,1.5-0.2,2.1-0.7
	c0.5-0.4,0.8-1.1,0.8-1.7c0.1-0.6-0.2-1.2-0.6-1.6c-0.5-0.4-1.2-0.7-1.9-0.8c-0.6-0.1-1.1-0.3-1.6-0.6c-0.2-0.2-0.4-0.5-0.4-0.8
	s0.1-0.6,0.4-0.7c0.3-0.2,0.7-0.3,1-0.2C202.1,119.6,202.5,119.7,202.8,119.8L202.8,119.8z M193.8,122.6h-1.7v-2.9h1.8
	c0.5,0,1.1,0.1,1.5,0.3c0.3,0.3,0.5,0.7,0.4,1.1c0,0.4-0.1,0.9-0.4,1.2C194.9,122.6,194.4,122.7,193.8,122.6L193.8,122.6z
	 M196.4,119.1c-0.8-0.5-1.7-0.7-2.7-0.6h-3v8.1h1.4v-2.7h1.8l2,2.7h1.8l-2.1-3c1.1-0.3,1.9-1.4,1.8-2.5
	C197.3,120.3,197,119.6,196.4,119.1L196.4,119.1z M183.1,118.5v8.1h5.9v-1.3h-4.5v-2.2h3.9v-1.2h-3.9v-2.2h4.4v-1.3L183.1,118.5
	L183.1,118.5z M181.9,118.5h-1.5l-2.5,6l-2.5-6h-1.5l3.2,8.1h1.5L181.9,118.5z M171.3,126.6h1.4v-8.1h-1.4V126.6z M167.7,124.5
	l-4.7-6h-1.4v8.1h1.4v-5.9l4.6,5.9h1.4v-8.1h-1.4L167.7,124.5L167.7,124.5z M154,123v-4.5h-1.4v4.6c0,1,0.3,2,1,2.7s1.6,1,2.5,1
	s1.8-0.4,2.5-1c0.7-0.7,1.1-1.7,1-2.7v-4.6h-1.4v4.5c0,0.6-0.2,1.3-0.6,1.8c-0.4,0.4-0.9,0.7-1.5,0.7s-1.1-0.2-1.5-0.7
	C154.2,124.2,154,123.6,154,123z M278.1,111.1h4.2V92.5h-5.6l-4.9,10.2L267,92.5h-5.6v18.7h4.2V99.4l5,10.2h2.4l5.1-10.2V111.1z
	 M243.5,92.5v18.7h13.8v-3.7h-9.6v-3.9h8.4V100h-8.4v-3.8h9.3v-3.7H243.5z M240.2,96v-3.6h-14.8V96h5.3v15.1h4.2V96H240.2z
	 M209.1,92.4v18.7h13.8v-3.7h-9.6v-3.8h8.4V100h-8.4v-3.8h9.3v-3.7L209.1,92.4z M200.3,103.7l6.5-11.3h-4.5l-4.1,7l-4.1-7h-4.5
	l6.5,11.3v7.4h4.2L200.3,103.7z M184.4,106.7c-1.1,0.6-2.4,0.9-3.6,0.8c-1.4,0-2.7-0.5-3.7-1.5c-1.1-1.1-1.6-2.7-1.6-4.2
	c-0.1-1.6,0.5-3.1,1.6-4.2s2.5-1.6,4-1.6c0.8,0,1.6,0.1,2.3,0.4c0.9,0.4,1.6,0.9,2.3,1.5l2.1-3.2c-1.9-1.7-4.4-2.7-7-2.7
	s-5,1-6.8,2.8c-3.8,3.8-3.8,10,0,13.8c1.8,1.8,4.3,2.8,6.9,2.7c2.9,0.1,5.7-1,7.7-3.1v-6.6h-4.2V106.7z M154.4,92.4v18.7h13.8v-3.7
	h-9.6v-3.8h8.4V100h-8.4v-3.8h9.3v-3.7L154.4,92.4z M303.2,88.2h4.2V69.5h-4.2V88.2z M294.7,80.8l6.5-11.3h-4.5l-4,7l-4.1-7H284
	l6.5,11.3v7.4h4.2V80.8z M277.9,81.6l-9.2-12h-3.9v18.7h4.2V76.5l8.9,11.7h4.2V69.5h-4.2V81.6z M247.2,69.5v18.7H261v-3.7h-9.6v-3.9
	h8.4V77h-8.4v-3.9h9.3v-3.7L247.2,69.5L247.2,69.5z M238.4,77.3H231v-7.8h-4.2v18.7h4.2v-7.3h7.4v7.3h4.2V69.5h-4.2V77.3z M212,83
	c-1.1-1.1-1.7-2.6-1.6-4.2c-0.1-1.6,0.6-3.1,1.7-4.1c1.1-1,2.5-1.6,4-1.5c1.9,0,3.8,0.9,4.9,2.4l2.6-3c-1.9-2.3-4.8-3.6-7.7-3.5
	c-2.6-0.1-5.1,0.9-7,2.8c-1.9,1.8-3,4.4-2.9,7c-0.1,2.6,1,5.1,2.8,6.9c1.9,1.8,4.5,2.8,7.2,2.7c2.9,0,5.7-1.3,7.5-3.6l-2.7-2.8
	c-1.2,1.6-3,2.5-5,2.4C214.4,84.6,213,84,212,83z M201.7,64.6l-4.2-1.7l-3.4,4.7h3.8L201.7,64.6z M189.7,69.5v18.7h13.8v-3.7h-9.6
	v-3.9h8.4V77h-8.4v-3.9h9.3v-3.7L189.7,69.5L189.7,69.5z M186.1,88.2v-3.6h-9.9l9.8-12.2v-2.9h-15.2v3.6h9.5l-9.8,12.2v2.9H186.1z
	 M160.4,72.8c1.8,0,3.6,0.7,5,1.9l2.1-3c-1-0.8-2.1-1.4-3.2-1.8c-1.2-0.4-2.5-0.6-3.8-0.6c-1.7-0.1-3.4,0.4-4.8,1.4
	c-2.3,2-2.6,5.5-0.5,7.8c0.1,0.1,0.1,0.1,0.2,0.2c1.4,1,3.1,1.7,4.8,2c1,0.2,1.9,0.5,2.8,1c0.5,0.3,0.7,0.8,0.7,1.3s-0.2,1-0.7,1.3
	c-0.5,0.4-1.2,0.5-1.8,0.5c-1.7,0-3.6-0.9-5.6-2.7l-2.5,3c2.1,2.1,5,3.3,8,3.3c1.8,0.1,3.6-0.5,5-1.6c1.2-1,1.9-2.5,1.9-4.1
	c0.1-1.4-0.4-2.8-1.5-3.8c-1.2-1-2.6-1.7-4.2-2c-1.2-0.2-2.3-0.6-3.4-1.1c-0.4-0.3-0.7-0.8-0.7-1.3s0.2-1,0.6-1.3
	C159.3,72.8,159.8,72.7,160.4,72.8z M101.5,68.9c0.1-0.9,0.1-1.6-1.2-1.7c-1,0-2.2-0.3-2.3,1.4c-0.1,2.9-0.7,5.8-1.8,8.5
	c-4.6,11-12.9,17.2-24.8,18c-1.7,0.1-1.3,1.5-1.3,2.4c0,1.2,0.7,1.2,1.5,1.1c1.4-0.1,2.8-0.2,4.2-0.5c13.9-2.6,24.4-14.2,25.5-28.3
	C101.5,69.5,101.5,69.2,101.5,68.9z M70.1,103.8c0-1.3,0.2-1.6,1.6-1.7c10.2-0.4,19.7-5.3,26-13.4c4.5-5.7,7.1-12.7,7.3-20
	c0.1-1.7,1.4-1.4,2.4-1.4c1.4,0,1.2,0.8,1.1,1.7c-0.8,17.1-12.8,31.7-29.5,35.7c-2.4,0.5-4.8,0.9-7.3,1
	C70.1,105.8,70.1,105.7,70.1,103.8z M107.9,119.5V116c0-0.1-0.1-0.1-0.2-0.2H71.1c-0.1,0-0.1,0.1-0.2,0.2v3.5c0,0.1,0.1,0.1,0.2,0.2
	h36.7C107.9,119.7,107.9,119.7,107.9,119.5C107.9,119.6,107.9,119.5,107.9,119.5z"/>
</svg>
