<svg xmlns="http://www.w3.org/2000/svg" xmlns:xlink="http://www.w3.org/1999/xlink" viewBox="0 0 1190.55 176.89"><defs><style>.cls-1{fill:none;}.cls-2,.cls-3{fill:#262626;}.cls-2{fill-rule:evenodd;}.cls-4{clip-path:url(#clip-path);}.cls-5{clip-path:url(#clip-path-2);}</style><clipPath id="clip-path"><rect class="cls-1" x="36.93" y="25.76" width="284.72" height="139.25"/></clipPath><clipPath id="clip-path-2"><rect class="cls-1" x="37.27" y="26.1" width="284.21" height="138.76"/></clipPath></defs><g id="logok"><path class="cls-2" d="M573.29,64H537.48V76.17H548v42.06h14.87V76.17h10.47Zm-39.38,54.19H519V64h14.87Zm-17.37,0H500L480.33,97.06V85l19.05-21h17L494.48,91.21Z"/><path class="cls-2" d="M434.38,83.8a53.9,53.9,0,0,0-7.19,11.31l49.58,23.06L434.38,83.8Z"/><path class="cls-2" d="M476.77,118.17,453.65,69a53.39,53.39,0,0,0-11.36,7l34.48,42.16Z"/><path class="cls-2" d="M476.77,118.17,476.82,64h-.44a53.75,53.75,0,0,0-12.81,1.56Z"/><path class="cls-2" d="M423.63,104.91a55.19,55.19,0,0,0-1.73,13.26h54.87Z"/><path class="cls-3" d="M574,130.37a2.86,2.86,0,0,1-1.53.5,1.63,1.63,0,0,1-1.64-1.66h3.55c0-1.59-.54-2.8-2.19-2.8a2.31,2.31,0,0,0-2.33,2.51,2.38,2.38,0,0,0,2.57,2.69,3.75,3.75,0,0,0,1.57-.32v-.92Zm-3.17-1.84a1.38,1.38,0,0,1,1.34-1.38,1.25,1.25,0,0,1,1.24,1.38Zm-3,3h.92v-5h-.92Zm1-7.11h-1v1h1Zm-58.49.22h1v1h-1Zm2.18,0h1v1h-1Zm2.92,6.89h.91v-2.26c0-1.24.54-2,1.36-2a1.29,1.29,0,0,1,.5.09v-.82a2.47,2.47,0,0,0-.6-.07,1.52,1.52,0,0,0-1.3.89h0v-.77h-.85v5Zm-1.3-5.08h-.92v2.3c0,1.2-.47,2-1.51,2-.8-.05-1-.61-1-1.77v-2.57h-.92v3c0,1.33.58,2.13,1.86,2.13a1.78,1.78,0,0,0,1.63-.9h0v.79h.89v-5Zm-49.37,5.08h.91v-2.26c0-1.24.54-2,1.36-2a1.38,1.38,0,0,1,.51.09v-.82a2.63,2.63,0,0,0-.61-.07,1.5,1.5,0,0,0-1.29.89h0v-.77h-.86Zm101.76-5h-.85v.74h0a1.62,1.62,0,0,0-1.63-.86,2.38,2.38,0,0,0-2.22,2.64,2.18,2.18,0,0,0,2.12,2.44,2.08,2.08,0,0,0,1.67-.77h0v.49a1.51,1.51,0,0,1-1.54,1.71,3.84,3.84,0,0,1-1.8-.45l-.09.85a5.06,5.06,0,0,0,1.78.34c1.78,0,2.56-.87,2.56-2.38v-4.75Zm-2.37,4.22c-.85,0-1.38-.81-1.38-1.75s.46-1.85,1.38-1.85,1.46.89,1.46,1.92A1.55,1.55,0,0,1,564.22,130.75ZM555.91,129a2.53,2.53,0,1,0,5.06,0,2.53,2.53,0,1,0-5.06,0Zm1,0a1.58,1.58,0,1,1,3.11,0,1.58,1.58,0,1,1-3.11,0Zm-3.24,2.48h.92v-7.3h-.92Zm-6.4-2.48a2.53,2.53,0,1,0,5.06,0,2.53,2.53,0,1,0-5.06,0Zm1,0a1.58,1.58,0,1,1,3.11,0,1.58,1.58,0,1,1-3.11,0Zm-6.6,2.48h.92v-2.3c0-1.2.47-2,1.51-2,.8,0,1.05.61,1.05,1.77v2.57H546v-3c0-1.33-.58-2.13-1.86-2.13a1.79,1.79,0,0,0-1.63.9h0v-.78h-.89v5Zm-6,0h.92v-2.3c0-1.2.47-2,1.51-2,.8,0,1,.61,1,1.77v2.57h.92v-3c0-1.33-.58-2.13-1.86-2.13a1.81,1.81,0,0,0-1.6.83h0v-3h-.92v7.3Zm-1.09-4.89a3.62,3.62,0,0,0-1.11-.19A2.45,2.45,0,0,0,531,129a2.51,2.51,0,0,0,2.53,2.6,2.88,2.88,0,0,0,1.15-.2l-.07-.82a1.94,1.94,0,0,1-1,.28,1.68,1.68,0,0,1-1.66-1.86,1.71,1.71,0,0,1,1.6-1.86,2.75,2.75,0,0,1,1,.21l.08-.76Zm-4.84,3.77a2.89,2.89,0,0,1-1.53.5,1.63,1.63,0,0,1-1.64-1.66h3.55c0-1.59-.54-2.8-2.19-2.8a2.31,2.31,0,0,0-2.33,2.51,2.38,2.38,0,0,0,2.57,2.69,3.75,3.75,0,0,0,1.57-.32v-.92Zm-3.17-1.84a1.38,1.38,0,0,1,1.34-1.38,1.25,1.25,0,0,1,1.24,1.38Zm-3.89,3h1v-5.94h2.12v-.86h-5.21v.86h2.12Zm-16.21,0h.91v-4.22h1.32v-.74h-1.32V126c0-.67.1-1.18.89-1.18a1.42,1.42,0,0,1,.44.06l0-.74a3.72,3.72,0,0,0-.62-.06c-1.35,0-1.66.79-1.66,2v.46h-1.17v.74h1.17v4.22Zm-4.21-5H501v-1.45l-.92.3v1.15h-1.12v.74H500v2.9a1.33,1.33,0,0,0,1.53,1.44,2.79,2.79,0,0,0,.78-.14v-.77a1.18,1.18,0,0,1-.62.17A.79.79,0,0,1,501,130v-2.71h1.31v-.74Zm-4.2,0h-.91v2.29c0,1.21-.47,2.05-1.51,2.05-.8-.05-1-.61-1-1.77v-2.57h-.92v2.95c0,1.33.58,2.13,1.86,2.13a1.78,1.78,0,0,0,1.63-.91h0v.79h.88v-5Zm-5.54,0h-1.31v-1.45l-.92.3v1.15h-1.12v.74h1.12v2.9a1.33,1.33,0,0,0,1.53,1.44,2.79,2.79,0,0,0,.78-.14v-.77a1.21,1.21,0,0,1-.62.17.79.79,0,0,1-.77-.89v-2.71h1.31v-.74Zm-5.23,5h.92v-5h-.92Zm1-7.11h-1v1h1ZM486,126.53h-1.31v-1.45l-.92.3v1.15h-1.12v.74h1.12v2.9a1.33,1.33,0,0,0,1.53,1.44,2.72,2.72,0,0,0,.78-.14v-.77a1.18,1.18,0,0,1-.62.17.79.79,0,0,1-.77-.89v-2.71H486v-.74Zm-6.84,4.81a2.88,2.88,0,0,0,1.36.27,1.56,1.56,0,0,0,1.73-1.55c0-1.59-2.15-1.29-2.15-2.31,0-.41.41-.6.88-.6a2.79,2.79,0,0,1,1,.25l.08-.8a4.06,4.06,0,0,0-1.14-.19c-1,0-1.75.5-1.75,1.53,0,1.39,2.15,1.31,2.15,2.22,0,.54-.52.71-.93.71a2.46,2.46,0,0,1-1.14-.35l-.05.82Zm-5.54.15h.92v-2.3c0-1.2.47-2,1.51-2,.8,0,1.05.61,1.05,1.77v2.57h.92v-3c0-1.33-.58-2.13-1.86-2.13a1.78,1.78,0,0,0-1.63.9h0v-.78h-.89v5Zm-2.62,0h1v-6.8h-1ZM463,130.37a2.86,2.86,0,0,1-1.53.5,1.62,1.62,0,0,1-1.63-1.66h3.54c0-1.59-.53-2.8-2.19-2.8a2.31,2.31,0,0,0-2.33,2.51,2.38,2.38,0,0,0,2.57,2.69,3.75,3.75,0,0,0,1.57-.32v-.92Zm-3.16-1.84a1.36,1.36,0,0,1,1.33-1.38,1.25,1.25,0,0,1,1.24,1.38Zm-6.6,3h.92v-2.3c0-1.2.46-2,1.51-2,.8,0,1.05.61,1.05,1.77v2.57h.91v-3c0-1.33-.57-2.13-1.86-2.13a1.8,1.8,0,0,0-1.59.83h0v-3h-.92v7.3Zm-1.56-5h-.91v2.29c0,1.21-.47,2.05-1.51,2.05-.8-.05-1.05-.61-1.05-1.77v-2.57h-.92v2.95c0,1.33.57,2.13,1.86,2.13a1.79,1.79,0,0,0,1.63-.91h0v.79h.88v-5Zm-8.18,5h.92v-2.26c0-1.24.53-2,1.35-2a1.34,1.34,0,0,1,.51.09v-.82a2.56,2.56,0,0,0-.61-.07,1.5,1.5,0,0,0-1.29.89h0v-.77h-.86v5Zm-4.21-.15a2.92,2.92,0,0,0,1.37.27,1.56,1.56,0,0,0,1.73-1.55c0-1.59-2.15-1.29-2.15-2.31,0-.41.41-.6.87-.6a2.84,2.84,0,0,1,1,.25l.08-.8a4.12,4.12,0,0,0-1.14-.19c-1,0-1.76.5-1.76,1.53,0,1.39,2.16,1.31,2.16,2.22,0,.54-.52.71-.94.71a2.5,2.5,0,0,1-1.14-.35l-.05.82Zm-2.17.15H438v-7.3h-.92Zm-3.91,0h.92v-2.26c0-1.24.53-2,1.35-2a1.34,1.34,0,0,1,.51.09v-.82a2.53,2.53,0,0,0-.6-.07,1.51,1.51,0,0,0-1.3.89h0v-.77h-.86ZM428,127.66a2.3,2.3,0,0,1,1.44-.51c.92,0,1.23.44,1.23,1.29h-1c-.94,0-2.3.38-2.3,1.63,0,1.08.75,1.55,1.82,1.55a1.86,1.86,0,0,0,1.54-.76h0v.64h.85a7.55,7.55,0,0,1,0-1v-2.06c0-1.35-.57-2.05-2-2.05a3.1,3.1,0,0,0-1.64.47l.05.78Zm2.67,1.91a1.25,1.25,0,0,1-1.38,1.3.88.88,0,0,1-.93-.81c0-.87,1.23-.95,1.72-.95l.59,0Zm-9.31,1.92h1v-3.33l3,3.33h1.42l-3.45-3.58,3.2-3.22h-1.3l-2.9,3v-3h-1Z"/><path class="cls-3" d="M724.73,131.24c-1.42-.21-2.85-.36-4.26-.64a16.85,16.85,0,0,1-9.38-4.78,13.59,13.59,0,0,1-3.64-9.59c-.07-8.07,0-16.14,0-24.21,0-.9.29-1.21,1.19-1.2,2.82,0,5.64.05,8.45,0,1,0,1.29.34,1.29,1.31,0,7.59-.05,15.18,0,22.77a12.17,12.17,0,0,0,.67,4,7.62,7.62,0,0,0,8.13,4.65c4.06-.52,6.54-2.84,7-6.62a21.19,21.19,0,0,0,.2-2.87q0-11.17,0-22.36c0-.69.22-.9.87-.89,3,0,6,0,9.07,0,.53,0,.9,0,.89.77,0,8.31,0,16.62-.05,24.93a13.51,13.51,0,0,1-9.89,13.22,66.58,66.58,0,0,1-6.64,1.3c-.27,0-.53.13-.79.19Z"/><path class="cls-3" d="M667,90.63l1,0H700.9c1.42,0,1.42,0,1.42,1.41v5.15c0,1.38,0,1.39-1.44,1.39H692c-2.1,0-1.95-.29-1.95,1.91q0,14.21,0,28.43c0,1.61,0,1.61-1.65,1.61-2.57,0-5.15,0-7.72,0-1.91,0-1.91.41-1.91-1.85V100.51c0-.31,0-.62,0-.92.09-.82-.28-1.07-1.07-1.06-3.16,0-6.32,0-9.48,0-.41,0-.82-.05-1.23-.07Z"/><path class="cls-3" d="M714.83,51.06c.37,2.18-.79,3.74-2.32,5-2.54,2-5.24,3.87-7.81,5.88a30.06,30.06,0,0,0-3.47,3.21,4.37,4.37,0,0,0-1.18,3.6,3,3,0,0,0,3.15,2.9c2.28,0,4-1.15,5.74-2.48a7.75,7.75,0,0,1,1.35-.68,5.93,5.93,0,0,1-.08,1.53,30.76,30.76,0,0,1-10.66,15.07,15.44,15.44,0,0,1-7.78,3.27,17.69,17.69,0,0,1-2.06,0l-.35-.58.93-.4c4.56-1.92,6.41-5.74,7.19-10.3.12-.65.17-1.32.24-2l-.26-.08-.57.91a8.15,8.15,0,0,1-4,3.3,3,3,0,0,1-3.46-.48,3.22,3.22,0,0,1-.87-3.68,25.05,25.05,0,0,1,1.56-2.88c.82-1.46,1.68-2.9,2.46-4.38a6,6,0,0,0,.35-1.42l-.35-.24c-.11.2-.21.42-.32.62a19.1,19.1,0,0,1-5.36,5.35c-1.38,1.06-2.77,2.14-4.08,3.3a10.14,10.14,0,0,0-3.62,8.29,18.06,18.06,0,0,1-.21,2.18l-.45,0a7.73,7.73,0,0,1-.52-1.14c-2.07-7.37-.41-13.65,5.51-18.64a37.17,37.17,0,0,1,14.73-7.31c2.85-.75,5.69-1.55,8.5-2.42a15.47,15.47,0,0,0,5.87-3.34,10.35,10.35,0,0,0,1.34-2Z"/><path class="cls-3" d="M803.47,131.24a12.14,12.14,0,0,1-6.11-3,12.84,12.84,0,0,1-3.54-7.4,21.93,21.93,0,0,1,.74-10.78c3.53-10.39,16.47-9.88,20.92-4.6a13.28,13.28,0,0,1,3.07,7.18c.14,1.29.1,2.6.19,3.9.07.91-.29,1.17-1.19,1.17-5.7,0-11.4,0-17.1,0-1.37,0-1.46,0-1.27,1.39a18.54,18.54,0,0,0,.94,4.2,6.86,6.86,0,0,0,10.14,2.93,5.39,5.39,0,0,0,2.17-3.62c.14-.74.49-1,1.19-.93,1.53,0,3.07,0,4.71,0a9.91,9.91,0,0,1-4,7.3,14.08,14.08,0,0,1-5.7,2.24Zm2.6-17.37h4.53c2.5,0,2.5,0,2.09-2.45a6.45,6.45,0,0,0-8-5.37c-3.09.65-5.21,3.59-5.51,7.15-.06.7.41.67.87.67C802.08,113.86,804.08,113.87,806.07,113.87Z"/><path class="cls-3" d="M865.72,131.24c-.72-.2-1.47-.35-2.17-.6-2.72-1-3.17-3.29-3.19-5.77,0-5.63,0-11.25,0-16.88,0-1.4,0-1.4-1.41-1.4-.82,0-1.65,0-2.47,0-.58,0-.81-.24-.81-.79,0-.76,0-1.51,0-2.27s.37-.94,1-.9c.89.05,1.78,0,2.67.11s1-.2,1-1c0-1.3,0-2.61,0-3.91a1.14,1.14,0,0,1,1-1.31c1.45-.4,2.87-.88,4.44-1.37.06.55.13.94.13,1.33,0,1.72,0,3.43,0,5.15,0,.7.27,1,1,1,1.74,0,3.49,0,5.24,0v3.92c-1.54,0-3.08.06-4.62.07s-1.59,0-1.59,1.55v15.43c0,2.6,1.12,3.64,3.77,3.48.73,0,1.46-.14,2.32-.22,0,1.05-.06,2,0,2.88s-.15,1.47-1.13,1.54Z"/><path class="cls-3" d="M756.05,110.55V92.1c0-1.5,0-1.5,1.55-1.5,4.23,0,8.45,0,12.68,0a21,21,0,0,1,8.51,1.75,15.58,15.58,0,0,1,8.56,9.78,25.44,25.44,0,0,1-.22,17.46c-2.68,7.13-8.14,10.51-15.52,10.85-4.84.22-9.69,0-14.53.08-1,0-1-.48-1-1.22C756.06,123.05,756.05,116.8,756.05,110.55Zm5.82,0c0,4.63,0,9.27,0,13.9,0,.6,0,1.1.83,1.08,3,0,6.12.11,9.16-.13a10.1,10.1,0,0,0,8.61-5.57,19.58,19.58,0,0,0,.27-18,10,10,0,0,0-8.43-6c-3.1-.31-6.24-.16-9.36-.27-.87,0-1.1.28-1.09,1.12C761.89,101.32,761.87,105.92,761.87,110.52Z"/><path class="cls-3" d="M846.59,118.57c0,3.57,0,7.14,0,10.71,0,.94-.26,1.3-1.22,1.24a26,26,0,0,0-3.3,0c-.9.06-1-.41-1-1.13,0-4.84,0-9.68,0-14.52,0-2.41,0-4.81,0-7.21,0-.8-.23-1.12-1.06-1.08-1.16.06-2.33,0-3.5,0-.68,0-.92-.27-.91-.91.05-3.73-.49-3,2.89-3.06,2.56,0,2.55,0,2.57-2.55a26.89,26.89,0,0,1,.16-4.31c.55-3.11,2.79-5.12,6.09-5.77a12.46,12.46,0,0,1,5.6.22,1.12,1.12,0,0,1,.72.78c.09,1.06,0,2.13,0,3.19,0,.61-.35.72-.88.7-1.06,0-2.13-.11-3.19,0-2.08.14-3,1.16-3.06,3.24,0,1.17,0,2.34,0,3.5-.05.85.31,1.07,1.08,1,1.38,0,2.75,0,4.12,0,.85,0,1.23.21,1.22,1.16,0,2.82,0,2.82-2.81,2.82-.86,0-1.72,0-2.58,0s-1,.3-1,1.08C846.61,111.29,846.59,114.93,846.59,118.57Z"/><path class="cls-3" d="M824.73,110.42q0-9.17,0-18.33c0-1.49,0-1.49,1.46-1.49h2.68c1.39,0,1.4,0,1.4,1.45v37c0,1.48,0,1.48-1.47,1.48-1,0-1.92-.07-2.88,0s-1.22-.36-1.21-1.25c0-2.72,0-5.43,0-8.14Z"/><path class="cls-3" d="M1046.53,92.84c.22-.85-.19-1.14-.78-1.42-.94-.45-1.83-1-2.75-1.54a.47.47,0,0,0-.32-.08,1.92,1.92,0,0,0-1,1.76c0,.18.08.37.16.77-.53-.3-.94-.5-1.31-.75-.09-.06-.11-.31-.07-.45.32-1.15.38-2.39,1.27-3.43a8.57,8.57,0,0,0-.76-.46c-.66-.31-1.31-.64-2-.88a17.58,17.58,0,0,0-1.93-.49c-.35-.07-.72-.09-1.08-.15a1.17,1.17,0,0,1-1-1,15.85,15.85,0,0,0-.36-1.69c-.08-.23-.3-.58-.48-.6-.38,0-.86-.26-1.15.27-.4.75-.86,1.46-1.25,2.21s-.57.95-1.54.57c.18-.9.83-1.68.85-2.63l-.18-.07c-.25.29-.5.57-.74.87-.4.49-.76,1-1.2,1.48s-.9,0-1.45,0c.48-.72.91-1.35,1.32-2a1.36,1.36,0,0,0,.1-.42,1.22,1.22,0,0,0-.49.11c-.64.5-1.26,1-1.88,1.52s-.94.42-1.61,0l1.94-2.33a1.34,1.34,0,0,0-.49.1c-.76.44-1.52.89-2.25,1.39a.88.88,0,0,1-1.13-.05c-.17-.12-.35-.22-.6-.38l2.13-1.46,0-.18c-.16,0-.35-.07-.48,0-.54.25-1.06.54-1.59.81-.85.44-.94.43-1.66-.32L1022,81l1.16-.71,0-.17a1.42,1.42,0,0,0-.46,0c-.67.3-1.35.58-2,.94-.42.24-.69.23-1-.15a3.74,3.74,0,0,0-.59-.44l2.95-1.22,0-.15c-.18-.05-.37-.16-.53-.12-.73.16-1.46.34-2.17.56-.89.27-1.11.19-1.56-.7l3.33-.6V78a2.22,2.22,0,0,0-.61-.1c-1,.09-2.06.23-3.09.3a.75.75,0,0,1-.52-.3,9.42,9.42,0,0,1-.59-.92c1,0,1.92.13,2.84.14.65,0,1.31-.08,2-.09a38.66,38.66,0,0,0,8.95-1.21,3.8,3.8,0,0,0,.93-.6,10.76,10.76,0,0,1-3.71-4.17c-1.17-2.22-2.24-4.5-3.39-6.72-.32-.61-.84-1.1-1.18-1.69a7.79,7.79,0,0,1-.73-1.9,9.62,9.62,0,0,0,1.07.73c.32.17.68.51,1.12.11a8.91,8.91,0,0,1-3-4.23c.7.12,1.16.8,1.85.77l.1-.18c-.46-.47-.93-.93-1.37-1.41a25.37,25.37,0,0,1-2.25-2.51,6.21,6.21,0,0,1-1.06-3.28l3.53,2.49a.82.82,0,0,0,.28.19,1.76,1.76,0,0,0,.46,0c0-.13,0-.29-.13-.38a15.35,15.35,0,0,1-2.9-5.72,5.17,5.17,0,0,1,0-2.44l5,5.69.19-.06c0-.13.1-.3,0-.39a19,19,0,0,1-2-5.31,5.25,5.25,0,0,1-.1-3.39l.19-.37,3.6,5.06.2-.06c0-.17.1-.35,0-.49a13.31,13.31,0,0,1-.84-6.08,7.36,7.36,0,0,1,.8-2.32,22.15,22.15,0,0,0,3.31,7.47h.18a2.6,2.6,0,0,0,0-.61,11.6,11.6,0,0,1,.32-6.21,6.83,6.83,0,0,1,.7-1.23,11.55,11.55,0,0,0,.68,4.19c.95,2.79,2,5.55,3,8.29.69,1.77,1.52,3.48,2.29,5.22a3.69,3.69,0,0,0,.41.69,3.66,3.66,0,0,1,.38,2.49c0,1,0,2,0,3,.1,1.18.27,2.36.47,3.53a3.37,3.37,0,0,0,.81,1.92c.37-.67.69-1.3,1.06-1.91a23.13,23.13,0,0,1,3.93-5,17.18,17.18,0,0,1,4.83-3.34,9.06,9.06,0,0,0,.91-.36,10.29,10.29,0,0,0,1.08-.79c1.36-1,2.66-2.17,4.06-3.14a17.81,17.81,0,0,1,2.86-1.44,4.06,4.06,0,0,1,1.17-.1l0,.18-1.3,1.08,0,.16a2,2,0,0,0,.5,0c1.2-.42,2.38-.87,3.58-1.27a8,8,0,0,1,2.92-.72l-4,3,.07.22c.14,0,.3.1.4.05,1.09-.44,2.17-.88,3.23-1.37a12.14,12.14,0,0,1,5-1.19l-5.91,3.39,0,.19a1.17,1.17,0,0,0,.41,0c1.56-.53,3.1-1.13,4.67-1.6a18.65,18.65,0,0,1,3.15-.61,5.6,5.6,0,0,1,1.74.28,41.65,41.65,0,0,0-7.75,3v.17a1.5,1.5,0,0,0,.53.1c2.05-.47,4.09-1,6.15-1.41a17.59,17.59,0,0,1,2.72-.18c.13,0,.27.1.5.19a26.17,26.17,0,0,0-7.33,2.46c-1.69.83-3.4,1.63-5,2.59a21.48,21.48,0,0,0-3.69,2.73c-1.87,1.74-3.58,3.66-5.4,5.46a16.94,16.94,0,0,1-4,3.29c-1.44.74-3,1.29-4.49,1.91-.53.22-1.08.39-1.61.61-.11,0-.17.17-.26.26.11.09.21.24.33.25,1,.1,2,.18,3.06.25,1.23.09,2.47.17,3.7.23.71,0,1.42,0,2.12,0,1.21.11,2.41.29,3.6.47a1.16,1.16,0,0,1,1,.91.81.81,0,0,0,.72.62,7.34,7.34,0,0,1,1.67.58c.86.44,1,1,.51,1.93-.94-1.16-2.15-.73-3.24-.44-1.76.46-3.44,1.23-5.2,1.59a23.43,23.43,0,0,0-3.29,1.22c-2,.69-1.86,2-.82,3.42.77,1,1.7,1.91,2.57,2.85a.52.52,0,0,0,.17.16c.76.37.84,1,.9,1.79a3.11,3.11,0,0,0,1.37,2.06c.08.07.26,0,.4,0,1.56-.08,3.13-.22,4.7-.21,1.78,0,1.66.36,1.07,1.89-.62-1.57-1.92-1-3-1a5.81,5.81,0,0,0-1.36.2,2.93,2.93,0,0,0-.63.37c.83.28,1.51.49,2.17.76a18.66,18.66,0,0,1,2,1c.58.33.61.56.27,1.11,0,.08-.13.15-.19.23a1.92,1.92,0,0,1-.46.5c0-1.27-.86-1.4-1.7-1.6s-1.74-.46-2.61-.7a1.57,1.57,0,0,0-1.94,1.76,1.85,1.85,0,0,1,0,.23c-1.16-.26-1.35-.71-.76-1.74.31-.55.71-1.08.37-1.77s-.78-1.73-1.76-2.1a16.6,16.6,0,0,1-4-2.4,18.23,18.23,0,0,0-2-1.06c-.4-.22-.77-.49-1.22-.78l-.46,1.16a2.07,2.07,0,0,0,1.21.93l3.19,1.16a1.77,1.77,0,0,1,.41.21c.72.48.77.69.41,1.47-.22-.29-.41-.77-.72-.89a2,2,0,0,0-1.76,0c.21.18.36.31.52.43a10.74,10.74,0,0,1,1.17.83C1047.7,91.47,1047.59,92,1046.53,92.84Z"/><path class="cls-3" d="M977.79,113.28l-3.34-9.09h-.24a17.43,17.43,0,0,0-.05,2.17c0,.76,0,1.52,0,2.28v4.59h-5.07V98.33H972c1.19,0,2.38,0,3.57,0a.68.68,0,0,1,.76.53q1.69,4.47,3.43,8.93s.08.08.25.22l3.74-9.64h6.94v14.87h-5.12v-9.15l-.21,0c-.16.39-.34.78-.49,1.18-.94,2.56-1.88,5.13-2.83,7.69a.59.59,0,0,1-.42.34C980.31,113.29,979,113.28,977.79,113.28Z"/><path class="cls-3" d="M992.85,98.33h.66c4,0,8.11,0,12.17,0a7,7,0,0,1,2,.26c1.55.47,2.08,1.22,2.24,2.91a3,3,0,0,1-2.17,3.52s0,.06-.12.17a8.87,8.87,0,0,0,1,.37,2.69,2.69,0,0,1,2,2.8,5.74,5.74,0,0,1-.31,2.38,3.69,3.69,0,0,1-2.79,2.15,15.63,15.63,0,0,1-3.13.35c-3.67,0-7.34,0-11,0h-.61Zm8.61,9c-.91,0-1.83,0-2.75,0-.56,0-.72.19-.67.71a7.94,7.94,0,0,1,0,1.29c0,.49.17.64.65.63,1.73,0,3.47,0,5.21,0a2.48,2.48,0,0,0,.92-.22,1.45,1.45,0,0,0,.77-1.43,1.47,1.47,0,0,0-1.31-1Zm-.37-5.62h-1.88c-1.3,0-1.16-.16-1.16,1.14s-.16,1.24,1.25,1.24,2.84,0,4.27,0a1.45,1.45,0,0,0,1.42-1,1,1,0,0,0-.58-1.16,2.45,2.45,0,0,0-.92-.23C1002.69,101.68,1001.89,101.7,1001.09,101.7Z"/><path class="cls-3" d="M1052.07,98.33h.68c3.61,0,7.22,0,10.83,0a7,7,0,0,1,3,.58,3.83,3.83,0,0,1,2.14,2.8A5,5,0,0,1,1068,106a3.21,3.21,0,0,1-1.94,1.21c-.61.14-.44.35-.23.69q1.64,2.56,3.24,5.13a1.1,1.1,0,0,1,.09.29c-1.87,0-3.7,0-5.53,0a.59.59,0,0,1-.44-.25c-.88-1.52-1.74-3.06-2.59-4.59a.83.83,0,0,0-.86-.53c-.63,0-1.25,0-1.88,0-.43,0-.58.14-.57.57,0,1.48,0,3,0,4.45,0,.09,0,.19,0,.32h-5.2v-2c0-.86,0-1.72,0-2.57,0-.56-.14-.76-.72-.75-2.16,0-4.33,0-6.53,0,0-.11,0-.22,0-.28.59-.92,1.21-1.82,1.77-2.75a.62.62,0,0,1,.64-.34c1.41,0,2.81,0,4.21,0,.46,0,.62-.15.62-.61,0-1.63,0-3.27,0-4.91Zm7.82,3.36c-.66,0-1.32,0-2,0s-.65.18-.62.65,0,1.09,0,1.64.12.6.56.58c1.49-.06,3-.06,4.47-.14a1.25,1.25,0,0,0,1.06-2,2.4,2.4,0,0,0-1.44-.67A12.73,12.73,0,0,0,1059.89,101.69Z"/><path class="cls-3" d="M1029.57,113.28c-1.92,0-3.75,0-5.58,0a.64.64,0,0,1-.41-.3c-.63-1.06-1.23-2.12-1.84-3.18-.08-.15-.17-.3-.26-.44-.3-.48-.52-1.25-.93-1.37a8,8,0,0,0-2.49,0c-.13,0-.32.35-.33.55,0,1.36,0,2.73,0,4.09v.67h-5.19V98.33h.69c3.63,0,7.26,0,10.88,0a5.11,5.11,0,0,1,3.92,1.31,4.85,4.85,0,0,1,1.2,4.1,3.82,3.82,0,0,1-1.72,3,4.27,4.27,0,0,1-1.1.46c-.4.11-.44.26-.22.61,1.07,1.67,2.12,3.35,3.17,5A4.81,4.81,0,0,1,1029.57,113.28Zm-9.57-8.73v0a23.31,23.31,0,0,0,2.77-.21,2,2,0,0,0,1.15-.83,1.26,1.26,0,0,0-.11-1.09,1.66,1.66,0,0,0-1.51-.77c-1.37,0-2.73,0-4.1,0-.35,0-.5.13-.49.48,0,.62,0,1.25,0,1.87,0,.38.16.52.53.51Z"/><path class="cls-3" d="M1078.09,113.28V98.37l.58,0c2.93,0,5.86-.06,8.78,0a8.73,8.73,0,0,1,5.8,1.93,6.32,6.32,0,0,1,1.75,2.79,9,9,0,0,1-.33,6.63,5.89,5.89,0,0,1-4.48,3.32,14.42,14.42,0,0,1-2.86.25c-2.83,0-5.66,0-8.49,0Zm5.07-7.37c0,1.11,0,2.23,0,3.33,0,.56.18.72.71.69.84,0,1.68,0,2.51,0a4.15,4.15,0,0,0,3-1.14,4.33,4.33,0,0,0,1-2.29,3.78,3.78,0,0,0-3-4.41c-1.16-.16-2.35-.08-3.53-.14-.51,0-.63.19-.62.65C1083.18,103.69,1083.17,104.8,1083.16,105.91Z"/><path class="cls-3" d="M1096.92,113.28V98.36l.58,0c2.94,0,5.89,0,8.83,0a9.39,9.39,0,0,1,4.87,1.28,6.49,6.49,0,0,1,2.85,4.23,9,9,0,0,1-.31,5.27A5.92,5.92,0,0,1,1109,113a17.23,17.23,0,0,1-3.21.25c-2.73,0-5.46,0-8.19,0Zm5.1-7.35c0,1.15,0,2.3,0,3.45,0,.35.08.56.48.55,1.22-.05,2.45,0,3.66-.15a2.78,2.78,0,0,0,2-1,4.65,4.65,0,0,0,.9-3.74,3.74,3.74,0,0,0-3-2.94c-1.22,0-2.44-.07-3.65-.11-.4,0-.43.23-.43.54Z"/><path class="cls-3" d="M1145.89,113.26H1130.1V98.37h15.55v3.32H1145c-3,0-6,0-9.07,0-.53,0-.75.14-.7.69a7.22,7.22,0,0,1,0,1.23c0,.46.15.61.61.6,2.2,0,4.4,0,6.61,0H1145v3.35h-.6c-2.81,0-5.62,0-8.43,0-.51,0-.71.16-.66.67a4.61,4.61,0,0,1,0,1.05c0,.51.14.68.66.67,3.08,0,6.16,0,9.24,0h.72Z"/><path class="cls-3" d="M967.21,101.69H959c-.55,0-1.09,0-1.64,0s-.59.16-.56.58a9.26,9.26,0,0,1,0,1.29c0,.48.15.64.64.64,2.63,0,5.27,0,7.9,0h1v3.36h-.6c-2.79,0-5.58,0-8.37,0-.59,0-.77.19-.72.74a4.68,4.68,0,0,1,0,1c-.06.53.18.67.67.67,3.11,0,6.21,0,9.31,0h.66v3.33H951.66V98.38h15.55Z"/><path class="cls-3" d="M1041,113.25h-5.22a15.06,15.06,0,0,1,0-1.9,6.09,6.09,0,0,0-1.28-4.44c-1.89-2.68-3.63-5.47-5.42-8.21a1.65,1.65,0,0,1-.12-.34h6.16l3.27,6a2.19,2.19,0,0,0,.2-.25q1.42-2.75,2.87-5.48c.08-.15.26-.33.4-.33,1.93,0,3.85,0,5.9,0-.36.6-.65,1.12-1,1.63l-4.42,6.75c-.37.56-.76,1.11-1.08,1.69a2.49,2.49,0,0,0-.29,1C1041,110.69,1041,112,1041,113.25Z"/><path class="cls-3" d="M1128.57,109.69v3.54h-12.76V98.37H1121v10.5c0,.82,0,.82.79.82Z"/><path class="cls-3" d="M1070.6,113.25V98.37h5.16v14.88Z"/><path class="cls-3" d="M964.45,128.26c-.52,0-1,0-1.44,0a.73.73,0,0,1-.46-.33c-.32-.59-.61-1.19-.9-1.8a.81.81,0,0,0-.85-.54c-2,0-4,0-6,0a.54.54,0,0,0-.63.42,16.22,16.22,0,0,1-1,2,.57.57,0,0,1-.39.25c-.46,0-.93,0-1.51,0,.27-.46.5-.85.71-1.24,1.12-2.21,2.23-4.42,3.36-6.63.49-1,1-1.89,1.48-2.86a.8.8,0,0,1,.74-.48c1-.18,1.36.37,1.75,1.16,1.57,3.16,3.21,6.28,4.82,9.43C964.27,127.82,964.34,128,964.45,128.26Zm-6.42-9.4-.18-.09-2.69,5.37h5.49Z"/><path class="cls-3" d="M1075.6,117.1h1.47v1.06c0,2.07,0,4.14,0,6.21,0,2.41-1.43,3.56-3.47,4a9.55,9.55,0,0,1-4.72-.11c-1.82-.51-3.16-1.66-3.13-3.84s0-4.44,0-6.67v-.66h1.36v2.64c0,1.31,0,2.62,0,3.92a7.89,7.89,0,0,0,.17,1.37,2.52,2.52,0,0,0,1.85,1.81,6.2,6.2,0,0,0,5-.18,2.35,2.35,0,0,0,1.45-2.29c0-2.2,0-4.41,0-6.61Z"/><path class="cls-3" d="M1044.59,122.22a1.82,1.82,0,0,1,1.31-1.52,10,10,0,0,1,5.3-.07,1.83,1.83,0,0,1,1.51,2c0,1.21,0,2.42,0,3.62,0,.87.53,1.25,1.4,1a2.71,2.71,0,0,1,0,.7c0,.16-.23.39-.37.4a7.5,7.5,0,0,1-1.34,0c-.6,0-.83-.52-1-1a5.4,5.4,0,0,1-4,1.28,3.57,3.57,0,0,1-2.67-1,2.6,2.6,0,0,1-.39-2.76,1.94,1.94,0,0,1,1.86-1.22c1.49-.1,3-.1,4.48-.13,1,0,1.13-.29.63-1.13a1.85,1.85,0,0,0-.88-.76,4.86,4.86,0,0,0-3.15,0,1.15,1.15,0,0,0-.51.24A1.78,1.78,0,0,1,1044.59,122.22Zm4.5,2.43v-.06c-.82.06-1.66.06-2.47.19s-1.41,1-1,1.6a1.73,1.73,0,0,0,1.4,1,7.32,7.32,0,0,0,1.75,0,2.91,2.91,0,0,0,2.66-2.22c.1-.44-.05-.48-.37-.48C1050.38,124.64,1049.74,124.65,1049.09,124.65Z"/><path class="cls-3" d="M1012.18,127.31c.08,1.08.08,1.09-.95,1.08a3.74,3.74,0,0,1-.58,0c-.42-.08-.89-.1-1-.68,0-.13-.18-.23-.25-.32a5.6,5.6,0,0,1-4.6,1.13,3.39,3.39,0,0,1-2-.84,2.59,2.59,0,0,1-.47-2.76,2.09,2.09,0,0,1,2.11-1.29c1.51,0,3-.09,4.54-.12.47,0,.68-.11.52-.65a1.72,1.72,0,0,0-1.65-1.39,5.36,5.36,0,0,0-2.55.14,1,1,0,0,0-.51.23c-.59.72-1.35.55-2.09.41a2.06,2.06,0,0,1,2-1.76,10.27,10.27,0,0,1,4.74.21,1.66,1.66,0,0,1,1.37,1.86c0,1.22,0,2.45,0,3.68C1010.81,127.12,1011.25,127.47,1012.18,127.31Zm-6.39.33.06-.13c.32,0,.65-.08,1-.14a3.06,3.06,0,0,0,2.66-2.24c.07-.42,0-.48-.37-.48-.68,0-1.36,0-2,0a20.79,20.79,0,0,0-2.37.13,1.31,1.31,0,0,0-1.14.94,1,1,0,0,0,.55,1.18C1004.64,127.2,1005.23,127.39,1005.79,127.64Z"/><path class="cls-3" d="M974,126.05a3.52,3.52,0,0,1-2.92,2.32,7.42,7.42,0,0,1-3.44-.08,3.82,3.82,0,0,1-2.86-3.4,4,4,0,0,1,1.11-3.38,4.28,4.28,0,0,1,2.91-1.15,7.37,7.37,0,0,1,2.79.32,4.06,4.06,0,0,1,2.51,3.3c0,.21.05.42.08.67h-7.35c-.58,0-.7.19-.47.71a3.61,3.61,0,0,0,6.05.66.91.91,0,0,1,.67-.19A4.51,4.51,0,0,1,974,126.05Zm-1.41-2.67c-.22-.32-.36-.5-.48-.69a2.94,2.94,0,0,0-2.64-1.3,3.44,3.44,0,0,0-2.85,1.45,2,2,0,0,0-.21.5,1.73,1.73,0,0,0,.52.16c1.66,0,3.31,0,5,0A4.2,4.2,0,0,0,972.54,123.38Z"/><path class="cls-3" d="M1110.47,124.65h-7.31c-.57,0-.66.12-.45.67a3,3,0,0,0,2.07,1.83,3.43,3.43,0,0,0,4-1.19.61.61,0,0,1,.43-.21,8.54,8.54,0,0,1,1.11.32,3.11,3.11,0,0,1-1.7,1.86,6.59,6.59,0,0,1-4.76.34c-3.5-1-3.39-5.35-1.5-6.93a4.08,4.08,0,0,1,2.29-.94,5.64,5.64,0,0,1,4.08.75A4.06,4.06,0,0,1,1110.47,124.65Zm-1.67-1.21a3.18,3.18,0,0,0-3-2.07,3.64,3.64,0,0,0-2.74,1.41,3.06,3.06,0,0,0-.26.55,2.06,2.06,0,0,0,.57.17c1.64,0,3.28,0,4.91,0A3.57,3.57,0,0,0,1108.8,123.44Z"/><path class="cls-3" d="M1116.69,127.06a1.74,1.74,0,0,0,.36-.24,1.39,1.39,0,0,1,1.93-.17,5.21,5.21,0,0,0,3.93.6,5.83,5.83,0,0,0,1.43-.46c.74-.4.69-1.11-.1-1.43a5.81,5.81,0,0,0-1.6-.36c-1-.11-2-.17-2.93-.24a2.24,2.24,0,0,1-2.07-1.44,2.1,2.1,0,0,1,1.59-2.7,8.24,8.24,0,0,1,3.57-.31,7.91,7.91,0,0,1,3.17,1c.43.29.36.42,0,.6a1.94,1.94,0,0,0-.4.22.67.67,0,0,1-.86,0,5.63,5.63,0,0,0-4.9-.34c-.27.12-.62.49-.61.73s.41.55.7.64a8.16,8.16,0,0,0,1.78.37c.91.11,1.84.12,2.75.25a2,2,0,0,1,2,1.86,2.23,2.23,0,0,1-1.18,2.27,6.86,6.86,0,0,1-4.19.51c-.89-.19-1.79-.33-2.66-.6A10.34,10.34,0,0,1,1116.69,127.06Z"/><path class="cls-3" d="M985.66,128.5a5.52,5.52,0,0,1-3.39-.85,3.34,3.34,0,0,1-1.5-2.59A3.85,3.85,0,0,1,982,121.6a5.31,5.31,0,0,1,2.56-1.14,6.68,6.68,0,0,1,3.08.13,3.77,3.77,0,0,1,3.1,4.5c-.28,2.39-2.58,3.42-4.44,3.41Zm.13-6.9-.06-.16a9.35,9.35,0,0,0-2.21.79c-2,1.32-1.77,3.32-.11,4.41a4.19,4.19,0,0,0,4.88-.11,2.54,2.54,0,0,0,.7-3.41A3.84,3.84,0,0,0,985.79,121.6Z"/><path class="cls-3" d="M1136.38,120.65l.09,0c1.46-.11,1.46-.11,2.11,1.21s1.39,2.86,2.1,4.29a5.5,5.5,0,0,0,.43.64c.33-.64.61-1.18.88-1.73.64-1.27,1.3-2.53,1.89-3.83a.87.87,0,0,1,1-.61,7.06,7.06,0,0,0,.93,0c-.63,1.24-1.23,2.43-1.85,3.62-1,1.9-2,3.81-3,5.7a2,2,0,0,1-1.8,1.05c-.5,0-1,0-1.52,0-.83,0-.85,0-.85-.84v-.54c.82-.06,1.62.43,2.38-.11a3.1,3.1,0,0,0,.84-.77,1,1,0,0,0,0-.78c-1.11-2.23-2.25-4.45-3.39-6.67C1136.56,121.06,1136.48,120.85,1136.38,120.65Z"/><path class="cls-3" d="M1042.92,122.72l-1.33.4a3.9,3.9,0,0,0-2.92-1.64,4,4,0,0,0-3.74,2.16,2.71,2.71,0,0,0,1.15,3.13,4.71,4.71,0,0,0,5-.15,6.72,6.72,0,0,0,.68-.71l1.33.33a3.05,3.05,0,0,1-1.65,1.73,6.49,6.49,0,0,1-3.12.64,9.07,9.07,0,0,1-2.68-.5,3.37,3.37,0,0,1-2.23-2.92,3.83,3.83,0,0,1,1.18-3.68,5,5,0,0,1,2.38-1,7.16,7.16,0,0,1,4.12.36A3,3,0,0,1,1042.92,122.72Z"/><path class="cls-3" d="M1013.08,120.62h1.36v.55c0,1.19.06,2.38,0,3.57a2.27,2.27,0,0,0,2.23,2.49,3.93,3.93,0,0,0,3.15-.76,2.29,2.29,0,0,0,.89-1.82c0-1.32,0-2.65,0-4H1022v7.6h-1.26l-.17-.84a4.39,4.39,0,0,1-3.1,1.22,4.82,4.82,0,0,1-3.56-1,2.74,2.74,0,0,1-.8-1.72C1013,124.15,1013.08,122.4,1013.08,120.62Z"/><path class="cls-3" d="M1087.62,128.24h-1.36c0-1.31,0-2.59,0-3.87,0-1.89-1.13-2.59-2.58-2.76a3.14,3.14,0,0,0-3.09,1.15,2.89,2.89,0,0,0-.56,1.44c-.08,1.33,0,2.68,0,4h-1.32v-7.61h1.25l.24.73a5.49,5.49,0,0,1,4-1c1.48.11,2.87.72,3.27,2.21a4,4,0,0,1,.18,1C1087.62,125.07,1087.62,126.63,1087.62,128.24Z"/><path class="cls-3" d="M1000.86,128.24h-1.25c0-1.19,0-2.36,0-3.52a3,3,0,0,0-.77-2.33,3.31,3.31,0,0,0-3-.73,4.84,4.84,0,0,0-1.49.63,2,2,0,0,0-1,1.81c-.06,1.35-.12,2.71-.18,4.12H992v-7.59h1.16l.09.63a14.87,14.87,0,0,1,2.43-.83,5,5,0,0,1,4.35.94,2.35,2.35,0,0,1,.78,1.85C1000.87,124.87,1000.86,126.53,1000.86,128.24Z"/><path class="cls-3" d="M1096.34,126.77c.2-.31.36-.52.48-.75.84-1.66,1.68-3.33,2.5-5,.16-.32.31-.48.68-.44a11.36,11.36,0,0,0,1.18,0l-1.47,2.93c-.67,1.32-1.34,2.63-2,3.94-.15.28-.32.7-.55.76a5.44,5.44,0,0,1-1.51,0c-.08,0-.16-.15-.21-.25l-3.59-7.08a1.41,1.41,0,0,1-.08-.3h1.59Z"/><path class="cls-3" d="M1023.64,121.61v-1a1.51,1.51,0,0,1,.28,0c1.13,0,1-.06,1-1v-1.52s0-.07,0-.19h1.31c0,.73,0,1.43,0,2.12,0,.43.14.61.57.59s1.05,0,1.62,0v1c-.52,0-1.06,0-1.59,0s-.61.16-.61.61a35.43,35.43,0,0,1,0,3.57,1.28,1.28,0,0,0,1.83,1.28,1.33,1.33,0,0,1,.26,0v1.33a13.12,13.12,0,0,1-2.26,0c-.92-.16-1.15-.63-1.16-1.87s0-2.65,0-4c0-.84,0-.84-.82-.85Z"/><path class="cls-3" d="M1135.48,127c.1,1.4.1,1.4-1.14,1.4h-.7c-1.13,0-1.6-.47-1.6-1.61,0-1.44,0-2.89,0-4.33,0-.84,0-.84-.82-.84h-.55v-1l.27,0c1.2,0,1.09.14,1.1-1.1v-1.4a.85.85,0,0,1,0-.15h1.32v1.48c0,1.31-.13,1.16,1.2,1.17h.86v1h-1.58c-.3,0-.48.09-.48.43,0,1.46,0,2.93,0,4.39,0,.58.83.89,1.6.69Z"/><path class="cls-3" d="M1113,128.24h-1.31v-7.62H1113l.16.67a5.23,5.23,0,0,1,3.23-1c.42,0,.56.14.53.54s0,.66,0,1a3.44,3.44,0,0,0-2.69.16,2.06,2.06,0,0,0-1.17,2C1113,125.41,1113,126.8,1113,128.24Z"/><path class="cls-3" d="M976.59,128.23H975.3v-7.6h1.26l.16.66.89-.49a4.52,4.52,0,0,1,2.51-.44.49.49,0,0,1,.34.34,7,7,0,0,1,0,1,18.24,18.24,0,0,0-2,.15,2.09,2.09,0,0,0-1.83,2.27c0,1.17,0,2.34,0,3.51C976.61,127.83,976.6,128,976.59,128.23Z"/><path class="cls-3" d="M1055.74,117.09h1.17v11.14h-1.17Z"/><path class="cls-3" d="M1089.34,120.62h1.27v7.61h-1.27Z"/><path class="cls-3" d="M1127.86,120.62h1.28v7.6h-1.28Z"/><path class="cls-3" d="M1030.44,120.61h1.17v7.61h-1.17Z"/><path class="cls-3" d="M1129.14,119.24h-1.28v-1.41h1.28Z"/><path class="cls-3" d="M1089.33,119.23v-1.41h1.29v1.41Z"/><path class="cls-3" d="M1031.6,119.25h-1.26v-1.42h1.26Z"/><g id="sze_logo" data-name="sze logo"><g class="cls-4"><g class="cls-5"><path class="cls-3" d="M267.48,116l-1-.38-1,2h1Zm1.76.1-.95-.48-1,2h1Zm36.19,10.34V123a.15.15,0,0,0-.14-.14H286.15a.15.15,0,0,0-.15.14v3.53a.16.16,0,0,0,.15.14h19.14A.13.13,0,0,0,305.43,126.48Zm-197.36,0V123a.16.16,0,0,0-.15-.14H55.17A.14.14,0,0,0,55,123v3.53a.15.15,0,0,0,.14.14h52.75A.16.16,0,0,0,108.07,126.48Zm0-14v-3.53a.15.15,0,0,0-.15-.14H55.17a.14.14,0,0,0-.14.14v3.53a.15.15,0,0,0,.14.14h52.75S108.07,112.56,108.07,112.47Zm21.53,14V123a.16.16,0,0,0-.15-.14H115.18a.14.14,0,0,0-.14.14v3.53a.15.15,0,0,0,.14.14h14.23C129.5,126.62,129.6,126.57,129.6,126.48Zm0-7V116a.16.16,0,0,0-.15-.15H115.18a.15.15,0,0,0-.14.15v3.52a.15.15,0,0,0,.14.15h14.23C129.5,119.62,129.6,119.57,129.6,119.47Zm0-7v-3.53a.15.15,0,0,0-.15-.14H115.18a.14.14,0,0,0-.14.14v3.53a.15.15,0,0,0,.14.14h14.23C129.5,112.66,129.6,112.56,129.6,112.47Zm0-7v-3.53a.16.16,0,0,0-.15-.14H115.18a.15.15,0,0,0-.14.14v3.53a.15.15,0,0,0,.14.15h14.23C129.5,105.65,129.6,105.56,129.6,105.46Zm0-7V94.93a.15.15,0,0,0-.15-.14H115.18a.14.14,0,0,0-.14.14v3.53a.15.15,0,0,0,.14.14h14.23C129.5,98.65,129.6,98.55,129.6,98.46Zm0-7V87.92a.16.16,0,0,0-.15-.14H115.18a.15.15,0,0,0-.14.14v3.53a.15.15,0,0,0,.14.14h14.23C129.5,91.64,129.6,91.54,129.6,91.45Zm0-7V81a.16.16,0,0,0-.15-.15H115.18A.15.15,0,0,0,115,81v3.52a.14.14,0,0,0,.14.14h14.23C129.5,84.63,129.6,84.54,129.6,84.49Zm0-7V73.91a.16.16,0,0,0-.15-.14H115.18a.14.14,0,0,0-.14.14v3.53a.15.15,0,0,0,.14.14h14.23A.12.12,0,0,0,129.6,77.48Zm0-7V67a.16.16,0,0,0-.15-.14H115.18A.15.15,0,0,0,115,67v3.53a.15.15,0,0,0,.14.14h14.23C129.5,70.62,129.6,70.57,129.6,70.48Zm146.76,52.19h-1.72v-2.91h1.77a2.94,2.94,0,0,1,1.52.29,1.23,1.23,0,0,1,.43,1.09,1.4,1.4,0,0,1-.43,1.15A2.3,2.3,0,0,1,276.36,122.67Zm2.62-3.53a4.3,4.3,0,0,0-2.67-.62h-3v8.1h1.39V123.9h1.81l2,2.72h1.76l-2.14-3a2.33,2.33,0,0,0,1.76-2.53A2.62,2.62,0,0,0,279,119.14Zm-8.83,3.39a3,3,0,0,1-.81,2.09,2.89,2.89,0,0,1-4.11,0,2.84,2.84,0,0,1-.81-2.09,3,3,0,0,1,.81-2.1,2.89,2.89,0,0,1,4.11,0A3,3,0,0,1,270.15,122.53Zm1.43,0a4.15,4.15,0,0,0-4.29-4.2,4.18,4.18,0,0,0-3.06,1.19,4.2,4.2,0,0,0,3.06,7.2,4.15,4.15,0,0,0,4.29-4.19Zm-12.12.9,3-4.91H261l-2.24,3.67-2.25-3.67H255l3,4.91v3.19h1.39v-3.19Zm-6.26,1.48a3.52,3.52,0,0,1-2,.47,2.66,2.66,0,0,1-2-.76,2.86,2.86,0,0,1-.82-2.09,2.74,2.74,0,0,1,.86-2.1,2.94,2.94,0,0,1,2.06-.81,4,4,0,0,1,1.14.14,2.62,2.62,0,0,1,1,.57l.72-1a4.38,4.38,0,0,0-2.92-1,4.24,4.24,0,0,0-3,1.19,4.12,4.12,0,0,0-1.24,3,4.09,4.09,0,0,0,4.2,4.19,4.17,4.17,0,0,0,3.3-1.29v-2.76h-1.38v2.29Zm-10.41-5.1v-1.29h-5.44v8.1h1.39v-3.34h3.62v-1.23h-3.62v-2.24Zm-8.54,2.72a3.05,3.05,0,0,1-.81,2.09,2.87,2.87,0,0,1-4.92-2.09,3,3,0,0,1,.81-2.1,2.89,2.89,0,0,1,4.11,0A3,3,0,0,1,234.25,122.53Zm1.38,0a4.15,4.15,0,0,0-4.3-4.2,4.17,4.17,0,0,0-3.05,1.19,4.2,4.2,0,0,0,3.05,7.2,4.18,4.18,0,0,0,3.06-1.19A3.94,3.94,0,0,0,235.63,122.53Zm-15.27.9,3-4.91h-1.48l-2.24,3.67-2.25-3.67h-1.48l3,4.91v3.19h1.39v-3.19Zm-4.68-3.67v-1.24h-6.31v1.24h2.49v6.86h1.38v-6.86Zm-9.17,6.86h1.38v-8.1h-1.38Zm-3.68-6.81a3,3,0,0,1,1,.52l.72-1a4.19,4.19,0,0,0-1.34-.71,4.47,4.47,0,0,0-1.53-.24,3.26,3.26,0,0,0-2,.62,2.11,2.11,0,0,0-.81,1.72,2,2,0,0,0,.71,1.66,4.12,4.12,0,0,0,.81.48,7.75,7.75,0,0,0,1.39.38,3.13,3.13,0,0,1,1.24.48.88.88,0,0,1,.38.71,1,1,0,0,1-.38.76,1.66,1.66,0,0,1-1.05.29,3.89,3.89,0,0,1-2.58-1.05l-.86,1.05a5.08,5.08,0,0,0,3.39,1.34,3.24,3.24,0,0,0,2.1-.67,2.11,2.11,0,0,0,.81-1.72,2,2,0,0,0-.62-1.62,4.24,4.24,0,0,0-1.86-.85,5.14,5.14,0,0,1-1.62-.58.93.93,0,0,1-.39-.76.78.78,0,0,1,.39-.71,1.87,1.87,0,0,1,1-.24A2.49,2.49,0,0,1,202.83,119.81Zm-9,2.86h-1.72v-2.91h1.77a3,3,0,0,1,1.53.29,1.25,1.25,0,0,1,.43,1.09,1.44,1.44,0,0,1-.43,1.15A2.55,2.55,0,0,1,193.81,122.67Zm2.58-3.53a4.34,4.34,0,0,0-2.68-.62h-3v8.1h1.38V123.9h1.82l2,2.72h1.77l-2.15-3a2.33,2.33,0,0,0,1.77-2.53A2.62,2.62,0,0,0,196.39,119.14Zm-13.27-.62v8.1H189v-1.28H184.5v-2.2h3.92v-1.23H184.5v-2.15h4.35v-1.29h-5.73Zm-1.2,0H180.4l-2.49,6-2.48-6H173.9l3.25,8.1h1.53Zm-10.6,8.1h1.39v-8.1h-1.39Zm-3.62-2.05-4.73-6h-1.39v8.1H163v-5.91l4.58,5.91H169v-8.1h-1.38v6ZM154,123v-4.48h-1.39v4.57a3.73,3.73,0,0,0,1,2.72,3.43,3.43,0,0,0,2.48,1,3.51,3.51,0,0,0,2.48-1,3.69,3.69,0,0,0,1-2.72v-4.57h-1.39V123a2.54,2.54,0,0,1-.57,1.76,1.92,1.92,0,0,1-1.53.67,2,2,0,0,1-1.53-.67A3.15,3.15,0,0,1,154,123Zm124.13-11.87h4.2V92.45h-5.64l-4.87,10.25L267,92.45h-5.63v18.68h4.2V99.36l5,10.2H273l5.07-10.2ZM243.51,92.45v18.68h13.8v-3.67h-9.6V103.6h8.4V100h-8.4V96.17H257V92.45ZM240.17,96V92.4h-14.8V96h5.3v15.06h4.2V96Zm-31.08-3.58v18.68h13.8v-3.67h-9.6V103.6h8.4V100h-8.4V96.17h9.31V92.45Zm-8.79,11.3,6.5-11.3h-4.54l-4.06,7-4.06-7h-4.53l6.49,11.3v7.38h4.2Zm-15.94,3a7,7,0,0,1-3.63.81A5.16,5.16,0,0,1,177,106a5.76,5.76,0,0,1-1.57-4.25,5.59,5.59,0,0,1,1.62-4.24,5.48,5.48,0,0,1,4-1.62,6.27,6.27,0,0,1,2.3.43,8.09,8.09,0,0,1,2.33,1.53l2.15-3.15a10.22,10.22,0,0,0-7-2.67A9.49,9.49,0,0,0,174,94.79a9.84,9.84,0,0,0,0,13.82,9.54,9.54,0,0,0,6.93,2.71,9.93,9.93,0,0,0,7.73-3.1V101.6h-4.2Zm-30-14.3v18.68h13.79v-3.67h-9.59V103.6H167V100h-8.4V96.17h9.31V92.45Zm148.81-4.24h4.2V69.53h-4.2Zm-8.45-7.39,6.49-11.29h-4.54l-4.05,7-4.06-7H284l6.5,11.29v7.39h4.2Zm-16.85.77-9.17-12H264.8V88.21H269V76.48l8.88,11.73h4.2V69.53h-4.2ZM247.23,69.53V88.21H261V84.54h-9.59V80.68h8.4V77.1h-8.4V73.24h9.31V69.53Zm-8.78,7.81H231V69.53h-4.2V88.21H231V80.87h7.45v7.34h4.2V69.53h-4.2ZM212,83a5.65,5.65,0,0,1-1.58-4.2,5.47,5.47,0,0,1,1.68-4.14,5.62,5.62,0,0,1,4-1.53A6,6,0,0,1,221,75.58l2.58-3a9.89,9.89,0,0,0-7.73-3.52,9.54,9.54,0,0,0-7,2.76,9.28,9.28,0,0,0-2.87,7,9.18,9.18,0,0,0,2.82,6.86A9.81,9.81,0,0,0,216,88.4a9.71,9.71,0,0,0,7.5-3.58l-2.67-2.76a6.13,6.13,0,0,1-5,2.43A5,5,0,0,1,212,83ZM201.74,64.62l-4.16-1.72-3.39,4.72H198Zm-12,4.91V88.21H203.5V84.54h-9.59V80.68h8.4V77.1h-8.4V73.24h9.31V69.53Zm-3.63,18.68V84.59h-9.94l9.79-12.16v-2.9H170.75v3.62h9.5l-9.83,12.2v2.86ZM160.39,72.77a8.21,8.21,0,0,1,5,1.86l2.1-3a10.18,10.18,0,0,0-3.25-1.82,11.33,11.33,0,0,0-3.77-.62,7.81,7.81,0,0,0-4.78,1.43,5.54,5.54,0,0,0-.38,8,11.76,11.76,0,0,0,4.77,2,8.81,8.81,0,0,1,2.77,1,1.52,1.52,0,0,1,.72,1.33,1.59,1.59,0,0,1-.67,1.33,2.88,2.88,0,0,1-1.81.48c-1.72,0-3.58-.91-5.59-2.67l-2.48,3a11.58,11.58,0,0,0,8,3.29,7.49,7.49,0,0,0,5-1.57,5.12,5.12,0,0,0,1.9-4.1,4.77,4.77,0,0,0-1.47-3.82,9.78,9.78,0,0,0-4.16-2,12.61,12.61,0,0,1-3.39-1.14,1.52,1.52,0,0,1-.71-1.29,1.49,1.49,0,0,1,.62-1.29A2.24,2.24,0,0,1,160.39,72.77Zm-58.86-3.91c.09-.91.14-1.62-1.2-1.67-1,0-2.24-.28-2.29,1.43a23.59,23.59,0,0,1-1.76,8.48c-4.64,11-12.94,17.16-24.83,18-1.67.1-1.34,1.48-1.29,2.39,0,1.24.67,1.19,1.53,1.14a42.49,42.49,0,0,0,4.25-.48,31.42,31.42,0,0,0,25.54-28.31C101.48,69.53,101.53,69.19,101.53,68.86ZM70.11,103.79c0-1.28.15-1.57,1.58-1.67a34.63,34.63,0,0,0,26-13.43,33.93,33.93,0,0,0,7.35-20c.09-1.66,1.43-1.42,2.43-1.42,1.44,0,1.15.85,1.1,1.71a38.56,38.56,0,0,1-29.5,35.7,41.53,41.53,0,0,1-7.26,1C70.11,105.75,70.11,105.7,70.11,103.79Z"/></g><g class="cls-5"><path class="cls-3" d="M107.88,119.47V116a.16.16,0,0,0-.15-.15H71.07a.16.16,0,0,0-.15.15v3.52a.16.16,0,0,0,.15.15h36.66A.13.13,0,0,0,107.88,119.47Z"/></g></g></g></g></svg>