<?xml version="1.0" encoding="utf-8"?>
<!-- Generator: Adobe Illustrator 25.3.1, SVG Export Plug-In . SVG Version: 6.00 Build 0)  -->
<svg version="1.1" id="Layer_1" xmlns="http://www.w3.org/2000/svg" xmlns:xlink="http://www.w3.org/1999/xlink" x="0px" y="0px"
	 viewBox="0 0 643.6 176.9" style="enable-background:new 0 0 643.6 176.9;" xml:space="preserve">
<style type="text/css">
	.st0{fill:#181919;}
	.st1{fill-rule:evenodd;clip-rule:evenodd;fill:#181919;}
</style>
<g id="er">
	<path class="st0" d="M539.4,131.2c0.3-1.2-0.3-1.7-1.2-2.1c-1.4-0.6-2.7-1.5-4.2-2.3c-0.2-0.2-0.3-0.2-0.5-0.2
		c-0.9,0.5-1.5,1.5-1.5,2.7c0,0.3,0.2,0.6,0.3,1.2c-0.8-0.5-1.4-0.8-2-1.2c-0.2-0.2-0.2-0.5-0.2-0.6c0.5-1.8,0.6-3.6,2-5.1
		c-0.3-0.3-0.8-0.5-1.2-0.8c-1.1-0.5-2-0.9-3-1.4c-0.9-0.3-2-0.6-2.9-0.8c-0.5-0.2-1.1-0.2-1.7-0.3c-0.8-0.2-1.4-0.8-1.5-1.5
		c-0.2-0.9-0.3-1.7-0.6-2.6c-0.2-0.3-0.5-0.9-0.8-0.9c-0.6,0-1.4-0.5-1.8,0.5c-0.6,1.2-1.4,2.3-1.8,3.3c-0.5,1.1-0.9,1.4-2.3,0.9
		c0.3-1.4,1.2-2.6,1.2-3.9l-0.3-0.2c-0.3,0.5-0.8,0.9-1.1,1.4c-0.6,0.8-1.2,1.5-1.8,2.3s-1.4,0-2.1,0c0.8-1.1,1.4-2,2-3
		c0.2-0.2,0.2-0.5,0.2-0.6c-0.3,0-0.5,0-0.8,0.2c-0.9,0.8-2,1.5-2.9,2.3s-1.4,0.6-2.4,0l2.9-3.5c-0.3,0-0.5,0-0.8,0.2
		c-1.2,0.6-2.3,1.4-3.3,2.1c-0.5,0.5-1.2,0.3-1.7-0.2c-0.3-0.2-0.5-0.3-0.9-0.6l3.2-2.3V114c-0.3,0-0.5-0.2-0.8,0
		c-0.8,0.3-1.7,0.8-2.4,1.2c-1.2,0.6-1.4,0.6-2.6-0.5l1.8-1.4l1.8-1.1V112c-0.3,0-0.5,0-0.8,0c-1.1,0.5-2,0.9-3,1.4
		c-0.6,0.3-1.1,0.3-1.5-0.3c-0.3-0.3-0.6-0.5-0.9-0.6l4.5-1.8v-0.3c-0.3-0.2-0.6-0.3-0.8-0.2c-1.1,0.3-2.3,0.5-3.3,0.9
		c-1.4,0.5-1.7,0.3-2.4-1.1l5-0.9v-0.3c-0.3-0.2-0.6-0.2-0.9-0.2c-1.5,0.2-3.2,0.3-4.7,0.5c-0.3,0-0.6-0.2-0.8-0.5
		c-0.3-0.5-0.6-0.9-0.9-1.4c1.5,0,2.9,0.2,4.2,0.2c1.1,0,2-0.2,3-0.2c4.5-0.2,9.1-0.8,13.4-1.8c0.5-0.3,1.1-0.6,1.4-0.9
		c-2.4-1.5-4.4-3.8-5.6-6.3c-1.8-3.3-3.3-6.8-5.1-10.1c-0.5-0.9-1.2-1.7-1.8-2.6c-0.5-0.9-0.9-1.8-1.1-2.9c0.5,0.5,1.1,0.8,1.7,1.1
		c0.5,0.3,1.1,0.8,1.7,0.2c-2.1-1.7-3.6-3.9-4.5-6.3c1.1,0.2,1.8,1.2,2.7,1.2l0.2-0.3c-0.8-0.8-1.4-1.4-2.1-2.1
		c-1.2-1.2-2.4-2.4-3.3-3.8c-1.1-1.5-1.5-3.2-1.7-5l5.3,3.8c0.2,0.2,0.3,0.2,0.5,0.3c0.3,0,0.5,0,0.8,0c0-0.2,0-0.5-0.2-0.6
		c-2.1-2.6-3.5-5.4-4.4-8.6c-0.3-1.2-0.3-2.4,0-3.6l7.5,8.6l0.3-0.2c0-0.2,0.2-0.5,0-0.6c-1.4-2.6-2.4-5.1-3-8
		c-0.6-1.7-0.6-3.5-0.2-5.1l0.3-0.6l5.4,7.7l0.3-0.2c0-0.3,0.2-0.5,0-0.8c-1.1-2.9-1.5-6-1.2-9.2c0.2-1.2,0.6-2.4,1.2-3.5
		c0.9,4.1,2.7,7.8,5,11.3h0.3c0-0.3,0-0.6,0-0.9c-0.8-3.2-0.5-6.3,0.5-9.4c0.3-0.6,0.6-1.2,1.1-1.8c0,2.1,0.3,4.2,1.1,6.3
		c1.4,4.2,3,8.3,4.5,12.5c1.1,2.7,2.3,5.3,3.5,7.8c0.2,0.3,0.3,0.8,0.6,1.1c0.6,1.2,0.9,2.4,0.6,3.8c0,1.5,0,3,0,4.5
		c0.2,1.8,0.5,3.6,0.8,5.3c0.2,1.1,0.5,2.1,1.2,2.9c0.6-1.1,1.1-2,1.7-2.9c1.7-2.7,3.6-5.3,5.9-7.5c2.1-2.1,4.5-3.8,7.2-5
		c0.5-0.2,0.9-0.3,1.4-0.6c0.6-0.3,1.1-0.8,1.7-1.2c2.1-1.5,4.1-3.3,6.2-4.7c1.4-0.9,2.9-1.5,4.4-2.1c0.6-0.2,1.2-0.2,1.8-0.2v0.2
		l-2,1.7v0.3c0.3,0,0.5,0,0.8,0c1.8-0.6,3.6-1.4,5.4-2c1.4-0.6,2.9-1.1,4.4-1.1l-6,4.5l0.2,0.3c0.2,0,0.5,0.2,0.6,0
		c1.7-0.6,3.3-1.4,4.8-2.1c2.4-1.1,5-1.8,7.5-1.8l-8.9,5.1v0.3c0.2,0,0.5,0,0.6,0c2.4-0.8,4.7-1.7,7.1-2.4c1.5-0.5,3.2-0.8,4.8-0.9
		c0.9,0,1.8,0.2,2.6,0.5c-4.1,1.1-8,2.6-11.8,4.5v0.3c0.3,0.2,0.5,0.2,0.8,0.2c3.2-0.8,6.2-1.5,9.4-2.1c1.4-0.2,2.7-0.3,4.1-0.3
		c0.2,0,0.5,0.2,0.8,0.3c-3.9,0.8-7.5,2-11,3.8c-2.6,1.2-5.1,2.4-7.5,3.9c-2,1.2-3.9,2.6-5.6,4.1c-2.9,2.6-5.4,5.6-8.1,8.3
		c-1.8,2-3.8,3.6-6,5c-2.1,1.1-4.5,2-6.8,2.9c-0.8,0.3-1.7,0.6-2.4,0.9c-0.2,0-0.3,0.3-0.5,0.5c0.2,0.2,0.3,0.3,0.5,0.3
		c1.5,0.2,3,0.3,4.7,0.3c1.8,0.2,3.8,0.3,5.6,0.3c1.1,0,2.1,0,3.2,0c1.8,0.2,3.6,0.5,5.4,0.8c0.8,0.2,1.4,0.6,1.5,1.4
		c0.2,0.5,0.6,0.9,1.1,0.9c0.9,0.2,1.7,0.5,2.6,0.9c1.4,0.6,1.5,1.5,0.8,2.9c-1.4-1.8-3.3-1.1-4.8-0.6c-2.7,0.8-5.1,1.8-7.8,2.4
		c-1.7,0.5-3.3,1.1-5,1.8c-3,1.1-2.9,3-1.2,5.1c1.2,1.5,2.6,2.9,3.9,4.2c0,0.2,0.2,0.2,0.3,0.3c1.2,0.6,1.2,1.5,1.4,2.7
		c0.3,1.2,0.9,2.4,2.1,3.2c0.2,0.2,0.5,0,0.6,0c2.4-0.2,4.7-0.3,7.1-0.3c2.7,0,2.6,0.6,1.7,2.9c-0.9-2.4-2.9-1.5-4.5-1.5
		c-0.8,0-1.4,0.2-2.1,0.3c-0.3,0.2-0.6,0.3-0.9,0.6c1.2,0.5,2.3,0.8,3.3,1.2c1.1,0.5,2.1,0.9,3,1.5c0.9,0.5,0.9,0.9,0.5,1.7
		c0,0.2-0.2,0.3-0.3,0.3c-0.2,0.3-0.5,0.6-0.8,0.8c0-2-1.4-2.1-2.6-2.4c-1.2-0.3-2.6-0.8-3.9-1.1c-1.2-0.3-2.6,0.5-2.9,1.7
		c-0.2,0.3-0.2,0.6,0,0.9c0,0.2,0,0.3,0,0.3c-1.8-0.5-2-1.1-1.2-2.6c0.5-0.9,1.1-1.7,0.6-2.7c-0.5-1.1-1.2-2.6-2.7-3.2
		c-2.1-0.9-4.2-2.1-6-3.6c-0.9-0.6-2-1.1-3-1.7c-0.6-0.3-1.2-0.8-1.8-1.2l-0.8,1.8c0.5,0.8,1.1,1.2,1.8,1.4l4.8,1.8
		c0.2,0.2,0.5,0.2,0.6,0.3c1.1,0.8,1.2,1.1,0.6,2.3c-0.3-0.5-0.6-1.2-1.1-1.4c-0.9-0.5-1.8-0.5-2.7,0c0.3,0.3,0.6,0.5,0.8,0.6
		c0.6,0.5,1.2,0.8,1.8,1.2C541.2,129.2,541.1,130,539.4,131.2z"/>
</g>
<g id="kit">
	<path class="st1" d="M239.5,75.6c-4.5,5.5-8.3,11.4-11.3,17.7l77.7,36.2L239.5,75.6z"/>
	<path class="st1" d="M305.9,129.5l-36.4-77.1c-6.4,2.8-12.4,6.6-17.9,11L305.9,129.5L305.9,129.5z"/>
	<path class="st1" d="M305.9,129.5l0.2-84.9h-0.6c-6.7,0-13.5,0.8-20.1,2.5L305.9,129.5z"/>
	<path class="st1" d="M222.5,108.6c-1.7,6.7-2.7,13.8-2.7,20.8h86L222.5,108.6z"/>
</g>
<g id="delft">
	<path class="st0" d="M443.6,46.7c0.9,5-1.8,8.4-5.2,11.3c-5.6,4.5-11.7,8.8-17.6,13.3c-2.7,2.3-5.4,4.7-7.9,7.2
		c-2,2.3-3.2,5.2-2.7,8.1c0.2,3.8,3.2,6.8,7,6.5c0,0,0,0,0.2,0c5.2,0,9-2.7,12.9-5.6c0.9-0.7,2-1.1,2.9-1.6c0,1.1,0,2.3-0.2,3.4
		c-4.3,13.5-12.6,25.5-24.2,34.1c-5,4.1-11.1,6.5-17.6,7.4c-1.6,0-3.2,0-4.7,0l-0.7-1.4l2-0.9c10.4-4.3,14.4-12.9,16.3-23.2
		c0.2-1.6,0.5-2.9,0.5-4.5l-0.7-0.2l-1.4,2c-2,3.4-5.2,6.1-9,7.4c-2.5,1.4-5.6,0.9-7.9-1.1c-2.5-2-3.2-5.4-2-8.4
		c1.1-2.3,2.3-4.5,3.6-6.5c1.8-3.4,3.8-6.5,5.6-9.9c0.5-1.1,0.7-2,0.7-3.2l-0.7-0.5c-0.2,0.5-0.5,0.9-0.7,1.4
		c-3.2,4.7-7.2,8.8-12.2,12c-3.2,2.5-6.3,4.7-9.3,7.4c-5.4,4.5-8.6,11.5-8.1,18.7c0,1.6-0.2,3.4-0.5,5H361c-0.5-0.9-0.9-1.6-1.1-2.5
		c-4.7-16.7-0.9-30.9,12.4-42c9.7-7.9,21-13.5,33.2-16.5c6.3-1.8,12.9-3.4,19.2-5.4c5-1.6,9.5-4.1,13.3-7.4c1.1-1.4,2.3-2.9,2.9-4.5
		L443.6,46.7z"/>
</g>
<path id="sze_logo" class="st0" d="M130.5,118.5v-4.2c0-0.1-0.1-0.1-0.2-0.2H85.9c-0.1,0-0.1,0.1-0.2,0.2v4.2c0,0.1,0.1,0.1,0.2,0.2
	h44.5C130.5,118.7,130.5,118.7,130.5,118.5C130.5,118.6,130.5,118.5,130.5,118.5z M130.8,126.9v-4.1c0-0.1-0.1-0.1-0.2-0.1H66.6
	c-0.1,0-0.2,0-0.2,0.1l0,0v4.2c0,0.1,0.1,0.1,0.1,0.1h64.1C130.6,127.2,130.8,127.1,130.8,126.9C130.8,127,130.8,127,130.8,126.9
	L130.8,126.9z M130.8,109.9v-4.2c0-0.1-0.1-0.1-0.2-0.1H66.6c-0.1,0-0.1,0.1-0.1,0.1v4.2c0,0.1,0.1,0.1,0.1,0.1L130.8,109.9
	C130.5,110.1,130.8,110.1,130.8,109.9L130.8,109.9z M156.8,126.9v-4.1c0-0.1-0.1-0.1-0.1-0.1h-17.3c-0.1,0-0.1,0.1-0.1,0.1v4.2
	c0,0.1,0.1,0.1,0.1,0.1h17.2C156.7,127.1,156.8,127.1,156.8,126.9L156.8,126.9z M156.8,118.4v-4.1c0-0.1-0.1-0.1-0.1-0.2h-17.3
	c-0.1,0-0.1,0.1-0.1,0.2v4.2c0,0.1,0.1,0.1,0.1,0.2h17.2C156.7,118.6,156.8,118.6,156.8,118.4L156.8,118.4z M156.8,109.9v-4.2
	c0-0.1-0.1-0.1-0.1-0.1h-17.3c-0.1,0-0.1,0.1-0.1,0.1v4.2c0,0.1,0.1,0.1,0.1,0.1h17.2C156.7,110.2,156.8,110.1,156.8,109.9
	L156.8,109.9z M156.8,101.4v-4.2c0-0.1-0.1-0.1-0.1-0.1h-17.3c-0.1,0-0.1,0.1-0.1,0.1v4.2c0,0.1,0.1,0.1,0.1,0.2h17.2
	C156.7,101.7,156.8,101.6,156.8,101.4L156.8,101.4z M156.8,92.9v-4.2c0-0.1-0.1-0.1-0.1-0.1h-17.3c-0.1,0-0.1,0.1-0.1,0.1v4.2
	c0,0.1,0.1,0.1,0.1,0.1h17.2C156.7,93.3,156.8,93.1,156.8,92.9L156.8,92.9z M156.8,84.4v-4.2c0-0.1-0.1-0.1-0.1-0.1h-17.3
	c-0.1,0-0.1,0.1-0.1,0.1v4.2c0,0.1,0.1,0.1,0.1,0.1h17.2C156.7,84.6,156.8,84.5,156.8,84.4L156.8,84.4z M156.8,75.9v-4.1
	c0-0.1-0.1-0.1-0.1-0.2h-17.3c-0.1,0-0.2,0-0.2,0.1l0,0v4.2c0,0.1,0.1,0.1,0.1,0.1h17.2C156.7,76.1,156.8,76,156.8,75.9L156.8,75.9z
	 M156.8,67.4v-4.2c0-0.1-0.1-0.1-0.1-0.1h-17.3c-0.1,0-0.1,0.1-0.1,0.1v4.2c0,0.1,0.1,0.1,0.1,0.1h17.2
	C156.7,67.5,156.7,67.5,156.8,67.4C156.8,67.5,156.8,67.5,156.8,67.4L156.8,67.4z M156.8,58.9v-4.1c0-0.1-0.1-0.1-0.1-0.1h-17.3
	c-0.1,0-0.2,0-0.2,0.1l0,0V59c0,0.1,0.1,0.1,0.1,0.1h17.2C156.7,59.2,156.8,59.2,156.8,58.9L156.8,58.9z M122.8,57.1
	c0.1-1.1,0.1-1.9-1.5-2.1c-1.2,0-2.7-0.4-2.8,1.7c-0.1,3.5-0.8,7-2.2,10.3c-5.6,13.3-15.6,20.9-30.1,21.8c-2.1,0.1-1.6,1.8-1.6,2.9
	c0,1.5,0.8,1.5,1.8,1.3c1.7-0.1,3.4-0.2,5.1-0.6c16.9-3.2,29.6-17.2,30.9-34.3C122.8,57.8,122.8,57.5,122.8,57.1z M84.7,99.4
	c0-1.6,0.2-1.9,1.9-2.1c12.4-0.5,23.9-6.4,31.5-16.3c5.5-6.9,8.6-15.4,8.9-24.3c0.1-2.1,1.7-1.7,2.9-1.7c1.7,0,1.5,1,1.3,2.1
	c-1,20.7-15.5,38.5-35.8,43.3c-2.9,0.6-5.8,1.1-8.9,1.2C84.7,101.9,84.7,101.7,84.7,99.4z"/>
</svg>
