<?xml version="1.0" encoding="utf-8"?>
<!-- Generator: Adobe Illustrator 25.3.1, SVG Export Plug-In . SVG Version: 6.00 Build 0)  -->
<svg version="1.1" id="Layer_1" xmlns="http://www.w3.org/2000/svg" xmlns:xlink="http://www.w3.org/1999/xlink" x="0px" y="0px"
	 viewBox="0 0 595.3 297.2" style="enable-background:new 0 0 595.3 297.2;" xml:space="preserve">
<style type="text/css">
	.st0{fill:#FFFFFF;}
	.st1{fill:#A4A4A4;}
	.st2{fill:#95C022;}
	.st3{fill:#AF1510;}
	.st4{fill:#41413F;}
</style>
<g id="Layer_3">
	<path class="st0" d="M305.9,249.4c-3.2,0-6.3-1.4-8.6-3.7c-0.8-0.8-1.5-1.7-2.1-2.7c-0.9,1.5-2.2,2.9-3.6,3.9
		c-4.6,3.5-11,3.2-15.1-0.8c-2.1-1.8-3.6-4.3-4.2-7.1c-0.6,0.8-1.2,1.5-2,2.2c-4.9,4.3-12.3,3.7-16.6-1.2c-2.7-3.1-3.5-7.3-2.4-11.1
		c-0.2,0.5-0.4,0.9-0.6,1.4c-3,5.4-9.8,7.3-15.2,4.4c-2.4-1.3-4.2-3.5-5.1-6.1c-1.4-3.9-0.6-8.2,2.2-11.3v-6.6
		c-0.1-12.8-0.1-25.7-0.2-38.5c-0.9,2.4-2.5,4.5-4.6,6.1c0.2,1.2,0.2,2.3,0.1,3.5c0,0.1,0,0.2,0,0.4c0,7.4-0.1,14.9-0.2,22.3v4.1
		c3.3,3.9,3.3,9.6-0.1,13.5c-3.1,4.1-8.8,5.2-13.3,2.6c-5.3-3-7.1-8.8-4.6-14.1l0,0c0.4-0.7,0.8-1.4,1.3-2.1V204
		c0-5.1,0-10.2,0-15.4l0,0c-0.7,0.7-1.5,1.4-2.3,2c0.2,1.1,0.3,2.2,0.2,3.2c0,0.1,0,0.2,0,0.3c0.1,1.2,0.1,2.4,0.1,3.6
		c2.7,4.4,1.6,10.1-2.5,13.2c-4,3.4-10,3-13.5-1c-1.4-1.4-2.4-3.2-2.8-5.1c-2,0.8-4.1,1.2-6.2,1.2c-0.4,0-0.8,0-1.2-0.1
		c-1.2,7.2-7.5,12.4-14.8,12.3c-1.6,0-3.2-0.3-4.8-0.9c-1,7.1-7,12.3-14.1,12.3c-2.8,0-5.5-0.9-7.8-2.6c-0.5,3.2-2.1,6.1-4.5,8.2
		c-2.7,2.4-6.4,3.6-10,3.2c-2.8-0.2-5.5-1.3-7.7-3.1c-1.3,5.8-6.6,9.9-12.6,9.7h-0.2c-3.4,0-6.8-1.3-9.2-3.7
		c-0.2-0.1-0.3-0.3-0.4-0.5c-1.5,4.8-5.8,8-10.8,8.2c-3.3,0.2-6.5-0.8-9-3c-1-0.9-1.8-1.9-2.4-3.1c-2.1,3.7-5.9,6-10.1,6.1
		c-6.6,0.5-12.3-4.4-12.8-10.9c0-0.2,0-0.5,0-0.7l0,0c-0.3-3.7,1.2-7.3,4-9.7c-0.1-0.5-0.1-1-0.2-1.4c-0.1-1.3-0.1-2.5,0-3.7v-68.8
		c-1.3-1.2-2.3-2.6-2.9-4.2c-2.5-6.3,0.6-13.4,6.9-15.9c4.3-1.7,9.2-0.8,12.6,2.2c1,0.9,1.8,1.9,2.5,3c0.7-1.3,1.7-2.4,2.8-3.3
		c4.7-4.2,11.9-4,16.4,0.5c1.8,1.7,3.1,3.9,3.7,6.3c0.2-0.3,0.4-0.5,0.7-0.8c2.1-2.7,5.4-4.2,8.8-4.2c3.5,0.1,6.7,1.7,8.8,4.4l0,0
		c2.2,2.5,3.3,5.8,2.8,9.2c0,0.1,0,0.3-0.1,0.4c1.8-3.2,5.1-5.4,8.8-5.6c6.2-0.5,11.6,4,12.1,10.2c0.3,3.1-0.7,6.1-2.8,8.4v45.8
		c0.8-1.9,1.9-3.5,3.4-4.9c0.4-0.4,0.9-0.8,1.4-1.2c-0.1-1.1-0.1-2.2,0.1-3.4c0-0.1,0-0.2,0-0.3c-0.1-7.7,0-15.5,0-23v-4.2
		c-2.8-3.2-3.3-7.7-1.4-11.4c2.6-5.3,9-7.6,14.4-5c2.2,1.1,3.9,2.8,5,5l0,0c1.8,3.5,1.4,7.7-1,10.8v4.8c0,5.2,0,10.5,0,15.8
		c0.7-0.7,1.4-1.3,2.2-1.8c-0.1-0.7-0.1-1.4-0.1-2.1v-0.2c0-1.6,0-3.1,0-4.6c-4.1-6.1-0.9-10.7,0.9-12.6c3.6-4.1,9.9-4.5,14-0.8
		c0.1,0.1,0.2,0.1,0.2,0.2c1.8,1.5,3,3.7,3.4,6c1.9-0.8,4-1.2,6.1-1.1c0.4,0,0.8,0,1.2,0.1c0.5-2.9,1.8-5.5,3.8-7.6
		c2.7-2.9,6.4-4.5,10.3-4.6c1.9,0,3.8,0.3,5.5,1c0.9-7.1,7.1-12.3,14.2-12c2.8,0,5.6,0.9,7.9,2.5c0.5-6.6,5.8-11.9,12.5-12.2l0,0
		c3.6-0.3,7.2,0.9,9.9,3.3l0.1,0.1c1.3-5.6,6-9.4,12.3-9.5c4-0.2,7.8,1.4,10.4,4.4c0.5-2,1.5-3.9,3-5.4c2.4-2.3,5.6-3.6,8.9-3.6l0,0
		c4.4-0.2,8.6,2.2,10.6,6.1c0.5-1,1.2-1.9,2-2.7c2.3-2.3,5.5-3.5,8.8-3.5h0.1c6-0.1,11.1,4.3,11.9,10.3c2.2-3.4,5.9-5.4,9.9-5.3h0.1
		c6,0,10.6,4.2,11.7,10.7c0.2,0.9,0.2,1.7,0,2.6c-0.1,0.3-0.1,0.6-0.2,0.8c1.9-3.9,6.1-6.3,10.4-6c6.1,0,11,5,10.9,11.1
		c0,0.4,0,0.7-0.1,1.1l0,0c-0.2,2.6-1.2,5-3,6.9c0.3,1.2,0.4,2.4,0.3,3.6c0,0.1,0,0.2,0,0.3c0,13.4-0.1,26.7-0.2,40.1v1.5
		c1-2.6,2.8-4.8,5-6.4v-29.3c0-0.3,0-0.6,0.1-0.9c-3.7-4.4-3.4-10.8,0.5-14.9c4.2-4.2,11.1-4.3,15.3-0.1c2.1,2.1,3.3,5,3.2,8.1l0,0
		c0,2.5-1,5-2.7,6.9c0,0.3,0.1,0.6,0.1,0.9v19.6c0.8-0.9,1.6-1.7,2.6-2.4c0-0.7,0-1.5,0.1-2.2v-0.2c-0.1-1.3,0-2.6,0.3-3.9
		c-1.6-2-2.4-4.5-2.2-7.1c0-5.5,4.5-9.9,9.9-9.9c0.1,0,0.1,0,0.2,0h0.1c4.9-0.1,9.2,3.4,10.1,8.3c1.9-0.9,4-1.4,6.1-1.4
		c0.5,0,1,0.1,1.5,0.1c0.9-5.8,5.3-10.4,11-11.5c2.8-0.7,5.7-0.5,8.3,0.5c0.1-0.8,0.3-1.7,0.5-2.4c1.7-5.9,7.2-9.9,13.3-9.8
		c2.9-0.1,5.7,0.8,8.1,2.4c0.5-2.9,1.9-5.6,4.1-7.6c5.4-5.1,12.5-5.3,18-0.5c0.8-3.5,3-6.4,6.1-8.1c5.4-3.3,12.3-2.2,16.3,2.7
		c0.2-0.5,0.4-1,0.6-1.5c2.2-4.9,7.4-7.7,12.6-6.9c3.8,0.5,7.2,2.7,9.1,6.1c1.4-2.4,3.6-4.3,6.2-5.3c6.3-2.5,12.8,0.1,15.6,6.2l0,0
		c2.4,4.8,1.3,10.6-2.7,14.1v68.5c0,0.6,0,1.3-0.1,1.9c0,0.1,0,0.1,0,0.2c0.1,1.1,0.1,2.1-0.1,3.2c0.2,0.2,0.4,0.3,0.5,0.5
		c2.3,2.4,3.6,5.7,3.4,9c-0.1,6.3-4.1,10.8-10.8,11.9c-0.6,0.1-1.3,0.1-1.9,0.1c-4.7-0.5-8.2-2.8-10.1-6.2
		c-2.1,3.9-6.2,6.2-10.6,6.1l0,0c-5.9,0.2-11.1-3.9-12.1-9.7c-2,2.8-5.2,4.5-8.7,4.6c-6.7,0.4-11.8-4-12.4-10.6c-0.1-1-0.1-2,0.1-3
		c-1.9,3.1-5.1,5.1-8.8,5.5c-0.6,0.1-1.1,0.1-1.7,0c-6.4-0.6-10.6-5.2-10.7-11.4c-0.1-3,1.1-6,3.3-8.1c-0.1-0.3-0.2-0.7-0.2-1
		c-0.2-1.4-0.2-2.8-0.2-4.2v-0.7c0-12.3,0-24.6,0-36.9v-2.2c-1,2.4-2.7,4.4-4.8,5.9V207c0,0.3,0,0.7-0.1,1c1.7,2,2.7,4.6,2.7,7.2
		c0,5.6-3.7,9.9-9.5,10.8c-0.5,0.1-1,0.1-1.5,0.1c-6-0.2-10.8-5.2-10.6-11.2c0.1-2.5,1-5,2.7-6.9c-0.1-0.3-0.1-0.7-0.1-1v-19.6
		c-0.8,0.9-1.7,1.7-2.6,2.4c0,1.4,0,2.8-0.1,4.1c0,0.8-0.1,1.6-0.3,2.4c1.7,2.1,2.6,4.8,2.4,7.5l0,0c-0.3,5-4.1,9-9.1,9.5
		c-0.6,0.1-1.3,0.1-1.9,0c-5.3-0.7-8.8-4.1-9.4-8.7c-2.3,1.1-4.9,1.6-7.5,1.2c-1.4,7.9-9,13.1-16.9,11.7c-0.9-0.2-1.7-0.4-2.6-0.7
		c-0.5,5.5-4.4,10-9.7,11.4c-4.7,1.3-9,0.6-12.3-1.9c-0.2,1.7-0.7,3.4-1.5,4.9c-3,6-9.2,8.7-15.8,6.7c-1.9-0.5-3.7-1.5-5.2-2.8
		c-1,4.1-4,7.3-8,8.7c-5.7,2-11.2,0.5-14.6-3.7c-0.7,2.3-2,4.3-3.7,5.9C311.8,248.2,308.9,249.4,305.9,249.4z M292.8,228
		c1,0.9,1.8,1.9,2.4,3c0.7-1.1,1.6-2.2,2.5-3.1l0,0l0.2-0.2v-73.3c-1.2-0.9-2.2-2.1-2.9-3.4c-0.6,1.1-1.4,2.2-2.4,3.1
		c0.2,1.1,0.3,2.2,0.2,3.4v0.3c0,20.7-0.1,41.3-0.2,62L292.8,228z M513.6,227.8c0.3,0.2,0.5,0.5,0.8,0.7c0.7,0.7,1.2,1.5,1.7,2.3
		c0.5-0.9,1.1-1.7,1.7-2.4c0.2-0.2,0.4-0.4,0.6-0.6c-0.2-1.3-0.3-2.6-0.2-3.9c0-0.2,0-0.3,0-0.5c0-19.5-0.1-39.1-0.1-58.6v-11.7
		c-0.7-0.8-1.3-1.7-1.8-2.6c-0.6,1.2-1.4,2.3-2.4,3.2v67.4c0,0.3,0,0.5,0,0.8c0,0.9,0,1.9,0,2.8c0,0.1,0,0.2,0,0.3
		C513.8,226,513.8,226.9,513.6,227.8L513.6,227.8z M71.8,227.9c1,0.9,1.8,1.9,2.4,3c0.7-1.2,1.6-2.3,2.6-3.3v-73.3
		c-1.1-0.9-2-2.1-2.6-3.3c-0.6,1.1-1.3,2-2.2,2.8v68.3v0.8c0,1.1,0,2.3,0,3.4C72,226.8,71.9,227.4,71.8,227.9L71.8,227.9z
		 M270.8,224.2c0.8,0.7,1.5,1.6,2,2.5c0.7,1.2,1.1,2.4,1.4,3.8l0.1-0.2c0.6-0.8,1.2-1.6,2-2.2v-9.4c-0.1-20.3-0.1-40.7-0.1-61v-0.3
		c-0.1-1,0-2.1,0.2-3.1c-0.4-0.3-0.7-0.6-1-1c-0.6,2.8-2.1,5.4-4.4,7.1c0.2,1,0.2,2,0.2,3v0.3c0,17.4-0.1,34.8-0.2,52.3L270.8,224.2
		z M492,223.9c1.6,1.6,2.8,3.6,3.3,5.9c0.5-0.7,1.1-1.4,1.7-1.9c-0.2-1.1-0.2-2.2-0.1-3.3c0-0.1,0-0.2,0-0.3c0-7.9,0-15.9,0-23.8
		V154l-0.5-0.5c-0.7,2-1.8,3.8-3.3,5.3c-0.4,0.4-0.8,0.8-1.2,1.1v7.9c0,17.5,0.1,35,0.1,52.4v0.2C492.2,221.6,492.2,222.8,492,223.9
		z M314,227.9l0.4,0.4l0.6,0.7c0.1-0.6,0.3-1.3,0.5-1.9c0.7-1.9,1.9-3.6,3.5-4.9l0.1-55.7c0-0.2,0-0.4,0-0.6c-0.1-1.1,0-2.1,0.1-3.2
		v-0.3c-0.2-1.5-0.2-3,0.2-4.5c-1.7-1.7-2.8-3.9-3.1-6.3c-0.6,1-1.4,1.9-2.3,2.7c0.2,0.9,0.3,1.8,0.3,2.8v0.1
		c0,21.4,0,42.8-0.1,64.2L314,227.9z M93.2,227.9c0.2,0.2,0.4,0.4,0.7,0.6c0.7-2.6,2.2-4.9,4.4-6.5c-0.1-0.3-0.1-0.7-0.1-1
		c-0.1-1.4-0.1-2.9-0.1-4.3v-58.9c-1.6-1.5-2.7-3.5-3.2-5.6c-0.5,0.7-1,1.3-1.6,1.8L93.2,227.9L93.2,227.9z M249,217.1
		c2.9,2.9,3.9,7.2,2.6,11.1c0.2-0.5,0.5-1.1,0.8-1.6l0,0c0.5-0.9,1.2-1.7,2-2.4V216c-0.1-17.4-0.1-34.9-0.1-52.4v-0.3
		c-0.1-1,0-2,0.1-2.9l-0.2-0.2c-0.6,2.2-1.7,4.3-3.3,5.9c-0.5,0.5-1.1,1-1.6,1.5c0.1,0.9,0.2,1.8,0.1,2.8v0.2
		c0,13.5-0.1,27-0.1,40.5L249,217.1z M470.6,216.9c2,2,3.1,4.7,3.2,7.6l0,0c0,0.7,0,1.3-0.1,2c0.4-0.6,0.8-1.2,1.2-1.7
		c0.2-0.2,0.4-0.4,0.6-0.7c-0.2-1.1-0.3-2.2-0.3-3.3v-0.2c0.1-17.9,0.2-35.8,0.3-53.6v-6.6c-0.5,1.7-1.3,3.3-2.4,4.7l0,0
		c-0.6,0.8-1.3,1.5-2.1,2.1v7.2c0,12.2,0,24.3,0,36.5c0,1.5,0,3-0.1,4.6C470.8,215.9,470.7,216.3,470.6,216.9L470.6,216.9z
		 M535,225.1L535,225.1z M513.8,224.9L513.8,224.9z M336,221.8l0.2,0.2c0.7-3,2.4-5.6,4.9-7.4v-5.1c0-13.6-0.1-27.2-0.1-40.8v-0.3
		c-0.1-1.1,0-2.3,0.3-3.4c-2.2-2.3-3.3-5.4-3.1-8.6c0-0.7,0.1-1.3,0.3-2c-0.6,1.4-1.4,2.6-2.4,3.6c0.3,1.6,0.4,3.2,0.1,4.8
		c0,0.2,0,0.4-0.1,0.5c0.1,12.5,0.1,25.1,0.1,37.4c0,6.5,0,13,0,19.5c0,0.5,0,1,0,1.5L336,221.8z M115,157.5v7.8
		c0,17.1,0,34.2,0,51.3c0,1.3,0,2.9-0.1,4.5v0.1c0.6-2.1,1.8-4,3.3-5.5c0.4-0.5,0.9-0.9,1.4-1.3c-0.1-0.6-0.2-1.2-0.2-1.8
		c-0.1-1.1-0.1-2.2-0.1-3.1v-0.8l-0.1-44.4c-2.2-2.6-3.1-6-2.4-9.3C116.4,155.9,115.7,156.7,115,157.5z M492.1,220.3L492.1,220.3z
		 M112.2,220.3L112.2,220.3z M149.2,215.6L149.2,215.6L149.2,215.6L149.2,215.6L149.2,215.6z M141.1,200.8L141.1,200.8z
		 M208.8,194.2L208.8,194.2z M381.9,189.5L381.9,189.5z M319.4,162.2L319.4,162.2z M417.7,116.8c-15.7,0-28.3-9.1-33.2-23.9
		c-2.2-6.6-2.5-13.1-2.8-20.8c0-0.3,0-0.6,0-0.9c0.1-0.7,0.1-1.5,0.2-2.4c0.2-2.5,0.5-5.5,1-8.7c3-18.3,16.1-29.9,34.2-30.2h0.7
		c17.9,0,31.1,11,34.6,28.8c2.3,10.9,2,22.1-0.9,32.8c-4.2,15.3-16.9,25-33.2,25.3L417.7,116.8z M403.6,72.9
		c0.2,1.7,0.3,3.4,0.4,5.1c0,2.9,0.4,5.7,1.1,8.5c1.7,5.8,7.1,9.7,13.1,9.4c6.2-0.1,11.2-3.8,12.6-9.5c2.1-8.6,2.1-17.6,0-26.2
		c-1.4-5.8-6.2-9.4-12.6-9.5h-0.2c-5.9-0.1-11.2,3.7-12.8,9.4l0,0c-0.7,2.6-1,5.2-1.1,7.9C403.8,69.6,403.7,71.2,403.6,72.9z
		 M159.7,116.6c-3.9,0-7.7-0.7-11.4-2c-9.3-2.8-15.9-8.9-19-17.6c-1.1-1.7-1.7-3.7-1.6-5.7v-0.3l0,0V91c-1.2-6.5-1-12.7-0.9-18.8
		c0.1-2.9,0.2-5.7,0.1-8.4c-0.1-4-0.1-8-0.1-11.8c0-3.3,0-6.8,0-10.1c0-1.7-0.1-5.6,2.9-8.6c2-2,4.7-3,8.2-3c1.3,0,5.3,0.1,8.2,3
		c2,2.3,3.1,5.3,2.8,8.3c-0.1,11.2-0.1,22.6-0.2,33.7c0,3.7,0,7.4,0,11.1c0.7,3.4,2.9,6.4,6,8.1l1.4,0.6l0.5,0.1l1.5,0.2l5.6-0.5
		l1.1-0.4c2.1-1.1,3.9-2.8,5.1-4.9c0.1-0.5,0.3-1.1,0.6-1.6l0.1-10.3c0.1-11.7,0.2-23.3,0.3-35c0-0.3,0-0.5,0-0.8
		c0-2-0.1-5.7,2.8-8.7c2-2,4.8-3,8.3-3l0,0c3.6,0,6.4,1.1,8.3,3.1c2.9,3,2.7,6.7,2.6,8.7c0,0.3,0,0.5,0,0.8c0,13.5,0,26.9,0,40.4
		v1.3c0.2,3-0.3,5.9-1.4,8.7l-0.1,0.3c0,0.2-0.1,0.3-0.1,0.5c-0.1,0.2-0.1,0.4-0.2,0.6l-0.9,2.4c-3.2,8.8-9.8,14.8-19.2,17.5
		C167.4,115.9,163.6,116.6,159.7,116.6z M477.6,116L477.6,116c-3.1,0.1-6-0.9-8.1-3c-2.9-2.9-2.9-6.6-2.9-8.8V104
		c0-8.2,0-16.5,0-24.7c0-11.3,0-23,0.1-34.5c0-0.2,0-0.6-0.1-0.9c-0.2-2.1-0.7-5.9,2.1-9.2c1.9-2.3,4.7-3.6,8.3-3.9s6.5,0.5,8.6,2.5
		c0.1,0.1,0.3,0.3,0.4,0.4c6.3-3.1,13.3-4.4,20.3-3.7c17.5,1.5,29.2,13.3,29.8,30.3c0.3,9.4,0.3,18.9,0.2,28.1c0,5.4,0,11.1,0,16.6
		c0,6.7-3.9,10.8-10.6,11c-1.3,0-5.3,0.1-8.3-2.8s-3-7-2.9-8.5c0.2-15.9,0.2-28.1,0-39.5c-0.2-12-5.5-14-11.2-14.5
		c-3.2-0.2-7.7,0-10.8,2.8s-3.7,6.8-3.8,9.8c-0.3,10.2-0.2,20.6-0.2,30.7c0,3.3,0,6.6,0,9.9v0.4c0,2.2,0,5.8-2.8,8.6
		C483.5,115.1,480.6,116.2,477.6,116z M222.4,116H222c-7-0.2-11.1-4.3-11-11.2c0.1-20.1,0.1-41.2,0-62.7c0-1.7,0-5.6,2.9-8.5
		c2.2-2,5.1-3,8.1-2.8c1.6,0,5.8,0.1,8.7,3.4c10.8-5.5,22.1-5.8,31.2-0.7c0.2,0.1,0.4,0.2,0.6,0.3c1.9,0.8,5.7,2.3,7.2,6.5
		c0.9,2.8,0.5,5.9-1.1,8.4c-2,3.5-4.6,5.5-7.7,6.2c-5,1.1-9.1-1.8-10.4-2.7c-3-2.2-6.9-2.5-10.2-0.8c-3.4,1.7-7.1,5.9-7.3,12.5
		c-0.3,10.7-0.2,21.6-0.1,32.2c0,2.8,0.1,5.6,0.1,8.4c0,1.9,0,5.8-2.9,8.7C228,115.1,225.2,116.1,222.4,116z M290.1,116
		c-3,0.1-5.9-1-8.1-3c-3-3-2.9-7-2.9-8.8c0.1-7.4,0.1-15.1,0.1-22.4c0-2.9,0-5.8,0-8.6l0,0c0-2.9,0-5.8,0-8.7c0-7.3,0-14.9-0.1-22.3
		c0-1.6-0.1-5.5,2.8-8.4s6.8-3,8.1-3s5.1,0,8,2.9s2.9,6.7,2.9,8.5c-0.1,18.8-0.1,37.9,0,56.4v6.3c0,1.9,0.1,5.4-2.7,8.3
		c-2.1,2-4.9,3.1-7.8,2.9L290.1,116z M107.9,116c-1,0-2-0.1-3-0.3c-2.3,0.1-4.5-0.8-6.1-2.5c-1.8-1.9-2.5-4.6-2-7.2
		c0-2.2,0-4.3-0.1-6.5c-0.1-5.3-0.2-10.7-0.1-16.2c-6.6,0.2-13.5,0.2-21.6,0c0,2.7,0,5.3,0,7.9c0,4.3-0.1,8.3,0.1,12.3
		c0.1,1.7,0.3,7-3.8,10.3c-2.3,1.9-5.3,2.6-8.9,2c-2.3,0.3-4.7-0.4-6.5-2c-2.1-1.9-3.1-4.7-2.6-7.5V40.1c-0.8-4.5,2.3-8.8,6.8-9.5
		c1.1-0.2,2.2-0.1,3.2,0.1h2.4c2.8-0.4,5.5,0.6,7.4,2.7c1.7,2,2.3,4.7,1.7,7.2c0,2.1,0.1,4.2,0.1,6.2c0.1,5.1,0.2,10.3,0.1,15.5
		c7.3-0.2,14.5-0.2,21.6,0c-0.1-5.2,0-10.5,0.1-15.6c0-2.1,0.1-4.3,0.1-6.4C96.3,37.7,97,35,98.8,33c1.6-1.7,3.8-2.6,6.1-2.5
		c2.3-0.4,6.4-0.8,9.7,1.9c4.1,3.3,4,8.8,4,10.6c-0.3,19.8-0.3,40,0,60.1c0,1.8,0.1,7.3-4,10.6C112.7,115.3,110.3,116.1,107.9,116z
		 M98.4,36.8L98.4,36.8z M366.4,116h-0.3c-13.1-0.1-27.1-0.1-43.9,0c-1.5,0-6.1,0-8.8-3.8c-1.6-2.2-2-5-1.3-7.6v-0.9
		c-0.8-5.3,2.6-8.6,4.3-10.2l31.2-42h-21.9H325c-1.8,0-5.6,0.2-8.5-2.8c-2-2.2-2.9-5.1-2.6-8.1c0.6-8.9,7.2-9.8,10-9.8
		c14,0.1,28.5,0.1,43.2,0c2.7-0.1,5.4,0.9,7.3,2.8c2.8,2.8,2.7,6.5,2.6,7.8c-0.1,2.5-0.2,6.2-2.9,9.8c-10.7,14-21.6,28.2-32.1,41.9
		l-1.5,1.9c8.6,0,17.1,0,25.2,0c2.2,0,5.7,0,8.5,2.8c1.9,2,3,4.8,2.8,7.6c0.1,2.9-0.9,5.7-2.9,7.7
		C372.2,115.1,369.3,116.2,366.4,116z"/>
</g>
<g id="Layer_1_1_">
	<path class="st1" d="M65.8,150.6c0,23.9,0,47.9,0,71.8c0,1.3,0,2.7,0,4c0,0.9-0.5,1.8-1.4,1.8s-1.4-0.8-1.4-1.7c0-1.3,0-2.7,0-4
		v-71.8L65.8,150.6z"/>
	<path class="st1" d="M528.8,150.7c0,24.1,0,48.1,0,72.2c0,0.3,0,0.7,0,1c-0.3,1.5,0.9,4.1-1.4,4c-2,0-1.5-2.6-1.5-4.2
		c-0.1-24.4-0.1-48.8-0.1-73.2L528.8,150.7z"/>
	<path class="st1" d="M507.6,150.6c0,23.6,0,47.3,0,70.9c0.1,1,0.1,2,0,3c-0.1,1.4,0.5,3.5-1.7,3.4c-1.7-0.1-1.1-2.1-1.1-3.3
		c0-10.5,0-21,0-31.5c0-14.2,0-28.3,0-42.5L507.6,150.6z"/>
	<path class="st1" d="M284,231.8c-0.1-24.6-0.1-49.2-0.2-73.8c0-1.2-0.4-3.2,1.5-3.1s1.4,1.9,1.4,3.2c-0.1,24.6-0.1,49.2-0.2,73.8
		L284,231.8z"/>
	<path class="st1" d="M192.8,191.7c-0.1,4.3-3.7,7.8-8,7.7c-4.3-0.1-7.8-3.7-7.7-8c0.1-4.3,3.7-7.8,8-7.7c0,0,0,0,0,0
		c4.2,0,7.7,3.4,7.7,7.7C192.8,191.5,192.8,191.6,192.8,191.7z"/>
	<path class="st1" d="M414.6,191.2c0,4-4.1,8.1-8,8s-7.8-4.2-7.7-8.2s4.1-8.1,8-8S414.6,187.1,414.6,191.2z"/>
	<path class="st1" d="M326.8,226.3c0-19.8,0.1-39.6,0.1-59.4c-0.1-1-0.1-2,0-3c0.4-1.8-1.2-4.9,1.6-4.9c2.2,0,1.2,3,1.2,4.6
		c0.1,19,0,38,0.1,56.9c0,2-0.4,4,0.8,5.8L326.8,226.3z"/>
	<path class="st1" d="M108.7,154.6v62.3c0,1.3,0,2.7-0.1,4c-0.1,0.9-0.5,1.6-1.6,1.5c-0.7-0.1-1.2-0.7-1.1-1.4
		c-0.1-1.3-0.1-2.6-0.1-4v-62.3L108.7,154.6z"/>
	<path class="st1" d="M485.7,156.4c0.1,21.4,0.1,42.8,0.1,64.2c0,1.2,0.7,3.1-1.2,3.3s-1.7-1.7-1.6-3c0.1-21.6,0.2-43.2,0.3-64.7
		L485.7,156.4z"/>
	<path class="st1" d="M262,227.8c-0.1-21.3-0.1-42.6-0.2-63.9c0-1.2-0.4-3.2,1.4-3.2s1.4,1.9,1.4,3.2c0,21.3-0.1,42.6-0.2,63.9
		L262,227.8z"/>
	<path class="st2" d="M200.7,171.5c4.2-0.2,7.7,3,7.9,7.1c0.2,4.2-3,7.7-7.1,7.9c-0.1,0-0.2,0-0.3,0c-4.2,0.2-7.7-3-7.9-7.1
		c-0.2-4.2,3-7.7,7.1-7.9C200.5,171.6,200.6,171.6,200.7,171.5L200.7,171.5z"/>
	<path class="st2" d="M176.6,204.2c-0.1,4.2-3.6,7.5-7.8,7.4c-4.2-0.1-7.5-3.6-7.4-7.8s3.6-7.5,7.8-7.4
		C173.4,196.6,176.7,200,176.6,204.2z"/>
	<path class="st3" d="M420.8,185.8c-3.9-1.4-5.9-4.2-5.4-8.3c0.3-3.1,2.7-5.6,5.7-6.1c3-0.8,6.1,0.5,7.7,3.1c3,4.3,1,8.9-4.9,11.6
		L420.8,185.8z"/>
	<path class="st3" d="M392.7,196.3c3.5,1.2,5.5,3.6,5.6,7.3c0.1,2.9-1.7,5.6-4.4,6.7c-2.6,1.3-5.7,0.8-7.9-1.1
		c-4.6-3.8-2.9-10.2,3.5-13.1L392.7,196.3z"/>
	<path class="st2" d="M149.9,223c-3.8-0.1-6.9-3.2-7.1-7c0.1-4,3.4-7.2,7.4-7.2c3.9,0.2,7,3.6,6.7,7.5
		C156.8,220.1,153.7,223,149.9,223L149.9,223z"/>
	<path class="st2" d="M220.1,160.5c3.7-0.1,6.8,2.9,6.8,6.6c0,0.1,0,0.3,0,0.4c0.1,3.8-3,6.9-6.8,7c0,0-0.1,0-0.1,0
		c-3.9,0-7.1-3.1-7.1-7.1c0-0.1,0-0.2,0-0.3c0.1-3.8,3.2-6.7,6.9-6.7C220,160.5,220.1,160.5,220.1,160.5z"/>
	<path class="st3" d="M373,208.2c3.7,1.3,6.1,3.6,5.7,7.7c-0.1,2.8-2,5.1-4.7,5.8c-3.9,1.1-6.9-0.1-8.6-3.9c-1.8-3.9,0-7.1,5.1-9.6
		L373,208.2z"/>
	<path class="st3" d="M440.6,173.8c-0.9-0.4-1.8-0.8-2.6-1.3c-2.6-1.9-3.8-4.6-2.8-7.8c1.1-3.7,5-5.8,8.6-4.7c2.2,0.7,4,2.4,4.7,4.7
		c1,3.2-0.1,5.9-2.8,7.8c-0.8,0.5-1.7,1-2.6,1.4L440.6,173.8z"/>
	<path class="st1" d="M348.9,218.8c-0.1-16.6-0.1-33.2-0.1-49.8c0-1.3-0.3-3.1,1.5-3.1s1.4,1.9,1.4,3.2c0,16.6-0.1,33.2-0.2,49.8
		L348.9,218.8z"/>
	<path class="st1" d="M464.8,163.7c0,15.8,0,31.6,0,47.4c0,1.3,0,2.7-0.1,4c-0.1,0.9-0.6,1.7-1.5,1.4c-0.6-0.3-1-0.8-1.1-1.4
		c-0.1-1.3-0.2-2.7-0.1-4c0-15.8,0-31.6-0.1-47.4H464.8z"/>
	<path class="st1" d="M129.9,161.7v47.4c0,1.2,0,2.3,0,3.5c0,0.8-0.2,1.8-1.2,1.9c-1.3,0.1-1.5-1-1.6-2s0-2.3,0-3.5l-0.1-47.4
		L129.9,161.7z"/>
	<path class="st1" d="M240.3,220.9c-0.1-16.7-0.2-33.3-0.2-49.9c0-1.2-0.1-3.1,1.7-3c1.6,0.1,1.1,1.8,1.1,2.8
		c0,16.6-0.1,33.3-0.2,49.9L240.3,220.9z"/>
	<path class="st1" d="M87,150.7v77.2h-2.4c0-25.7,0-51.4,0-77.1L87,150.7z"/>
	<path class="st1" d="M305.7,231.7v-76.9c2.5,0.3,2.2,1.7,2.2,2.8c0,24.7-0.1,49.5-0.2,74.2L305.7,231.7z"/>
	<path class="st2" d="M128.7,218.8c3.7,0.1,6.5,3.2,6.4,6.9c0,0,0,0,0,0c-0.1,3.6-3.1,6.3-6.7,6.2c-0.1,0-0.2,0-0.3,0
		c-3.8-0.4-6-2.7-6.1-6.5C122.1,221.7,125.1,218.8,128.7,218.8z"/>
	<path class="st2" d="M248.2,157c0.1,3.6-2.7,6.6-6.2,6.7c-0.1,0-0.1,0-0.2,0c-3.5,0.2-6.5-2.6-6.7-6.1c0-0.1,0-0.3,0-0.4
		c0.2-3.8,2.3-6.1,6.2-6.5c3.6-0.3,6.7,2.4,6.9,6C248.2,156.8,248.2,156.9,248.2,157z"/>
	<path class="st3" d="M464.8,163.7h-3c-1.2-0.8-2.7-1.4-3.6-2.6c-2.2-2.9-2-6,0.6-8.5c2.8-2.7,6-2.7,8.9,0c2.7,2.5,2.9,5.6,0.6,8.5
		C467.4,162.2,466,162.8,464.8,163.7z"/>
	<path class="st3" d="M348.9,218.8l2.6,0.1l0.1,0.1l1,0.5c3.8,2,5.3,5,3.3,9c-1.5,3.1-4.4,4.1-7.5,3.1c-3.5-1-5-3.7-4.5-7.2
		C344.1,221.3,346.5,220,348.9,218.8z"/>
	<path class="st3" d="M485.7,156.4l-2.4-0.2c-1.9-0.8-3.6-1.9-4.3-3.9c-1-3-0.3-5.7,2.5-7.3c2.6-1.8,6.1-1.1,7.9,1.5c0,0,0,0,0,0.1
		c1.9,2.3,1.7,5.7-0.5,7.6C487.9,155,486.8,155.8,485.7,156.4z"/>
	<path class="st2" d="M263.5,156.6c-3.8-0.3-6.1-2.2-6.2-5.9s2.1-6,5.9-6.1s6,2.2,6.1,5.8S267,156.1,263.5,156.6z"/>
	<path class="st2" d="M107.2,226.5c3.7,0.4,6,2.4,5.9,6.1s-2.4,5.9-6.1,5.9s-6-2.3-5.9-6S103.6,226.9,107.2,226.5z"/>
	<path class="st3" d="M326.8,226.3l3.8,0.1c2.6,1.3,4.2,3.3,3.9,6.3c-0.2,2.2-1.6,4.1-3.8,4.9c-3.3,1.2-6.1,0.3-7.5-2.9
		C321.5,230.9,323,228,326.8,226.3z"/>
	<path class="st1" d="M151.7,170.5c0,10.1,0,20.2,0,30.4c0,1.5,0.6,4-1.7,3.9c-2-0.1-1.1-2.4-1.1-3.7c-0.1-10.1,0-20.2,0-30.4
		L151.7,170.5z"/>
	<path class="st3" d="M507.6,150.6l-2.9,0.1c-3.2-1.7-5-4-3.3-7.7c0.9-2.1,3.1-3.3,5.3-2.9c2.1,0.2,3.8,1.6,4.3,3.6
		C512.1,147.1,510.3,149.1,507.6,150.6z"/>
	<path class="st1" d="M218.7,211.4c0-9.6,0-19.3,0.1-29c0-1.4-0.7-3.6,1.4-3.6s1.5,2.2,1.4,3.6c0,9.8-0.2,19.6-0.3,29.4L218.7,211.4
		z"/>
	<path class="st3" d="M528.8,150.7l-2.9-0.1c-4.5-3.5-4.7-8.4-0.3-10.1c2.9-1.1,5.4-0.1,6.7,2.6C533.9,146.6,532,149.1,528.8,150.7z
		"/>
	<path class="st3" d="M305.7,231.7l2.1,0.1c0.8,0.5,1.6,1.1,2.4,1.7c2.5,2.6,2.5,5.4-0.1,7.8c-1.8,1.9-4.8,2-6.8,0.2
		c-0.1-0.1-0.2-0.2-0.3-0.4c-2.5-2.5-2.3-5.3,0.3-7.8C304,232.7,304.8,232.1,305.7,231.7z"/>
	<path class="st2" d="M307.2,150.6c-3.8-0.2-5.8-2.1-5.9-5.3s2.1-5.3,5.3-5.2c2.7-0.1,5,1.9,5.1,4.6c0,0.1,0,0.3,0,0.4
		C312,148.4,309.9,150,307.2,150.6z"/>
	<path class="st3" d="M284,231.8l2.5,0.1c1.3,0.9,2.9,1.6,3.5,3.3c1.2,2.3,0.3,5.2-1.9,6.5c-1.9,1.5-4.7,1.4-6.4-0.4
		c-2.1-1.8-2.7-4.2-1-6.6C281.7,233.6,282.8,232.6,284,231.8z"/>
	<path class="st3" d="M87,150.7l-2.3,0.1c-1.4-0.5-2.6-1.5-3.4-2.7c-1.2-2.4-1.1-4.8,1.1-6.7c2-1.9,5.1-1.8,7,0.1
		c0,0,0.1,0.1,0.1,0.1c2,1.7,2.3,4.7,0.6,6.7c0,0,0,0,0,0C89.1,149.2,88.1,150.1,87,150.7z"/>
	<path class="st3" d="M65.8,150.6h-2.9c-1.5-0.7-2.7-1.9-3.5-3.3c-1.1-2.7,0.3-5.8,3-6.8c1.9-0.7,4-0.4,5.4,1
		c1.9,1.5,2.5,4.2,1.2,6.3C68.2,148.9,67.1,150,65.8,150.6z"/>
	<path class="st2" d="M64.2,232c3.3,0.4,5.4,2.1,5.4,5.4c0.2,2.7-1.9,5-4.5,5.1c-0.1,0-0.3,0-0.4,0c-2.7,0.4-5.1-1.5-5.5-4.2
		c0-0.3,0-0.5,0-0.8C58.9,234.1,61.1,232.5,64.2,232z"/>
	<path class="st2" d="M91,237.1c-0.1,3.2-1.8,5.2-4.9,5.3c-3.3,0.2-5.4-1.8-5.5-5.1c-0.3-2.6,1.6-4.9,4.1-5.2c0.2,0,0.5,0,0.7,0
		C88.6,232,90.6,233.8,91,237.1z"/>
	<path class="st2" d="M290.6,145.4c-0.7,3.1-2.3,5.3-5.7,5.1c-2.6,0.1-4.8-2-4.9-4.6c0-0.2,0-0.3,0-0.5c0-3.3,2.1-5.3,5.3-5.3
		S290.1,142.4,290.6,145.4z"/>
	<path class="st2" d="M527.7,242.6c-3.1-0.3-5.1-1.8-5.3-5c-0.2-3.4,1.8-5.5,5.1-5.5s5.3,1.9,5.2,5.4
		C532.6,240.7,530.5,242.1,527.7,242.6z"/>
	<path class="st2" d="M500.8,237.3c0.3-3.4,2.3-5.3,5.4-5.2s5.2,2.2,5.1,5.5c0.1,2.7-2.1,4.9-4.7,4.9c-0.1,0-0.3,0-0.4,0
		C502.9,242.5,501.2,240.5,500.8,237.3z"/>
	<path class="st2" d="M489.5,232.6c-0.3,2.7-1.6,4.7-4.5,4.9s-4.8-1.3-5.1-4.2c-0.3-3.2,1.6-5.1,4.6-5.2
		C487.4,227.9,489,229.8,489.5,232.6z"/>
	<path class="st3" d="M108.7,154.6l-2.9,0.1c-3.4-2-4.8-4.7-2-8c2.1-2.4,4.9-2.3,6.9,0.1C113.3,150,111.8,152.5,108.7,154.6z"/>
	<path class="st2" d="M333.4,149.9c-0.5,2.7-1.9,4.7-4.9,4.6s-4.7-1.7-4.6-4.7c-0.2-2.4,1.7-4.6,4.1-4.7c0.2,0,0.4,0,0.6,0
		C331.5,145.1,333,147.1,333.4,149.9z"/>
	<path class="st3" d="M262,227.8h2.4c1,0.9,2.3,1.6,2.9,2.6c1.3,2.3,0.4,5.2-1.8,6.4c-2.3,1.3-5.2,0.4-6.4-1.8
		c-0.8-1.4-0.8-3.2,0-4.6C259.8,229.4,261.1,228.7,262,227.8z"/>
	<path class="st2" d="M463.3,229.5c-2.7-0.3-4.3-1.7-4.4-4.4c-0.1-2.1,1.5-4,3.6-4.2c0.1,0,0.3,0,0.4,0c2.2-0.3,4.3,1.3,4.6,3.5
		c0,0.2,0,0.4,0,0.6C467.6,227.7,465.9,229.1,463.3,229.5z"/>
	<path class="st1" d="M440.6,173.8h2.4v33.5h-2.4V173.8z"/>
	<path class="st1" d="M373,208.2h-2.5V175h2.5V208.2z"/>
	<path class="st3" d="M240.3,220.9l2.4-0.1c2.5,1.5,4.2,3.5,2.5,6.5c-1.1,2-3.6,2.7-5.6,1.6c-0.9-0.5-1.5-1.3-1.9-2.2
		C236.8,224.1,238.1,222.2,240.3,220.9z"/>
	<path class="st2" d="M350,161.7c-2.6-0.4-4.2-1.9-4-4.7c0-2.2,1.7-3.9,3.9-3.9c0.1,0,0.3,0,0.4,0c2.2-0.1,4.1,1.6,4.2,3.8
		c0,0.3,0,0.6,0,0.8C354.2,160.2,352.5,161.5,350,161.7z"/>
	<path class="st3" d="M129.9,161.7l-3-0.1c-1.9-1.3-3.2-2.9-2.4-5.4c0.7-2.2,3.1-3.4,5.3-2.7c1.1,0.3,1.9,1.1,2.5,2.1
		C133.7,158.4,132.1,160.2,129.9,161.7z"/>
	<path class="st3" d="M218.7,211.4l2.7,0.5c2.2,1.7,3.5,3.6,1.5,6.2c-1,1.4-2.9,1.8-4.4,0.9c-1.9-1.1-2.8-2.8-1.8-4.9
		C217.2,213.1,217.9,212.2,218.7,211.4z"/>
	<path class="st2" d="M441.9,219.5c-2.3-0.1-3.8-1.4-4-3.6c-0.1-2.1,1.6-3.9,3.7-3.9c2.1-0.1,3.9,1.6,3.9,3.7
		C445.6,217.9,444.1,219.1,441.9,219.5z"/>
	<path class="st2" d="M371.7,170.7c-2.3-0.2-3.7-1.5-3.7-3.9c0-2.1,1.8-3.8,3.9-3.7c2.1,0,3.8,1.8,3.7,3.9
		C375.5,169.3,374.1,170.6,371.7,170.7z"/>
	<path class="st3" d="M151.7,170.5l-2.9,0.2c-1.8-1.3-3.3-2.8-2.1-5.4c0.9-1.9,3.1-2.6,5-1.7c0.7,0.4,1.4,1,1.7,1.7
		C154.5,167.6,153.2,169.1,151.7,170.5z"/>
	<path class="st2" d="M394.2,179.5c-0.4,2.1-1.6,3.3-3.8,3.1c-1.7-0.1-2.9-1.5-2.8-3.2c0-0.1,0-0.2,0-0.3c-0.1-1.6,1.1-3,2.7-3.1
		c0.1,0,0.3,0,0.4,0C392.9,176,394.1,177.3,394.2,179.5z"/>
	<path class="st2" d="M422.9,206.6c-2.4-0.3-3.6-1.5-3.5-3.6c0-1.7,1.3-3,3-3c0.1,0,0.2,0,0.3,0c1.7-0.1,3.2,1.3,3.3,3
		c0,0.2,0,0.4,0,0.6C425.9,205.6,424.5,206.4,422.9,206.6z"/>
	<path class="st3" d="M167.8,182.6c-1.5-1.6-3.1-3.2-1-5.4c1-1.3,2.9-1.5,4.1-0.4c0.1,0.1,0.2,0.1,0.2,0.2c2.1,1.9,1.1,3.8-0.6,5.4
		L167.8,182.6z"/>
	<path class="st3" d="M202.7,200.5c1.7,1.8,2.1,3.7,0,5.4c-1.1,1-2.8,0.9-3.8-0.2c-0.1-0.1-0.1-0.1-0.1-0.2c-2-2.1-1.1-3.8,0.8-5.3
		L202.7,200.5z"/>
	<path class="st1" d="M420.8,185.8l3.2,0.3c0,2.6,0,5.3-0.1,7.9c0,0.8,0,1.8-1.2,1.8s-1.4-0.9-1.5-1.7
		C421.1,191.4,421,188.6,420.8,185.8z"/>
	<path class="st1" d="M167.8,182.6l2.8-0.2c0,2.3,0.1,4.6,0.1,6.9c0,1.2,0.3,3-1.6,2.9c-1.6-0.1-1.3-1.7-1.3-2.8
		C167.7,187.2,167.8,184.9,167.8,182.6z"/>
	<path class="st1" d="M202.7,200.5l-3.1-0.3c0-1.8-0.1-3.7,0-5.5c0.1-1.4-0.7-3.7,1.2-3.7c2.3,0,1.5,2.5,1.6,4
		C202.7,196.8,202.6,198.7,202.7,200.5z"/>
	<path class="st1" d="M392.7,196.3l-3.2-0.2c0-2,0-3.9,0.1-5.9c0.1-1.2-0.6-3.2,1.2-3.2c2,0,1.6,2.1,1.7,3.4
		C392.6,192.4,392.6,194.4,392.7,196.3z"/>
</g>
<path class="st4" d="M178.3,92l-0.9,0.2c0,0,0,0,0,0L178.3,92L178.3,92z M184.3,94.9 M178.3,92l-0.9,0.2c0,0,0,0,0,0L178.3,92
	L178.3,92z M259.3,39.9c-9.3-5.3-21.6-3-32.6,6c-0.1-1.2-0.1-2.5,0-3.8c0.5-3.3-1-4-4.1-4.1c-3.4-0.1-3.9,1.3-3.9,4.3
	c0.1,20.9,0.1,41.9,0,62.8c0,3.2,1,4.1,4.2,4.2c3.6,0.1,3.9-1.6,3.9-4.5c-0.1-13.6-0.3-27.2,0.1-40.9c0.4-16,16.3-25.7,28.5-17.2
	c4.1,2.9,6.3,1.8,8.1-1.3C265.7,41.5,261.3,41,259.3,39.9z M294.7,42.3c0-3-0.4-4.3-3.9-4.3c-3.5,0-4,1.3-3.9,4.3
	c0.2,10.4,0.1,20.8,0.1,31.1s0,20.8-0.1,31.2l0,0c0,3.2,0.4,4.8,4.2,4.7s3.6-2.2,3.6-4.7C294.7,83.8,294.6,63.1,294.7,42.3z
	 M529.8,60.8c-0.4-13.6-9.8-22.4-23.4-23.5c-8.6-0.9-17.1,1.9-23.5,7.7c-1.8-2.5,1.5-7.4-4.7-6.9v0c-5.6,0.5-3.8,4.2-3.9,7
	c-0.1,19.7,0,39.5-0.1,59.2c0,2.9-0.2,5,4,5c4.2,0,3.9-2.2,3.9-5c0-13.6-0.2-27.3,0.2-40.9c0.4-13.2,9-20.4,22.1-19.4
	c11.4,0.9,17.5,8,17.7,21.4c0.2,13.4,0.1,26.4,0,39.7c0,3.1,0.7,4.3,4.1,4.2c3-0.1,3.8-1.1,3.8-3.9
	C529.9,90.5,530.3,75.7,529.8,60.8z M446.4,60.4C443.5,45.5,432.8,37,418,37.2c-14.6,0.2-25,9.4-27.4,24.3c-0.6,4-0.9,8.1-1.1,10.7
	c0.2,7.3,0.5,13.2,2.4,18.9c4,12.2,14.1,19.3,27.2,19.1c13.1-0.3,23.1-7.8,26.6-20.2C448.2,80.3,448.5,70.2,446.4,60.4z M438.2,88.4
	c-2.2,8.9-10.1,14.7-19.3,14.8c-9.1,0.3-17.2-5.6-19.8-14.2c-1.7-5.3-1.2-10.9-1.9-15.7c0.7-5.4,0.3-10.2,1.9-15.1
	c2.6-8.7,10.8-14.5,19.8-14.2c9.3,0.1,17.1,5.8,19.3,14.8C440.6,68.5,440.6,78.7,438.2,88.4z M112.4,103.7c0,6,0.8,5.4-6,5.3
	c0,0-0.3,0-0.3,0h0c-1.5,0-1.5,0.1-1.5-2c-0.1-8.5-0.3-17-0.1-25.4c0-3.5-0.4-5.2-4.5-5c-8.9,0.3-17.8,0.2-26.8,0
	c-3.6-0.1-4.5,1.1-4.4,4.5c0.2,7.7,0.1,15.4,0.1,23.1c0,5.7-0.2,5-5.4,4.9c-2.1,0.1-2.4,0.7-2.4-2h0c0,0,0-66.5,0-67.1
	c0.1-1.8,0.3-1.9,2.2-1.9h3.6c1.8,0,1.8,0.7,1.7,2c0,0.4,0.3,16.7,0.1,25c-0.1,3.7,1,4.9,4.8,4.8c8.7-0.3,17.4-0.3,26.1,0
	c3.8,0.2,4.8-1.2,4.8-4.8c-0.2-8.3,0.1-16.6,0.2-24.9c0.1-0.9-0.1-2.1,1.5-2c0.4,0,0.6,0,0.6,0c6.4-0.5,5.8,0.1,5.7,5.4
	C112,63.5,112.2,83.6,112.4,103.7z M366.7,102.3c-11,0.1-22,0.1-33,0c-1.8,0-3.7,0.2-5.4-1.3c-0.3,0.5,27.4-35.9,41.1-53.8
	c1.4-1.8,1.4-3.7,1.5-5.7s-0.3-3.4-2.9-3.4c-14.4,0.1-28.9,0.1-43.3,0c-2.6,0-2.9,1.2-3,3.3c-0.3,4,2.3,3.4,4.8,3.4h35.8l-40,53.7v0
	c-3.4,4.3-2.9,6.9-2.9,6.9c0,2.6,1,3.8,3.5,3.8h0c14.7-0.1,29.3-0.1,44,0c2.7,0,4.1-0.4,4.1-3.6C371,102.3,369.1,102.3,366.7,102.3z
	 M185.5,91.2l-0.2,1.2c-0.4,1.3-0.9,2.5-0.9,2.5c0.5-1.2,0,0,0,0c-2.6,7.1-7.7,11.3-14.8,13.3h0c-5.7,2.1-11.8,2.1-17.5,0h-0.8
	c-7.5-2.2-12.7-6.8-15-14.4c-0.5-1.5-0.4-1.1-0.8-2.6l-0.2-1.2c0,0,0,0,0,0c-1.6-8.7-0.4-17.4-0.7-26.1c-0.2-7.3,0.1-14.6-0.1-21.9
	c-0.1-3,0.5-4.4,3.9-4.4c3.3,0,4.1,1.1,4.1,4.3h0c-0.2,15.2-0.1,30.5-0.2,45.7c0,0,0,0,0,0c1.3,6.1,4.5,10.8,10.1,13.7
	c0,0,0,0,0,0.1l2.4,0.9l0,0l1.2,0.2c0,0,0,0,0,0.1l2.4,0.4c0,0,0,0,0-0.1l7.3-0.6c0,0,2.1-0.6,2.5-0.9c3.9-2,7-5.1,9-9.1l0.2-0.2
	l0.2-0.5l0.1-0.3c0,0,0.6-32.5,0.7-48.1c0-2.9-0.6-5.5,4.1-5.5c4.9,0,3.9,3,3.9,5.6V84C186.6,86.5,185.5,91.2,185.5,91.2z"/>
</svg>
