<svg xmlns="http://www.w3.org/2000/svg" viewBox="0 0 595.28 297.19"><defs><style>.cls-1{fill:#fff;}.cls-2{fill:#a4a4a4;}.cls-3{fill:#95c022;}.cls-4{fill:#af1510;}.cls-5{fill:#41413f;}</style></defs><g id="Layer_3" data-name="Layer 3"><path class="cls-1" d="M305.85,249.4a12.09,12.09,0,0,1-8.59-3.71,14,14,0,0,1-2.11-2.66,13.35,13.35,0,0,1-3.63,3.94,11.69,11.69,0,0,1-15.15-.78,12.52,12.52,0,0,1-4.16-7.06,12.07,12.07,0,0,1-2,2.18A11.74,11.74,0,0,1,251.29,229a13,13,0,0,1-.64,1.36,11.15,11.15,0,0,1-20.29-1.72,11.07,11.07,0,0,1,2.16-11.26l0-6.65q-.11-19.24-.19-38.51a14,14,0,0,1-4.57,6.12,13.43,13.43,0,0,1,.14,3.52c0,.12,0,.24,0,.35,0,7.42-.11,14.87-.19,22.32l0,4.14a10.31,10.31,0,0,1-.09,13.46,10.27,10.27,0,0,1-13.32,2.64c-5.27-3-7.15-8.8-4.57-14.08h0a12.59,12.59,0,0,1,1.28-2.08V204c0-5.06,0-10.24,0-15.42l0,0a15.64,15.64,0,0,1-2.32,2,13.08,13.08,0,0,1,.18,3.25c0,.12,0,.23,0,.34.1,1.25.13,2.44.15,3.59a9.91,9.91,0,0,1-2.51,13.2A9.7,9.7,0,0,1,193,210a10.7,10.7,0,0,1-2.79-5.15,15.36,15.36,0,0,1-6.22,1.2c-.42,0-.83,0-1.23-.07a14.61,14.61,0,0,1-14.78,12.26,14.7,14.7,0,0,1-4.77-.91,14.26,14.26,0,0,1-14.1,12.33,14.06,14.06,0,0,1-7.83-2.55,13.65,13.65,0,0,1-4.51,8.19,13.14,13.14,0,0,1-10,3.2,14,14,0,0,1-7.74-3.08,12.46,12.46,0,0,1-12.57,9.72h-.24A13.05,13.05,0,0,1,97,241.45c-.15-.15-.3-.31-.44-.47a11.67,11.67,0,0,1-10.82,8.17,12.25,12.25,0,0,1-9-3,11.28,11.28,0,0,1-2.39-3.09,11.91,11.91,0,0,1-10.12,6.11,11.91,11.91,0,0,1-12.85-11.65h0a11.6,11.6,0,0,1,4-9.68,11,11,0,0,1-.16-1.43c-.06-1.29-.06-2.53-.05-3.73V153.91a12.31,12.31,0,0,1-2.94-4.22A12.26,12.26,0,0,1,71.75,136a13.26,13.26,0,0,1,2.5,3,12.48,12.48,0,0,1,2.82-3.3,11.92,11.92,0,0,1,16.39.53,12.19,12.19,0,0,1,3.65,6.34c.2-.26.42-.53.65-.8a11.21,11.21,0,0,1,8.76-4.19,11.55,11.55,0,0,1,8.82,4.44h0a11.54,11.54,0,0,1,2.83,9.16c0,.13,0,.27-.07.4a10.81,10.81,0,0,1,8.78-5.59,11.18,11.18,0,0,1,9.31,18.58v45.82a14.61,14.61,0,0,1,3.37-4.91,16,16,0,0,1,1.41-1.2,13.12,13.12,0,0,1,.05-3.35c0-.1,0-.19,0-.28-.05-7.68,0-15.48,0-23v-4.23A10.23,10.23,0,0,1,139.61,162a10.74,10.74,0,0,1,19.32,0h0a10,10,0,0,1-1,10.81v4.82c0,5.18,0,10.49,0,15.79a15,15,0,0,1,2.18-1.79,12.28,12.28,0,0,1-.12-2.15v-.22c0-1.55,0-3.07,0-4.56-4.11-6.05-.89-10.74.86-12.62a9.91,9.91,0,0,1,14.23-.6,10.14,10.14,0,0,1,3.35,6,15.18,15.18,0,0,1,6.06-1.1c.41,0,.81,0,1.21.07a14.42,14.42,0,0,1,3.81-7.65,14.58,14.58,0,0,1,10.29-4.6,14.22,14.22,0,0,1,5.51,1,13.78,13.78,0,0,1,14.17-12,14.12,14.12,0,0,1,7.92,2.47,13.15,13.15,0,0,1,12.48-12.19h0a13.15,13.15,0,0,1,9.95,3.3l.07.05c1.34-5.62,6-9.37,12.32-9.48a12.72,12.72,0,0,1,10.37,4.45,11.64,11.64,0,0,1,2.95-5.37,12.37,12.37,0,0,1,8.87-3.6h0a11.52,11.52,0,0,1,10.65,6.13,11.54,11.54,0,0,1,2-2.67,12.29,12.29,0,0,1,8.8-3.49H306a11.74,11.74,0,0,1,11.88,10.28,11.48,11.48,0,0,1,9.89-5.29h.09c6,0,10.6,4.18,11.7,10.67a7,7,0,0,1,0,2.58c-.06.28-.12.56-.19.83a10.79,10.79,0,0,1,10.42-6A11,11,0,0,1,360.66,158h0a11,11,0,0,1-3,6.9,13,13,0,0,1,.29,3.56c0,.1,0,.2,0,.3q-.06,20.06-.16,40.11v1.5a14.43,14.43,0,0,1,5-6.39V174.71a7,7,0,0,1,.06-.92,11.17,11.17,0,0,1,.51-14.9,10.82,10.82,0,0,1,18.49,8h0a10.61,10.61,0,0,1-2.66,6.88,7.42,7.42,0,0,1,.06.94v19.62a17.46,17.46,0,0,1,2.56-2.44c0-.72,0-1.46.08-2.21l0-.17a11.18,11.18,0,0,1,.27-3.88,10.46,10.46,0,0,1-2.25-7.07A9.88,9.88,0,0,1,390,168.71h.12a10.17,10.17,0,0,1,10.1,8.29,13.54,13.54,0,0,1,6.07-1.37,12.81,12.81,0,0,1,1.52.13,13.82,13.82,0,0,1,11-11.53,14.29,14.29,0,0,1,8.31.5,14.6,14.6,0,0,1,.55-2.45A13.68,13.68,0,0,1,441,152.45a13.82,13.82,0,0,1,8.06,2.4,13.45,13.45,0,0,1,4.12-7.59c5.35-5.13,12.52-5.31,18-.54a12.42,12.42,0,0,1,6.15-8.14,12.63,12.63,0,0,1,16.34,2.68,13.33,13.33,0,0,1,.6-1.52,11.84,11.84,0,0,1,12.65-6.86A12,12,0,0,1,516,139a12.08,12.08,0,0,1,6.23-5.3c6.35-2.47,12.76.06,15.58,6.17h0A11.69,11.69,0,0,1,535.07,154v68.48a10,10,0,0,1-.06,1.9c0,.05,0,.11,0,.16a12.84,12.84,0,0,1-.07,3.17c.19.16.36.33.54.51a12.09,12.09,0,0,1,3.4,9c-.09,6.32-4.13,10.78-10.82,11.92a7,7,0,0,1-1.94.06c-4.65-.51-8.19-2.76-10.06-6.19a11.79,11.79,0,0,1-10.58,6.13h0a11.84,11.84,0,0,1-12.13-9.67,11.18,11.18,0,0,1-8.7,4.65c-6.73.39-11.84-4-12.44-10.58a13,13,0,0,1,.06-3,11.77,11.77,0,0,1-8.75,5.52,7.27,7.27,0,0,1-1.68,0c-6.36-.63-10.65-5.19-10.66-11.36a11.07,11.07,0,0,1,3.27-8.09,7,7,0,0,1-.2-1,29.1,29.1,0,0,1-.2-4.24v-.67q0-18.45-.05-36.89v-2.18a14.49,14.49,0,0,1-4.78,5.9V207a7.17,7.17,0,0,1-.08,1,10.89,10.89,0,0,1,2.68,7.21c0,5.62-3.71,9.86-9.53,10.81a7.9,7.9,0,0,1-1.46.08,10.94,10.94,0,0,1-7.94-18.12,6.61,6.61,0,0,1-.08-1V187.41a17.87,17.87,0,0,1-2.59,2.36c0,1.37,0,2.75-.07,4.12a10.61,10.61,0,0,1-.28,2.36,10.45,10.45,0,0,1,2.36,7.5h0a10.1,10.1,0,0,1-9.12,9.5,7.11,7.11,0,0,1-1.9,0c-5.26-.71-8.81-4.1-9.43-8.74a12.88,12.88,0,0,1-7.45,1.24,14.54,14.54,0,0,1-19.47,11,13.14,13.14,0,0,1-9.71,11.4c-4.66,1.33-9,.61-12.29-1.85a15.34,15.34,0,0,1-1.51,4.93c-3,6-9.2,8.7-15.79,6.74a13.74,13.74,0,0,1-5.19-2.79,12.43,12.43,0,0,1-8,8.7c-5.73,2-11.24.54-14.58-3.74a12.78,12.78,0,0,1-3.74,5.9A12,12,0,0,1,305.85,249.4Zm197.8-12.06a2.49,2.49,0,0,0,1.69,1.43,2.46,2.46,0,0,0,1.61-1.13ZM84.93,238.77h0a2.59,2.59,0,0,0,1.73-1.6l-1.8.18,0-.75,1.9.08a2.61,2.61,0,0,0-1.88-1.51l-.09,0-.05-.57,0,.57a2.7,2.7,0,0,0-1.51,1.34l1.57.07,0,.75-1.59.16A2.45,2.45,0,0,0,84.93,238.77Zm440-1.76a2.74,2.74,0,0,0,1.37,1.63l-.53-3.08A2.66,2.66,0,0,0,524.92,237Zm2.74-1.53-.34,3.11a2.75,2.75,0,0,0,1.28-1.69A2.68,2.68,0,0,0,527.66,235.48ZM63,235.34a2.41,2.41,0,0,0-1.23,1.7,2.46,2.46,0,0,0,.87,1.45Zm1,0,.51,3a2.52,2.52,0,0,0,.75-1.53A2.49,2.49,0,0,0,64,235.35Zm443,2.06Zm-423.84,0Zm-17.91-.51h0Zm440-1.67a2.5,2.5,0,0,0-1.68,1.39l3.23-.39A2.52,2.52,0,0,0,505.34,235.18Zm21.91.07ZM482,233.68a2.92,2.92,0,0,0,2.13,1h0l-.08-1.46Zm2.14,1Zm-.08-1.46.08,1.46a2.9,2.9,0,0,0,1.91-1.86Zm-2.26.1Zm-375.6-.1Zm.29,0Zm.48-1.55.1,1a1.74,1.74,0,0,0,.25-.46A1.76,1.76,0,0,0,107,231.71Zm-1.62.5a2.27,2.27,0,0,0,.25.49l.13-1A1.84,1.84,0,0,0,105.39,232.21Zm2,.2h0Zm0-.26Zm-7,0h0Zm5-.09ZM484,231.72l2.08.26a3.21,3.21,0,0,0-1.29-1.46l-.4,0-.45,0Zm-2.09-.26,2.09.26-.06-1.14c-.36,0-.72,0-1.08,0A3.1,3.1,0,0,0,481.93,231.46ZM292.75,228a11.6,11.6,0,0,1,2.43,3,14.76,14.76,0,0,1,2.55-3.1h0l.2-.18V154.39a11,11,0,0,1-2.86-3.42,13.12,13.12,0,0,1-2.35,3.09,12.68,12.68,0,0,1,.24,3.36v.3q-.07,31-.18,62Zm220.87-.2a10.31,10.31,0,0,1,.75.73,11.16,11.16,0,0,1,1.69,2.34,11.48,11.48,0,0,1,1.73-2.42c.19-.2.39-.39.59-.58a15.3,15.3,0,0,1-.21-3.88c0-.17,0-.34,0-.49q-.06-29.29-.07-58.58V153.21a16.5,16.5,0,0,1-1.81-2.61,12.29,12.29,0,0,1-2.42,3.19l0,67.44c0,.26,0,.51,0,.77a24.64,24.64,0,0,1-.05,2.79,2.43,2.43,0,0,0,0,.27A13.23,13.23,0,0,1,513.62,227.78Zm-441.83.08a11.26,11.26,0,0,1,2.44,3,11.27,11.27,0,0,1,2.64-3.26V154.3a11,11,0,0,1-2.6-3.32,12.24,12.24,0,0,1-2.22,2.84l0,68.27v.81c0,1.14,0,2.28,0,3.41A9.8,9.8,0,0,1,71.79,227.86Zm199-3.63a10.8,10.8,0,0,1,2,2.51,12.08,12.08,0,0,1,1.39,3.76l.12-.18a12.64,12.64,0,0,1,2-2.23l0-9.43q-.08-30.51-.14-61v-.28a13,13,0,0,1,.18-3.11,11,11,0,0,1-1-1,11.92,11.92,0,0,1-4.43,7.15,13.54,13.54,0,0,1,.17,3v.31q-.06,26.13-.17,52.27ZM492,223.91a13,13,0,0,1,3.34,5.85,11.52,11.52,0,0,1,1.68-1.93,12.36,12.36,0,0,1-.09-3.32,2.46,2.46,0,0,0,0-.26q0-11.92,0-23.84V154l-.49-.47a13.51,13.51,0,0,1-3.27,5.28,11.37,11.37,0,0,1-1.24,1.1l0,7.85q.07,26.22.11,52.45l0,.21A11.48,11.48,0,0,1,492,223.91Zm-178,4,.36.35.63.68a11.14,11.14,0,0,1,.55-1.86,12.35,12.35,0,0,1,3.49-4.93l.12-55.66c0-.19,0-.39,0-.59a15.68,15.68,0,0,1,.09-3.21l0-.29a12.28,12.28,0,0,1,.18-4.47,11.21,11.21,0,0,1-3.14-6.3,11,11,0,0,1-2.34,2.67,11,11,0,0,1,.26,2.78v.13q0,32.1-.14,64.21Zm-220.82,0c.23.21.45.43.66.65a12,12,0,0,1,4.4-6.54,7.9,7.9,0,0,1-.1-1c-.07-1.41-.11-2.86-.11-4.34V157.76a11.76,11.76,0,0,1-3.22-5.57A11.13,11.13,0,0,1,93.22,154v73.92ZM249,217.14a10.62,10.62,0,0,1,2.59,11.06,12.46,12.46,0,0,1,.76-1.56h0a10.83,10.83,0,0,1,2-2.45l0-8.19q-.09-26.17-.15-52.35v-.3a12.77,12.77,0,0,1,.15-2.93l-.24-.19a13.35,13.35,0,0,1-3.29,5.94,12.91,12.91,0,0,1-1.65,1.49,11.9,11.9,0,0,1,.09,2.77v.21c0,13.46-.08,27-.14,40.52Zm213,7.75-2.17.09a3.12,3.12,0,0,0,2.55,2.61Zm1,0-.24,2.72a3.21,3.21,0,0,0,2.51-2.82h0Zm7.64-8a11.26,11.26,0,0,1,3.19,7.58h0a12.48,12.48,0,0,1-.08,2,11.49,11.49,0,0,1,1.22-1.73q.3-.34.63-.66a13.81,13.81,0,0,1-.3-3.31v-.2q.12-26.81.27-53.63l0-6.58a14.39,14.39,0,0,1-2.44,4.7h0a11.65,11.65,0,0,1-2.1,2.11v7.2q0,18.24,0,36.48c0,1.52,0,3-.15,4.57A9.35,9.35,0,0,1,470.58,216.8Zm-343.1,8a.52.52,0,0,0-.1.24.46.46,0,0,0,.1.31.44.44,0,0,0,.34.13.64.64,0,0,0,.31,0,1.17,1.17,0,0,0,.12-.37,2.55,2.55,0,0,0-.21-.28Zm407.43.26h0ZM460.58,223a3.19,3.19,0,0,0-.8,2l2.17-.09-.24-1.68A8.65,8.65,0,0,1,460.58,223Zm53.22,1.89h0Zm-50.72-1.64-.14,1.59,2.27-.09a2.8,2.8,0,0,0-.78-1.69A8.61,8.61,0,0,1,463.08,223.25Zm-335.25,1.38a.77.77,0,0,0-.3.15.12.12,0,0,0,0,.05l.56,0ZM343,224h0Zm-7-2.22.22.18a12.44,12.44,0,0,1,4.85-7.42l0-5.11q-.06-20.37-.1-40.75v-.29a12.16,12.16,0,0,1,.27-3.42,11.13,11.13,0,0,1-3.07-8.62,12.34,12.34,0,0,1,.27-2A12,12,0,0,1,336,158a13.26,13.26,0,0,1,.12,4.82c0,.18,0,.36-.06.52.06,12.47.06,25.15.06,37.4q0,9.75,0,19.49c0,.5,0,1,0,1.5Zm153.17-.47h0ZM115,157.47v7.77q0,25.66,0,51.32c0,1.28,0,2.87-.12,4.49v.09a13.37,13.37,0,0,1,3.31-5.5,13,13,0,0,1,1.43-1.26,11.24,11.24,0,0,1-.23-1.78c-.07-1.11-.06-2.17-.06-3.11v-.79l-.05-44.4a10.87,10.87,0,0,1-2.39-9.33A13,13,0,0,1,115,157.47Zm377.09,62.82v0Zm-379.93,0h0Zm325.68-4.91a3.46,3.46,0,0,0,3.23,3.17h0l-.73-4.48h-.44a7,7,0,0,1-1.67-.19,3,3,0,0,0-.41,1.49Zm3.6-1.32-.22,4.49a3.51,3.51,0,0,0,3-3.41,2.8,2.8,0,0,0-.41-1.27,6.52,6.52,0,0,1-1.48.17Zm-285.17,1.73h0Zm-7.07-.16,0,0,0-.06v0Zm221.55,0Zm47.53-12.75a3.92,3.92,0,0,0,3.38,3.83,4,4,0,0,0,4-3.43,3.29,3.29,0,0,0-.24-1.45,8.7,8.7,0,0,1-2.81.76l-.08.58,2.69.17-2.69-.17-.4,3.2-.46-3.26Zm-249.94.33c-.58,0-.59.38-.59.53a.51.51,0,0,0,.56.6.67.67,0,0,0,.39-.17.55.55,0,0,0,.19-.37.57.57,0,0,0-.17-.43A.45.45,0,0,0,168.34,203.16Zm221.78.59Zm-.13,0Zm-.19-.2a1.37,1.37,0,0,0,.26.18l.19-.08a2,2,0,0,0,.28-.15.22.22,0,0,0,0-.08,3.6,3.6,0,0,0,0-.42l-.09-.06A3.13,3.13,0,0,0,389.8,203.54Zm28.7-1.7a3.38,3.38,0,0,0-.22,1l3.43.23-.07-.5A8.39,8.39,0,0,1,418.5,201.84Zm-277.44-1.07h0Zm67.7-6.67h0Zm218.78-.79Zm-243.38-2.9a.92.92,0,0,0-.64.19.87.87,0,0,0-.21.62,1,1,0,0,0,.19.65.91.91,0,0,0,.66.22.88.88,0,0,0,.67-.19.86.86,0,0,0,.19-.59c0-.8-.26-.89-.82-.9h0Zm222.12,1.49Zm-1.07-1.14a.84.84,0,1,0,1.64,0,2.47,2.47,0,0,0-.8-1A2.7,2.7,0,0,0,405.21,190.76Zm.78-1.13h0Zm-24.09-.18h0ZM169.81,182.1h0ZM390,179.42l-3.51.27a2,2,0,0,0,.18.69,8.64,8.64,0,0,1,3.23-.69H390Zm.11.27a9,9,0,0,1,3.41.66,3,3,0,0,0,.34-1.3,4.06,4.06,0,0,0-3.46-3.77,3.93,3.93,0,0,0-3.78,2.43l3.39.72,0-2.72,0,2.72,3.46.73-3.47.26v.27ZM200.2,178.23h0a.71.71,0,0,0-.5.22.53.53,0,0,0-.15.33h0a.66.66,0,0,0,.71.52.94.94,0,0,0,.67-.56A.9.9,0,0,0,200.2,178.23Zm221.4.27.18.11a3.69,3.69,0,0,0,.58-.49l-.21-.27-.22,0-.29.08s0,.07,0,.11A1.75,1.75,0,0,0,421.6,178.5Zm.95-.06Zm-1.05-.4Zm.18-.22Zm.37,0Zm-50.82-10.06h1a6.74,6.74,0,0,1,1.63.2,3.31,3.31,0,0,0,.36-1.23l-2.92-.08Zm-3.38-1.21a3.16,3.16,0,0,0,.34,1.4,6.61,6.61,0,0,1,1.6-.19h1l-.08-1.13Zm-155.64.33Zm162.64-.14h0Zm-3.52-.09,2.92.08v-.08a3.55,3.55,0,0,0-2.61-3.15Zm-.82-3.17a3.53,3.53,0,0,0-2.66,3.07l2.86.08Zm70.77,3Zm-.09-.23Zm-.3,0Zm-121.61-3.28Zm.08-.79h0ZM346.7,157a2.76,2.76,0,0,0,.69,1.83,8.1,8.1,0,0,1,1.64-.23l-.1-1.43Zm2.94,1.59a9,9,0,0,1,1.81.22,2.86,2.86,0,0,0,.72-1.4l-2.34-.17Zm-224.34-.21h0Zm228.38-.86h0Zm-112.79-1.08a.53.53,0,0,0-.31.15.57.57,0,0,0-.15.36.48.48,0,0,0,.15.34.76.76,0,0,0,.3.14,1.74,1.74,0,0,0,.22-.18l-.06-.75A.22.22,0,0,0,240.89,156.39Zm108.94.8,2.34.17c0-.06,0-.13,0-.2a3.21,3.21,0,0,0-2-2.68ZM241,156.45l.06.75a2.32,2.32,0,0,0,.21-.25,1,1,0,0,0-.23-.46Zm107.7-2a3.13,3.13,0,0,0-2,2.52l2.23.17Zm-20.84-2.78.45,0a3.24,3.24,0,0,0,1.65-1.61l-2.11.36Zm-2-.89a3.19,3.19,0,0,0,1.39.91l.49,0h.08v-1.23Zm-221.38.17,0,0,.34-.29v-.12l-.4.33Zm157-.65a2.12,2.12,0,0,0,.46.62l-.15-1.2A2.2,2.2,0,0,0,261.54,150.28Zm1.69-.53-.08,1a1.69,1.69,0,0,0,.35-.55A1.72,1.72,0,0,0,263.23,149.75Zm-1.73.39Zm66.38-1.53,2.12.44a3.14,3.14,0,0,0-2.09-1.84h0Zm-1.89-.39,1.89.39v-1.4A3,3,0,0,0,326,148.22ZM108.9,147.3h0l1-.86Zm175.66-.51h0a2.38,2.38,0,0,0,1.35-1l-1.36.23,0-2.15,1.31.31a2.5,2.5,0,0,0-1.32-1l0-3.4,0,3.4h0a2.17,2.17,0,0,0-1,.4l1.08.25,0,2.15-1.31.21a2.37,2.37,0,0,0,1.29.6Zm19.51-1.69a2.47,2.47,0,0,0,1.6,1.64l-.38-1.7,1.52-.08-.09,1.43a2.24,2.24,0,0,0,.9-1.46h0l3.43-.19-3.43.17a2.44,2.44,0,0,0-.73-1.29l-.08,1.33-1.53.08-.33-1.48a2.48,2.48,0,0,0-.89,1.54h0v0Zm221.05.63,0,0,.18-.08v-.09l-.21.1Zm-21.5-.29v0l.21-.07v0l-.22.07Zm5.68-1.73h0l1-.31Zm20.38-.13h0l1.74-.83Zm-223.36-.35ZM284.5,139.8h0Zm133.19-23c-15.66,0-28.34-9.09-33.19-23.87-2.17-6.6-2.52-13.08-2.76-20.85a7.23,7.23,0,0,1,0-.93c.07-.71.14-1.53.22-2.42.21-2.47.47-5.54,1-8.66,3-18.34,16.08-29.93,34.22-30.23h.73c17.89,0,31.13,11,34.63,28.85a70.87,70.87,0,0,1-.88,32.8c-4.23,15.3-16.94,25-33.18,25.3ZM403.56,72.92c.19,1.72.28,3.42.36,5.08A33.27,33.27,0,0,0,405,86.52a13.06,13.06,0,0,0,13.06,9.42c6.25-.06,11.19-3.79,12.58-9.49a54.59,54.59,0,0,0,0-26.25c-1.43-5.78-6.25-9.42-12.59-9.52h-.24A13,13,0,0,0,405,60.09h0A32.44,32.44,0,0,0,403.94,68C403.84,69.56,403.74,71.19,403.56,72.92Zm-5.19-15h0ZM159.72,116.56a33.55,33.55,0,0,1-11.39-2c-9.33-2.82-15.87-8.87-19-17.57a9.26,9.26,0,0,1-1.61-5.67l0-.26h0v-.07c-1.2-6.47-1-12.72-.88-18.77.08-2.91.15-5.66.07-8.4-.11-4-.08-8-.06-11.84,0-3.34,0-6.8,0-10.15,0-1.67-.11-5.59,2.86-8.59,2-2,4.72-3,8.16-2.95,1.31,0,5.28.06,8.19,3a11.19,11.19,0,0,1,2.84,8.31c-.13,11.22-.15,22.65-.17,33.71,0,3.7,0,7.4,0,11.11a12.13,12.13,0,0,0,6,8.12l1.45.56.47.09,1.54.23,5.55-.47,1.11-.42a12.83,12.83,0,0,0,5.13-4.91,7.35,7.35,0,0,1,.6-1.58l.1-10.34q.16-17.51.29-35c0-.26,0-.51,0-.75,0-2-.09-5.73,2.8-8.66,2-2,4.77-3,8.28-3h0c3.55,0,6.36,1.06,8.33,3.14,2.87,3,2.67,6.71,2.56,8.68a7.49,7.49,0,0,0,0,.82q0,20.19,0,40.39v1.28a19.75,19.75,0,0,1-1.39,8.65l-.06.27a4.7,4.7,0,0,1-.12.51c-.06.22-.13.43-.21.64l-.9,2.39c-3.19,8.76-9.82,14.82-19.17,17.55A32.91,32.91,0,0,1,159.72,116.56ZM149,97.13h0ZM477.65,116h-.06a11,11,0,0,1-8.09-3c-2.87-2.89-2.86-6.57-2.85-8.76V104q0-12.37,0-24.74c0-11.29,0-23,.07-34.47,0-.15-.05-.58-.09-.89-.23-2.06-.66-5.88,2.07-9.21,1.87-2.28,4.66-3.59,8.29-3.89s6.47.53,8.57,2.48a5.44,5.44,0,0,1,.42.41A37.54,37.54,0,0,1,506.24,30C523.77,31.46,535.45,43.35,536,60.3c.31,9.41.27,18.92.23,28.12,0,5.45,0,11.08,0,16.59,0,6.73-3.92,10.83-10.63,11-1.31,0-5.28.11-8.27-2.85s-3-7-2.93-8.46c.17-15.88.18-28.06,0-39.49-.16-12-5.49-14-11.22-14.49-3.22-.25-7.7,0-10.78,2.79s-3.68,6.82-3.77,9.84c-.29,10.2-.24,20.64-.19,30.74q0,5,0,9.93v.45c0,2.15.05,5.75-2.83,8.64A10.89,10.89,0,0,1,477.65,116ZM222.4,116H222c-7-.17-11.07-4.26-11-11.22.12-20.08.12-41.19,0-62.74,0-1.68,0-5.61,2.94-8.54a11,11,0,0,1,8.13-2.82c1.61,0,5.83.1,8.73,3.39,10.76-5.48,22.1-5.84,31.23-.65a6.06,6.06,0,0,0,.62.27c1.86.75,5.73,2.31,7.18,6.51a9.93,9.93,0,0,1-1.08,8.4c-2,3.45-4.6,5.55-7.74,6.25-5,1.1-9.06-1.76-10.4-2.7a9.65,9.65,0,0,0-10.22-.77c-3.4,1.72-7.1,5.9-7.29,12.48-.29,10.68-.2,21.61-.11,32.18,0,2.81.05,5.63.07,8.44,0,1.87,0,5.77-2.95,8.7A10.54,10.54,0,0,1,222.4,116Zm67.75,0a11.23,11.23,0,0,1-8.13-3c-3-3-2.93-7-2.9-8.84.11-7.44.09-15.05.07-22.4q0-4.31,0-8.63h0c0-2.89,0-5.79,0-8.68,0-7.33,0-14.92-.08-22.34,0-1.64-.09-5.48,2.8-8.43s6.83-3,8.12-3,5.15,0,8.05,2.89,2.87,6.66,2.86,8.47c-.1,18.81-.07,37.94-.05,56.44v6.29c0,1.9.07,5.45-2.71,8.28a10.61,10.61,0,0,1-7.82,2.93Zm3-10.75h0ZM107.9,116a15.92,15.92,0,0,1-3-.31,7.91,7.91,0,0,1-6.1-2.5A8.12,8.12,0,0,1,96.85,106q0-3.26-.08-6.51c-.07-5.29-.15-10.74-.1-16.17-6.56.19-13.54.19-21.6,0,0,2.66,0,5.3,0,7.87,0,4.27-.09,8.3.09,12.34.08,1.73.32,7-3.78,10.33-2.34,1.9-5.33,2.56-8.93,2a8.26,8.26,0,0,1-6.48-2,8.41,8.41,0,0,1-2.63-7.48V40.06a8.27,8.27,0,0,1,10-9.43H65.7a8.29,8.29,0,0,1,7.4,2.68,8.19,8.19,0,0,1,1.71,7.23c0,2.08.06,4.16.1,6.24.1,5.08.2,10.32.14,15.54,7.27-.18,14.52-.18,21.6,0-.06-5.23,0-10.48.1-15.57q.06-3.21.1-6.41a8.11,8.11,0,0,1,1.91-7.29,7.82,7.82,0,0,1,6.12-2.49c2.26-.43,6.38-.79,9.74,1.93,4.13,3.33,4,8.81,4,10.6-.33,19.82-.33,40,0,60.08,0,1.81.12,7.31-4,10.64A10.46,10.46,0,0,1,107.9,116Zm-6.62-2.85h0ZM96.67,65.41Zm3.06-3ZM98.36,36.83h0Zm-42.74-.14h0Zm17.49,0h0ZM366.38,116h-.32c-13.12-.07-27.06-.08-43.89,0-1.49,0-6.07,0-8.8-3.76a9,9,0,0,1-1.31-7.6v-.9c-.76-5.33,2.58-8.63,4.26-10.18l31.25-42H325.67l-.64,0c-1.83,0-5.65.16-8.53-2.85a10.12,10.12,0,0,1-2.56-8.09c.63-8.92,7.19-9.84,10.05-9.82,14,.09,28.5.08,43.21,0a9.78,9.78,0,0,1,7.31,2.77c2.76,2.82,2.66,6.46,2.63,7.83-.07,2.48-.17,6.21-2.93,9.8-10.71,14-21.57,28.17-32.07,41.92L340.68,95c8.63,0,17.14,0,25.2,0,2.17,0,5.7,0,8.52,2.78a10.33,10.33,0,0,1,2.83,7.62,10.51,10.51,0,0,1-2.89,7.73A10.9,10.9,0,0,1,366.38,116Z"/></g><g id="Layer_1" data-name="Layer 1"><path class="cls-2" d="M65.8,150.62q0,35.9,0,71.78c0,1.33,0,2.66,0,4,0,.9-.46,1.75-1.39,1.76s-1.39-.82-1.43-1.72c0-1.33,0-2.66,0-4V150.66Z"/><path class="cls-2" d="M528.81,150.71q0,36.1,0,72.21a4.77,4.77,0,0,1,0,1c-.32,1.46.9,4.08-1.41,4-2,0-1.46-2.6-1.46-4.18q-.08-36.6-.07-73.21Z"/><path class="cls-2" d="M507.63,150.61q0,35.46,0,70.94a29.8,29.8,0,0,1,0,3c-.13,1.36.47,3.54-1.7,3.41-1.73-.1-1.14-2.12-1.15-3.34,0-10.49,0-21,0-31.47q0-21.24,0-42.47Z"/><path class="cls-2" d="M284,231.8q-.11-36.92-.18-73.84c0-1.25-.37-3.17,1.45-3.14s1.42,1.93,1.42,3.21q-.09,36.91-.22,73.83Z"/><path class="cls-2" d="M192.76,191.72a7.85,7.85,0,1,1-7.66-8A7.66,7.66,0,0,1,192.76,191.72Z"/><path class="cls-2" d="M414.6,191.19c0,4-4.08,8.08-8,8s-7.76-4.2-7.71-8.23,4.12-8.09,7.95-8S414.65,187.15,414.6,191.19Z"/><path class="cls-2" d="M326.8,226.27q.07-29.72.13-59.44a14.9,14.9,0,0,1,0-3c.35-1.75-1.2-4.86,1.59-4.87,2.25,0,1.22,3,1.23,4.65.08,19,0,38,.06,56.95,0,2-.4,4,.79,5.84Z"/><path class="cls-2" d="M108.74,154.57l0,62.3c0,1.33,0,2.66-.11,4-.06.89-.53,1.6-1.55,1.5a1.32,1.32,0,0,1-1.14-1.4c-.07-1.32-.1-2.65-.1-4v-62.3Z"/><path class="cls-2" d="M485.69,156.39q.09,32.13.14,64.24c0,1.18.68,3.13-1.19,3.26s-1.66-1.73-1.65-3q.13-32.37.33-64.72Z"/><path class="cls-2" d="M262.05,227.83q-.1-31.94-.19-63.88c0-1.25-.36-3.18,1.43-3.17s1.42,1.94,1.41,3.21q-.07,31.94-.21,63.88Z"/><path class="cls-3" d="M200.74,171.55a7.54,7.54,0,1,1,.43,15.07,7.54,7.54,0,1,1-.43-15.07Z"/><path class="cls-3" d="M176.63,204.22a7.6,7.6,0,0,1-7.77,7.38,7.56,7.56,0,0,1,.38-15.12A7.57,7.57,0,0,1,176.63,204.22Z"/><path class="cls-4" d="M420.8,185.8c-3.92-1.41-5.93-4.16-5.37-8.34a6.86,6.86,0,0,1,5.71-6.08,7,7,0,0,1,7.74,3.11c3,4.31,1,8.9-4.87,11.62Z"/><path class="cls-4" d="M392.72,196.33c3.54,1.17,5.53,3.65,5.56,7.34a7,7,0,0,1-4.37,6.66,7.08,7.08,0,0,1-7.89-1.12c-4.65-3.84-2.91-10.2,3.53-13.09Z"/><path class="cls-3" d="M149.93,223a7.29,7.29,0,0,1-7.06-7,7.4,7.4,0,0,1,7.43-7.21,7.13,7.13,0,0,1-.37,14.25Z"/><path class="cls-3" d="M220.15,160.49a6.69,6.69,0,0,1,6.82,7,6.89,6.89,0,0,1-6.89,7,7.1,7.1,0,0,1-7.13-7.34A6.81,6.81,0,0,1,220.15,160.49Z"/><path class="cls-4" d="M373,208.2c3.66,1.26,6.07,3.56,5.71,7.7a6.26,6.26,0,0,1-4.71,5.82c-3.9,1.11-6.92-.14-8.61-3.89-1.76-3.9,0-7.07,5.14-9.65Z"/><path class="cls-4" d="M440.58,173.81a17.23,17.23,0,0,1-2.65-1.32c-2.65-1.94-3.81-4.56-2.79-7.78a6.94,6.94,0,0,1,13.3,0c1,3.16-.11,5.85-2.82,7.77a18.73,18.73,0,0,1-2.64,1.35Z"/><path class="cls-2" d="M348.89,218.77q-.08-24.9-.13-49.79c0-1.26-.33-3.15,1.48-3.12s1.42,1.93,1.42,3.19q-.07,24.88-.2,49.78Z"/><path class="cls-2" d="M464.75,163.7q0,23.72-.05,47.42c0,1.33,0,2.67-.12,4-.07.87-.57,1.68-1.55,1.42a2,2,0,0,1-1.07-1.42,31.18,31.18,0,0,1-.14-4q0-23.7-.07-47.42Z"/><path class="cls-2" d="M129.93,161.73v47.43c0,1.16,0,2.33,0,3.49,0,.84-.2,1.81-1.22,1.88-1.32.09-1.53-1-1.59-2s0-2.33,0-3.5L127,161.59Z"/><path class="cls-2" d="M240.28,220.91q-.14-25-.25-49.9c0-1.25-.14-3.06,1.72-3,1.59.08,1.15,1.78,1.15,2.84q0,24.94-.17,49.9Z"/><path class="cls-2" d="M87,150.72v77.22H84.61q0-38.58,0-77.14Z"/><path class="cls-2" d="M305.68,231.66V154.77c2.54.31,2.25,1.69,2.25,2.75q0,37.11-.16,74.23Z"/><path class="cls-3" d="M128.73,218.83a6.63,6.63,0,0,1,6.39,6.87,6.44,6.44,0,0,1-7,6.2c-3.84-.38-6-2.67-6.14-6.52A6.68,6.68,0,0,1,128.73,218.83Z"/><path class="cls-3" d="M248.17,157a6.5,6.5,0,0,1-6.42,6.75,6.38,6.38,0,0,1-6.66-6.49c.19-3.8,2.28-6.14,6.16-6.48A6.46,6.46,0,0,1,248.17,157Z"/><path class="cls-4" d="M464.75,163.7h-3c-1.22-.84-2.73-1.44-3.6-2.56-2.23-2.9-2-6,.61-8.51,2.84-2.72,6-2.73,8.89,0,2.69,2.52,2.89,5.57.65,8.48C467.44,162.2,466,162.84,464.75,163.7Z"/><path class="cls-4" d="M348.89,218.77l2.57.06.1.12,1,.48c3.79,2,5.26,5,3.28,9-1.54,3.1-4.35,4.09-7.53,3.14-3.47-1-4.95-3.67-4.53-7.25C344.14,221.28,346.51,220,348.89,218.77Z"/><path class="cls-4" d="M485.69,156.39l-2.37-.22c-1.85-.84-3.62-1.87-4.27-3.88-1-3-.3-5.72,2.5-7.31a5.68,5.68,0,0,1,7.93,1.6,5.43,5.43,0,0,1-.55,7.63A18.93,18.93,0,0,1,485.69,156.39Z"/><path class="cls-3" d="M263.46,156.62c-3.76-.3-6.15-2.22-6.2-5.92s2.06-6,5.86-6.07,6,2.16,6.13,5.8S267,156.14,263.46,156.62Z"/><path class="cls-3" d="M107.2,226.5c3.66.45,6,2.4,5.9,6.13s-2.38,5.93-6.07,5.87-6-2.32-5.9-6S103.56,226.86,107.2,226.5Z"/><path class="cls-4" d="M326.8,226.27l3.84.14c2.63,1.28,4.21,3.32,3.9,6.3a5.59,5.59,0,0,1-3.75,4.88c-3.27,1.17-6.12.28-7.54-2.87C321.53,230.91,323,228,326.8,226.27Z"/><path class="cls-2" d="M151.66,170.52c0,10.12,0,20.23,0,30.35,0,1.52.61,4-1.7,3.91-2-.06-1.13-2.41-1.14-3.73-.08-10.11,0-20.23,0-30.35Z"/><path class="cls-4" d="M507.63,150.61l-2.94.06c-3.17-1.67-5-4-3.3-7.68a4.82,4.82,0,0,1,5.33-2.86,4.89,4.89,0,0,1,4.34,3.6C512.07,147.08,510.34,149.09,507.63,150.61Z"/><path class="cls-2" d="M218.66,211.41c0-9.65,0-19.31.06-29,0-1.35-.68-3.62,1.42-3.61s1.46,2.25,1.45,3.63c0,9.82-.16,19.63-.26,29.45Z"/><path class="cls-4" d="M528.81,150.71l-2.94-.14c-4.53-3.53-4.72-8.37-.35-10.08,2.94-1.14,5.42-.15,6.68,2.58C533.86,146.65,532,149.09,528.81,150.71Z"/><path class="cls-4" d="M305.68,231.66l2.09.09a16.57,16.57,0,0,1,2.37,1.73c2.52,2.58,2.48,5.35-.08,7.75a4.78,4.78,0,0,1-7.1-.16c-2.48-2.49-2.34-5.29.29-7.75A18,18,0,0,1,305.68,231.66Z"/><path class="cls-3" d="M307.22,150.62c-3.8-.24-5.82-2.12-5.86-5.29s2.09-5.27,5.34-5.24a4.86,4.86,0,0,1,5.1,5C312,148.43,309.86,150,307.22,150.62Z"/><path class="cls-4" d="M284,231.8l2.47.06c1.32.95,2.85,1.62,3.54,3.29a5,5,0,0,1-1.9,6.5,4.74,4.74,0,0,1-6.36-.38c-2.06-1.82-2.73-4.21-1.05-6.61A17.64,17.64,0,0,1,284,231.8Z"/><path class="cls-4" d="M87,150.72l-2.35.08a6.65,6.65,0,0,1-3.4-2.73c-1.2-2.43-1.14-4.84,1.07-6.7a4.94,4.94,0,0,1,7.11.25,4.74,4.74,0,0,1,.6,6.68A14.27,14.27,0,0,1,87,150.72Z"/><path class="cls-4" d="M65.8,150.62l-2.94,0a7,7,0,0,1-3.47-3.34,5.26,5.26,0,0,1,8.4-5.85A4.8,4.8,0,0,1,69,147.69,7.81,7.81,0,0,1,65.8,150.62Z"/><path class="cls-3" d="M64.16,232c3.28.37,5.37,2.14,5.37,5.37a4.84,4.84,0,0,1-4.94,5.13,4.9,4.9,0,0,1-5.54-5C58.88,234.15,61.07,232.51,64.16,232Z"/><path class="cls-3" d="M91,237.15c-.14,3.22-1.83,5.16-4.89,5.33-3.34.18-5.39-1.75-5.53-5.1a4.73,4.73,0,0,1,4.83-5.28C88.59,232,90.62,233.82,91,237.15Z"/><path class="cls-3" d="M290.61,145.42c-.74,3.13-2.32,5.26-5.72,5.08a4.78,4.78,0,0,1-4.92-5.09c-.05-3.33,2.09-5.26,5.27-5.29S290.1,142.38,290.61,145.42Z"/><path class="cls-3" d="M527.66,242.6c-3.1-.34-5.14-1.82-5.3-5-.17-3.42,1.77-5.49,5.06-5.51s5.29,1.92,5.24,5.37C532.61,240.72,530.53,242.11,527.66,242.6Z"/><path class="cls-3" d="M500.79,237.33c.31-3.39,2.26-5.31,5.44-5.24s5.2,2.2,5.06,5.48a4.84,4.84,0,0,1-5.12,4.93C502.87,242.54,501.17,240.49,500.79,237.33Z"/><path class="cls-3" d="M489.53,232.63c-.33,2.67-1.56,4.68-4.52,4.86s-4.8-1.34-5.06-4.22c-.29-3.17,1.58-5.06,4.61-5.22C487.43,227.9,489,229.83,489.53,232.63Z"/><path class="cls-4" d="M108.74,154.57l-2.93.1c-3.42-2-4.82-4.74-2-8,2.05-2.4,4.87-2.27,6.86.15C113.32,150,111.75,152.55,108.74,154.57Z"/><path class="cls-3" d="M333.44,149.92c-.55,2.69-1.89,4.69-4.93,4.61s-4.68-1.73-4.65-4.73a4.43,4.43,0,0,1,4.74-4.72C331.52,145.06,333,147.12,333.44,149.92Z"/><path class="cls-4" d="M262.05,227.83l2.44,0c1,.86,2.28,1.55,2.89,2.63a4.72,4.72,0,1,1-8.22-.05C259.78,229.38,261.07,228.7,262.05,227.83Z"/><path class="cls-3" d="M463.3,229.5c-2.71-.27-4.34-1.73-4.35-4.41a3.9,3.9,0,0,1,4-4.17,4.05,4.05,0,0,1,4.59,4.08C467.63,227.68,465.91,229.13,463.3,229.5Z"/><path class="cls-2" d="M440.58,173.81l2.4,0v33.52l-2.4,0Z"/><path class="cls-2" d="M373,208.2l-2.47,0V175H373Z"/><path class="cls-4" d="M240.28,220.91l2.45-.13c2.51,1.54,4.18,3.5,2.52,6.54a4.14,4.14,0,0,1-7.51-.6C236.84,224.06,238.07,222.25,240.28,220.91Z"/><path class="cls-3" d="M350,161.73c-2.61-.4-4.19-1.87-4-4.66a3.91,3.91,0,0,1,4.32-3.89,4,4,0,0,1,4.16,4.61C354.24,160.24,352.54,161.55,350,161.73Z"/><path class="cls-4" d="M129.93,161.73l-3-.14c-1.88-1.33-3.19-2.93-2.39-5.43a4.19,4.19,0,0,1,7.72-.64C133.74,158.39,132.15,160.2,129.93,161.73Z"/><path class="cls-4" d="M218.66,211.41l2.67.51c2.16,1.66,3.53,3.58,1.47,6.17a3.23,3.23,0,0,1-4.38.92c-1.94-1.1-2.8-2.78-1.75-4.93A17.3,17.3,0,0,1,218.66,211.41Z"/><path class="cls-3" d="M441.93,219.51c-2.33-.12-3.81-1.43-3.95-3.59a3.8,3.8,0,1,1,7.6-.27C445.59,217.94,444.13,219.15,441.93,219.51Z"/><path class="cls-3" d="M371.7,170.73c-2.33-.23-3.72-1.54-3.71-3.85a3.8,3.8,0,0,1,7.6.13C375.53,169.3,374.06,170.58,371.7,170.73Z"/><path class="cls-4" d="M151.66,170.52l-2.9.18c-1.82-1.34-3.31-2.83-2.1-5.35a3.74,3.74,0,0,1,6.72,0C154.48,167.64,153.16,169.12,151.66,170.52Z"/><path class="cls-3" d="M394.23,179.48c-.44,2.06-1.61,3.3-3.79,3.08a3,3,0,0,1-2.81-3.44A2.94,2.94,0,0,1,390.8,176C392.91,176.05,394.07,177.35,394.23,179.48Z"/><path class="cls-3" d="M422.91,206.64c-2.35-.32-3.62-1.48-3.45-3.65a3,3,0,0,1,3.32-3,3.14,3.14,0,0,1,3.22,3.62C425.87,205.58,424.53,206.41,422.91,206.64Z"/><path class="cls-4" d="M167.79,182.59c-1.53-1.58-3.1-3.22-1-5.41a2.93,2.93,0,0,1,4.37-.21c2.09,1.91,1.11,3.78-.55,5.45Z"/><path class="cls-4" d="M202.7,200.5c1.73,1.79,2.14,3.68,0,5.4a2.67,2.67,0,0,1-3.92-.34c-2-2.08-1.05-3.79.83-5.32Z"/><path class="cls-2" d="M420.8,185.8l3.21.31c0,2.65,0,5.3-.09,7.94,0,.81,0,1.79-1.16,1.83s-1.39-.88-1.46-1.67C421.07,191.41,421,188.6,420.8,185.8Z"/><path class="cls-2" d="M167.79,182.59l2.77-.17c0,2.3.11,4.61.06,6.92,0,1.22.34,3-1.61,2.93-1.57-.06-1.26-1.67-1.28-2.76C167.7,187.21,167.76,184.9,167.79,182.59Z"/><path class="cls-2" d="M202.7,200.5l-3.07-.26c0-1.82-.1-3.66,0-5.47.1-1.35-.72-3.69,1.21-3.71,2.3,0,1.51,2.46,1.65,4C202.68,196.84,202.65,198.67,202.7,200.5Z"/><path class="cls-2" d="M392.72,196.33l-3.17-.21c0-2-.05-3.94.08-5.9.07-1.18-.62-3.17,1.18-3.21,2,0,1.61,2.05,1.7,3.43C392.64,192.4,392.65,194.37,392.72,196.33Z"/><path class="cls-2" d="M352.56,219.43l-1-.48Z"/><path class="cls-5" d="M389.48,72.22c.27-2.61.49-6.68,1.13-10.68C393,46.6,403.42,37.45,418,37.2c14.81-.24,25.45,8.27,28.38,23.2A63.94,63.94,0,0,1,445.65,90c-3.42,12.39-13.49,19.91-26.56,20.17s-23.2-6.88-27.2-19.06C390,85.44,389.7,79.56,389.48,72.22Zm7.77,1c.68,4.87.14,10.41,1.88,15.74a20,20,0,0,0,19.79,14.25c9.23-.1,17.12-5.89,19.3-14.82a61.5,61.5,0,0,0,0-29.6c-2.22-9-9.95-14.7-19.28-14.84a20.1,20.1,0,0,0-19.8,14.23C397.57,63,397.92,67.89,397.25,73.27Zm81.09-35.15c-5.64.47-3.84,4.25-3.85,7.05-.11,19.73,0,39.47-.09,59.2,0,2.86-.16,5,4,5s3.91-2.22,3.91-5c0-13.63-.25-27.26.15-40.88.39-13.16,9-20.44,22.09-19.41,11.44.91,17.49,8,17.67,21.38s.12,26.44,0,39.66c0,3.1.72,4.3,4.05,4.23,3-.07,3.8-1.06,3.78-3.92-.14-14.84.25-29.7-.23-44.54-.44-13.58-9.76-22.42-23.35-23.54A30.35,30.35,0,0,0,483,45C481.19,42.5,484.52,37.61,478.34,38.12ZM63.3,109c4.2,1.08,5.8-.29,5.59-4.85-.34-7.68.08-15.4-.12-23.09-.09-3.36.81-4.6,4.38-4.5,8.91.25,17.85.32,26.76,0,4.1-.15,4.59,1.53,4.54,5-.14,8.5.07,17,.15,25.52a2.24,2.24,0,0,1,1.46,2c4.56,1.08,6.39-.08,6.31-5.36q-.5-30.15,0-60.31c.09-5.3-1.79-6.41-6.31-5.36a2.29,2.29,0,0,1-1.46,2c-.09,8.3-.35,16.6-.17,24.9.08,3.67-.93,5-4.75,4.84-8.71-.27-17.44-.26-26.14,0-3.78.11-4.85-1.11-4.78-4.8.17-8.3-.12-16.6-.22-24.9A2.34,2.34,0,0,1,66.92,38H63.3a2.12,2.12,0,0,1-2.24,1.95V107A2.11,2.11,0,0,1,63.3,109Zm280-1.94c8.17.23,16.36,0,25.64,0-2.28-3.17-4.42-2.43-6.19-2.44-10.53-.07-21.05,0-31.57-.07-2.26,0-5.43.36-2.86-3.61q20.54-26.86,41.07-53.7c1.37-1.77,1.43-3.66,1.48-5.72s-.26-3.43-2.89-3.41q-21.66.12-43.3,0c-2.56,0-2.87,1.15-3,3.32-.29,4,2.32,3.43,4.75,3.42h35.83l-40,53.67c-.23,1.92.76,4.47-2.48,4.86l0,2.44C327.54,108.19,335.47,106.8,343.31,107ZM226.76,42.13c.52-3.32-1-4.05-4.1-4.1-3.44-.07-3.95,1.33-3.93,4.32q.17,31.41,0,62.82c0,3.23,1,4.1,4.2,4.18,3.6.08,3.88-1.65,3.86-4.48-.08-13.62-.33-27.25.05-40.86.45-16,16.35-25.74,28.51-17.25,4.14,2.89,6.27,1.8,8.07-1.31,2.27-3.93-2.16-4.46-4.08-5.57-9.26-5.3-21.63-3-32.59,6A30.44,30.44,0,0,1,226.76,42.13Zm-60.85,60-7.31.6c-.16.78-.48,1.66-1.38,1.36-.5-.18-.74-1.13-1.09-1.73l-1.21-.23c-1.63,1.79-2.13.65-2.46-.94-5.6-2.93-8.77-7.63-10.1-13.69-3.18-1-2-3.63-2-5.64-.1-12.39,0-24.77-.08-37.16,0-1.66.77-4.38-1.81-4.39s-1.82,2.71-1.83,4.36c-.06,13,0,26-.07,39,0,2.13.79,4.53-1.25,6.3l.24,1.18c1.8.4,2.95,1,.76,2.57,2.32,7.6,7.49,12.23,15,14.44h18.26c7.12-2,12.22-6.26,14.79-13.32-1.89-1.65-.72-2.15.93-2.48l.25-1.2c-2-1.79-1.21-4.18-1.22-6.32-.07-13,0-26-.1-39.05,0-1.92,1.34-5.48-1.9-5.36-3,.12-1.65,3.63-1.67,5.61-.13,12.82,0,25.63-.11,38.45,0,2,1.05,4.72-2.29,5.44l-.37,1.2.56.8-1,.18a19.92,19.92,0,0,1-9,9.1C168,102.83,167.51,103.94,165.91,102.16Zm121,2.45c-.05,3.17.41,4.75,4.22,4.73s3.56-2.18,3.56-4.7c0-20.76-.07-41.52.05-62.28,0-3-.42-4.33-3.89-4.32s-4,1.26-3.95,4.29c.17,10.38.06,20.76.06,31.14S287,94.23,286.86,104.61ZM186.57,84.05q0-20.44,0-40.87c0-2.67,1-5.65-3.86-5.65-4.65,0-4.06,2.61-4.08,5.49-.1,15.65-.26,31.29-.4,46.94,3.34-.72,2.28-3.42,2.29-5.44.08-12.82,0-25.63.11-38.45,0-2-1.31-5.49,1.67-5.61,3.24-.12,1.88,3.44,1.9,5.36.13,13,0,26,.1,39.05,0,2.14-.8,4.53,1.22,6.32C186.76,89,186.57,86.48,186.57,84.05Zm-44-42.23c0-3.14-.82-4.22-4.1-4.26-3.47,0-4,1.44-3.95,4.4.16,7.31-.11,14.63.09,21.94.25,8.69-.92,17.43.69,26.09,2-1.77,1.24-4.17,1.25-6.3.07-13,0-26,.07-39,0-1.65-.77-4.38,1.83-4.36s1.8,2.73,1.81,4.39c.06,12.39,0,24.77.08,37.16,0,2-1.14,4.67,2,5.64C142.4,72.29,142.38,57.05,142.55,41.82Zm180.34,67.45q22-.1,43.95,0c2.66,0,4.12-.38,4.13-3.58,0-3.43-1.86-3.39-4.31-3.38-11,.06-22,.09-33,0-1.79,0-4.13,1.27-5.37-1.32-2.57,4,.6,3.6,2.86,3.61,10.52.06,21,0,31.57.07,1.77,0,3.91-.73,6.19,2.44-9.28,0-17.47.18-25.64,0-7.84-.22-15.77,1.17-23.5-1.19C318.81,108.8,320.36,109.28,322.89,109.27Zm-153.35-1.08H151.28A25.54,25.54,0,0,0,169.54,108.19Zm150.25-4.8c3.24-.39,2.25-2.94,2.48-4.86C320.86,99.85,319.28,101.09,319.79,103.39Zm-134.53-11c-1.65.33-2.82.83-.93,2.48ZM61.06,39.9A2.12,2.12,0,0,0,63.3,38C61.57,37.47,60.72,38,61.06,39.9Zm75.22,53.84c2.19-1.58,1-2.17-.76-2.57A2.45,2.45,0,0,0,136.28,93.74ZM104.6,40a2.29,2.29,0,0,0,1.46-2C104.15,37.59,104.28,38.71,104.6,40ZM66.92,38A2.34,2.34,0,0,0,68.54,40C69,38.51,68.77,37.62,66.92,38ZM63.3,109A2.11,2.11,0,0,0,61.06,107C60.74,108.93,61.59,109.44,63.3,109Zm92.83-6.57c.35.6.59,1.55,1.09,1.73.9.3,1.22-.58,1.38-1.36Zm9.78-.23c1.6,1.78,2.12.67,2.45-.92ZM106.06,109a2.24,2.24,0,0,0-1.46-2C104.26,108.25,104.2,109.31,106.06,109Zm46.4-7.75c.33,1.59.83,2.73,2.46.94Zm24.92-9.08,1-.18-.56-.8A.84.84,0,0,0,177.38,92.14Z"/></g></svg>