<svg id="Layer_1" data-name="Layer 1" xmlns="http://www.w3.org/2000/svg" xmlns:xlink="http://www.w3.org/1999/xlink" viewBox="0 0 312.5 70.36"><defs><style>.cls-1{fill:none;}.cls-2{fill:#1d1d1b;}.cls-3{clip-path:url(#clip-path);}.cls-4{fill:#3c3c3b;}.cls-5{fill:#8da461;}.cls-6{fill:#b6d37b;}</style><clipPath id="clip-path"><rect class="cls-1" x="27.49" y="1.89" width="111.97" height="67.46"/></clipPath></defs><path class="cls-2" d="M176.92,15.38c0,1.85,0,2.07,1,2.2l.43.05a.37.37,0,0,1,0,.44c-.9,0-1.42-.06-2-.06s-1.23,0-1.93.06a.39.39,0,0,1,0-.44l.33-.05c.92-.14,1-.35,1-2.2V8.91c0-1.5,0-1.79-.74-1.88L174.31,7a.31.31,0,0,1,0-.44,23,23,0,0,1,3.13-.14,5.22,5.22,0,0,1,3,.7,3.12,3.12,0,0,1,1.27,2.63,3,3,0,0,1-1.58,2.79A4.91,4.91,0,0,1,178,13c-.11,0-.11-.32,0-.35a2.65,2.65,0,0,0,2.32-2.95c0-1.7-.9-2.81-2.54-2.81-.84,0-.85.07-.85.63Z"/><path class="cls-2" d="M184.81,9.08c0-1.67,0-2-.69-2L183.61,7a.31.31,0,0,1,0-.44,34.8,34.8,0,0,1,3.52-.14,5.21,5.21,0,0,1,2.64.52,2.66,2.66,0,0,1,1.31,2.46,3.2,3.2,0,0,1-2,2.93c-.08.11,0,.28.08.42a18.75,18.75,0,0,0,3.17,4.67,1.75,1.75,0,0,0,1.09.49.16.16,0,0,1,0,.25,2.32,2.32,0,0,1-.7.09c-1.34,0-2.15-.44-3.27-2.21-.41-.65-1.06-1.86-1.55-2.65a1.08,1.08,0,0,0-1.12-.57c-.71,0-.74,0-.74.39v2.21c0,1.85,0,2.06.95,2.2l.33.05a.39.39,0,0,1,0,.44c-.71,0-1.25-.06-1.88-.06s-1.23,0-2,.06a.39.39,0,0,1,0-.44l.4-.05c.91-.13.94-.35.94-2.2Zm1.3,2.51a1.44,1.44,0,0,0,0,.58c0,.05.28.09,1.09.09a2.39,2.39,0,0,0,1.62-.46,2.63,2.63,0,0,0,.79-2.17,2.46,2.46,0,0,0-2.52-2.71c-1,0-1,.07-1,.56Z"/><path class="cls-2" d="M193.69,12.35c0-3.51,2.37-6.2,5.62-6.2,3.65,0,5.49,2.93,5.49,6,0,3.55-2.44,6.13-5.49,6.13C195.81,18.3,193.69,15.51,193.69,12.35Zm9.53.36c0-2.89-1.16-6-4.17-6-1.65,0-3.78,1.25-3.78,5.09,0,2.6,1.14,6,4.25,6C201.42,17.75,203.22,16.17,203.22,12.71Z"/><path class="cls-2" d="M216.3,16.22c0,.71.09,1.13.37,1.25a.15.15,0,0,1,0,.21,3.17,3.17,0,0,0-.78.16,10.93,10.93,0,0,1-2.82.46,6.21,6.21,0,0,1-4.82-1.95,5.87,5.87,0,0,1-1.46-4,6.43,6.43,0,0,1,1.43-4.16,6.2,6.2,0,0,1,5-2,8.67,8.67,0,0,1,2,.26,3.6,3.6,0,0,0,1,.16,22.7,22.7,0,0,0,.24,2.55c-.05.14-.34.15-.43.05a2.92,2.92,0,0,0-3.24-2.49c-3.06,0-4.41,2.42-4.41,5.05,0,3.37,1.57,6,4.74,6,1,0,1.57-.23,1.74-.52a2.17,2.17,0,0,0,.16-1v-.7c0-1.47-.05-1.58-1-1.7l-.69-.09c-.13-.07-.11-.38,0-.44.45,0,1.32.06,2.26.06.61,0,1.15,0,1.67-.06a.33.33,0,0,1,0,.44l-.26,0c-.66.08-.67.58-.67,1.47Z"/><path class="cls-2" d="M220.42,9.08c0-1.67,0-2-.7-2L219.21,7a.31.31,0,0,1,0-.44,34.8,34.8,0,0,1,3.52-.14,5.19,5.19,0,0,1,2.64.52,2.66,2.66,0,0,1,1.31,2.46,3.2,3.2,0,0,1-2,2.93c-.08.11,0,.28.08.42A18.75,18.75,0,0,0,228,17.38a1.75,1.75,0,0,0,1.09.49.16.16,0,0,1,0,.25,2.32,2.32,0,0,1-.7.09c-1.34,0-2.15-.44-3.27-2.21-.41-.65-1.06-1.86-1.54-2.65a1.11,1.11,0,0,0-1.13-.57c-.71,0-.74,0-.74.39v2.21c0,1.85,0,2.06.95,2.2l.33.05a.39.39,0,0,1,0,.44c-.71,0-1.25-.06-1.88-.06s-1.23,0-2,.06a.39.39,0,0,1,0-.44l.4-.05c.91-.13.95-.35.95-2.2Zm1.29,2.51a1.44,1.44,0,0,0,0,.58c.05.05.28.09,1.09.09a2.44,2.44,0,0,0,1.63-.46,2.66,2.66,0,0,0,.79-2.17,2.47,2.47,0,0,0-2.53-2.71c-1,0-1,.07-1,.56Z"/><path class="cls-2" d="M235.55,13.94c-.11-.38-.18-.44-.65-.44h-2.38c-.4,0-.5.06-.61.43l-.55,1.84a7.09,7.09,0,0,0-.35,1.46c0,.21.08.31.46.35l.52.05a.31.31,0,0,1,0,.44c-.41,0-.9,0-1.64-.06-.52,0-1.09,0-1.52.06a.38.38,0,0,1,0-.44l.52-.05a1.09,1.09,0,0,0,1-.86c.28-.81.73-1.95,1.39-3.92l1.61-4.74a2.72,2.72,0,0,0,.27-1.24,1.81,1.81,0,0,0,.82-.67.23.23,0,0,1,.24.16c.2.77.46,1.58.69,2.35l2.17,7.06c.46,1.51.66,1.77,1.34,1.86l.43.05a.37.37,0,0,1,0,.44c-.65,0-1.2-.06-1.91-.06s-1.36,0-1.82.06a.31.31,0,0,1,0-.44l.45-.05c.34,0,.56-.14.56-.32a3.84,3.84,0,0,0-.21-.93Zm-3.13-1.56c-.13.4-.11.42.33.42h1.94c.46,0,.5-.07.35-.54l-.85-2.86c-.13-.42-.27-.9-.36-1.11h0c0,.09-.2.51-.37,1Z"/><path class="cls-2" d="M245.64,13.33c.36.82.71,1.63,1.09,2.4h0c.43-.82.82-1.73,1.22-2.63l1.48-3.35a11,11,0,0,0,1.2-3.37,11.39,11.39,0,0,0,1.19,0c.39,0,.92,0,1.41,0a.41.41,0,0,1,0,.44l-.33,0c-1,.11-1.12.44-1.11,1.67,0,1.86,0,5.11.18,7.63.05.88,0,1.36.77,1.43l.51.05a.36.36,0,0,1,0,.44c-.65,0-1.3-.06-1.87-.06s-1.26,0-1.91.06a.35.35,0,0,1,0-.44l.46-.05c.77-.09.77-.37.77-1.5l-.05-7.31h0c-.11.19-.71,1.59-1,2.28l-1.4,3.07c-.71,1.54-1.42,3.19-1.71,4a.18.18,0,0,1-.16.07.19.19,0,0,1-.14-.07c-.27-.93-1-2.65-1.39-3.51l-1.42-3.39c-.33-.81-.66-1.72-1-2.53h0c-.07,1.09-.11,2.11-.16,3.13s-.11,2.63-.11,4.12c0,1.3.09,1.58.71,1.64l.6.05a.33.33,0,0,1,0,.44c-.53,0-1.15-.06-1.75-.06s-1.07,0-1.61.06a.36.36,0,0,1,0-.44l.34-.05c.67-.11.89-.21,1-1.44s.18-2.13.27-3.86c.08-1.46.15-2.95.18-3.92s-.1-1.37-1.06-1.51l-.26,0c-.07-.11-.06-.37.07-.44.47,0,.85,0,1.25,0a13,13,0,0,0,1.31,0,7.28,7.28,0,0,0,.82,2.89Z"/><path class="cls-2" d="M176.92,34.34c0,.47,0,.47.52.47h1.07a5.37,5.37,0,0,0,1.35-.11c.17-.07.3-.15.39-.61l.14-.7a.3.3,0,0,1,.41,0c0,.42-.06,1.12-.06,1.77s.06,1.3.06,1.7c-.06.11-.3.11-.41,0l-.16-.68a.81.81,0,0,0-.5-.67,4.85,4.85,0,0,0-1.22-.09h-1.07c-.48,0-.52,0-.52.48v2.44c0,1.84,0,2.1,1,2.19l.54,0a.39.39,0,0,1,0,.44c-.94,0-1.47-.05-2.11-.05s-1.23,0-2,.05c-.1-.05-.13-.33,0-.44l.39,0c.92-.12,1-.35,1-2.19V32c0-1.84,0-2.09-1-2.21l-.25,0a.39.39,0,0,1,0-.44c.67,0,1.2.06,1.83.06h2.91a16.82,16.82,0,0,0,2.13-.06c0,.81,0,1.65.05,2.32a.26.26,0,0,1-.38.05c-.12-.79-.31-1.44-1.1-1.66a5.88,5.88,0,0,0-1.54-.11h-1c-.47,0-.47,0-.47.7Z"/><path class="cls-2" d="M184.64,32.05c0-1.86,0-2.15-1-2.24l-.4,0a.39.39,0,0,1,0-.44c.79,0,1.33.06,2,.06s1.17,0,2-.06c.1.06.13.37,0,.44l-.39,0c-.93.09-1,.38-1,2.24V38.3c0,1.86,0,2.11,1,2.23l.39,0a.36.36,0,0,1,0,.44c-.79,0-1.32-.05-2-.05s-1.2,0-2,.05a.39.39,0,0,1,0-.44l.4,0c.93-.12,1-.37,1-2.23Z"/><path class="cls-2" d="M199,38c0,.52,0,2.61.05,3.07a.29.29,0,0,1-.3.19c-.19-.3-.65-.91-2-2.65L193.06,34c-.43-.55-1.5-2-1.83-2.37h0a5.25,5.25,0,0,0-.07,1.14v3.83a15.17,15.17,0,0,0,.28,3.63c.1.19.41.3.81.33l.49,0a.34.34,0,0,1,0,.44c-.71,0-1.26-.05-1.84-.05s-1.09,0-1.65.05a.36.36,0,0,1,0-.44l.43,0c.36-.05.61-.16.69-.35a18.81,18.81,0,0,0,.21-3.61V31.49a1.73,1.73,0,0,0-.35-1.26,1.58,1.58,0,0,0-1-.42l-.27,0c-.09-.1-.09-.37,0-.44.67.06,1.51.06,1.79.06a4.15,4.15,0,0,0,.73-.06,23.09,23.09,0,0,0,2.7,3.86l1.53,1.92c1.09,1.35,1.87,2.33,2.61,3.17h0a2,2,0,0,0,.06-.73V33.79a13.69,13.69,0,0,0-.31-3.63c-.1-.16-.35-.26-1-.35l-.27,0c-.11-.1-.1-.38,0-.44.73,0,1.26.06,1.87.06s1.08,0,1.62-.06a.32.32,0,0,1,0,.44l-.22,0c-.5.09-.82.23-.88.37a15.54,15.54,0,0,0-.24,3.61Z"/><path class="cls-2" d="M207.81,36.9c-.11-.39-.17-.44-.65-.44h-2.38c-.4,0-.49,0-.6.42l-.55,1.84a7.24,7.24,0,0,0-.35,1.46c0,.21.08.32.46.35l.52,0a.31.31,0,0,1,0,.44c-.41,0-.9,0-1.65-.05-.52,0-1.09,0-1.51.05a.38.38,0,0,1,0-.44l.53,0c.37,0,.72-.23.94-.86.29-.81.73-2,1.39-3.91L205.51,31a2.7,2.7,0,0,0,.26-1.25,1.83,1.83,0,0,0,.83-.67.22.22,0,0,1,.23.16c.21.78.46,1.58.7,2.36l2.16,7.05c.46,1.51.67,1.77,1.34,1.86l.43,0a.37.37,0,0,1,0,.44c-.65,0-1.2-.05-1.91-.05s-1.36,0-1.82.05a.32.32,0,0,1,0-.44l.46,0c.33,0,.55-.14.55-.31a4.27,4.27,0,0,0-.2-.94Zm-3.13-1.56c-.12.4-.11.42.34.42H207c.46,0,.49-.07.35-.55l-.86-2.86a9.48,9.48,0,0,0-.36-1.1h0a9.15,9.15,0,0,0-.38,1Z"/><path class="cls-2" d="M222.28,38c0,.52,0,2.61.05,3.07a.29.29,0,0,1-.3.19c-.19-.3-.65-.91-2-2.65L216.34,34c-.43-.55-1.5-2-1.83-2.37h0a4.54,4.54,0,0,0-.08,1.14v3.83a15.17,15.17,0,0,0,.28,3.63c.1.19.41.3.81.33l.49,0a.36.36,0,0,1,0,.44c-.72,0-1.27-.05-1.85-.05s-1.09,0-1.65.05a.36.36,0,0,1,0-.44l.43,0c.36-.05.61-.16.69-.35a18,18,0,0,0,.21-3.61V31.49a1.73,1.73,0,0,0-.35-1.26,1.58,1.58,0,0,0-1-.42l-.27,0c-.09-.1-.09-.37,0-.44.66.06,1.5.06,1.78.06a4.15,4.15,0,0,0,.73-.06,23.09,23.09,0,0,0,2.7,3.86l1.53,1.92c1.09,1.35,1.87,2.33,2.61,3.17h0a2,2,0,0,0,.06-.73V33.79a13.69,13.69,0,0,0-.31-3.63c-.1-.16-.35-.26-1-.35l-.27,0a.32.32,0,0,1,0-.44c.73,0,1.26.06,1.87.06s1.09,0,1.62-.06a.32.32,0,0,1,0,.44l-.22,0c-.5.09-.82.23-.88.37a15.54,15.54,0,0,0-.24,3.61Z"/><path class="cls-2" d="M227.35,30.6a6.35,6.35,0,0,1,4.26-1.5,10.93,10.93,0,0,1,2.8.43,1.28,1.28,0,0,0,.44.07c0,.4.1,1.51.23,2.58a.31.31,0,0,1-.43,0,3,3,0,0,0-3.24-2.56c-2.42,0-4.47,1.7-4.47,5.33s2.1,5.73,4.69,5.73a3.42,3.42,0,0,0,3.3-2.51.3.3,0,0,1,.41.07,7,7,0,0,1-.76,2.4,3.54,3.54,0,0,0-.55.18,8.47,8.47,0,0,1-2.49.4,6.36,6.36,0,0,1-3.94-1.18,5.85,5.85,0,0,1-2.24-4.82A6.08,6.08,0,0,1,227.35,30.6Z"/><path class="cls-2" d="M238.2,32c0-1.83,0-2.09-1-2.21l-.26,0a.39.39,0,0,1,0-.44c.68,0,1.22.06,1.87.06h3a16.73,16.73,0,0,0,2.13-.06,20.15,20.15,0,0,1,.25,2.34.28.28,0,0,1-.39,0c-.24-.82-.38-1.44-1.2-1.66a6.61,6.61,0,0,0-1.53-.11H240c-.47,0-.47,0-.47.7v3.51c0,.49,0,.49.52.49h.91a5.43,5.43,0,0,0,1.35-.1c.19-.07.3-.18.38-.62l.12-.72c.08-.1.35-.1.41,0,0,.42-.06,1.11-.06,1.77s.06,1.3.06,1.69c-.06.12-.33.12-.41,0l-.14-.69c-.06-.31-.17-.58-.49-.66a4.75,4.75,0,0,0-1.22-.09H240c-.48,0-.52,0-.52.47V38.2a3.06,3.06,0,0,0,.3,1.82c.18.21.52.41,1.91.41a4.1,4.1,0,0,0,2-.27,4.39,4.39,0,0,0,1.12-1.7.29.29,0,0,1,.4.12,16.78,16.78,0,0,1-.71,2.44c-1.43,0-2.83-.05-4.24-.05h-1.42c-.68,0-1.22,0-2.15.05a.37.37,0,0,1,0-.44l.52,0c.9-.09,1-.35,1-2.19Z"/><path class="cls-2" d="M248,31.67c0-1.23-.08-1.6-.74-1.7l-.35-.06a.28.28,0,0,1,0-.44c1.34-.08,2.62-.14,4-.14a9,9,0,0,1,3.48.53A5.28,5.28,0,0,1,257.54,35a5.89,5.89,0,0,1-2.77,5.23,7,7,0,0,1-3.54.84c-1,0-2-.14-2.57-.14s-1.24,0-2,.05a.37.37,0,0,1,0-.44l.36,0c.92-.14,1-.35,1-2.19Zm1.3,6.26a3.58,3.58,0,0,0,.31,1.92c.35.54,1,.72,2,.72,3.06,0,4.44-2.23,4.44-5.5,0-1.93-.84-5.19-5-5.19a3.27,3.27,0,0,0-1.56.24c-.13.11-.16.55-.16,1.34Z"/><path class="cls-2" d="M266.36,34.34c0,.47.05.47.52.47H268a5.28,5.28,0,0,0,1.34-.11c.18-.07.3-.15.4-.61l.14-.7a.3.3,0,0,1,.41,0c0,.42-.06,1.12-.06,1.77s.06,1.3.06,1.7c-.06.11-.3.11-.41,0l-.16-.68a.83.83,0,0,0-.5-.67,4.91,4.91,0,0,0-1.22-.09h-1.08c-.47,0-.52,0-.52.48v2.44c0,1.84,0,2.1,1,2.19l.53,0a.36.36,0,0,1,0,.44c-.93,0-1.47-.05-2.1-.05s-1.23,0-2,.05c-.1-.05-.13-.33,0-.44l.4,0c.92-.12.95-.35.95-2.19V32c0-1.84,0-2.09-.95-2.21l-.25,0c-.1-.07-.07-.38,0-.44.66,0,1.2.06,1.83.06h2.91a16.82,16.82,0,0,0,2.13-.06c0,.81,0,1.65.05,2.32a.26.26,0,0,1-.38.05c-.13-.79-.32-1.44-1.11-1.66a5.76,5.76,0,0,0-1.53-.11h-1c-.48,0-.48,0-.48.7Z"/><path class="cls-2" d="M274.1,32c0-1.67,0-2-.69-2.06l-.51-.07a.31.31,0,0,1,0-.44c.88-.08,2-.14,3.52-.14a5.11,5.11,0,0,1,2.64.53,2.66,2.66,0,0,1,1.31,2.46,3.21,3.21,0,0,1-2,2.93c-.08.1,0,.28.08.42a19,19,0,0,0,3.17,4.67,1.84,1.84,0,0,0,1.09.49c.08,0,.09.17,0,.25a2.39,2.39,0,0,1-.7.08c-1.34,0-2.15-.44-3.27-2.21-.41-.65-1.06-1.86-1.55-2.65a1.09,1.09,0,0,0-1.12-.56c-.71,0-.74,0-.74.39v2.21c0,1.84,0,2,1,2.19l.33,0a.39.39,0,0,1,0,.44c-.71,0-1.25-.05-1.88-.05s-1.24,0-2,.05a.37.37,0,0,1,0-.44l.39,0c.92-.12,1-.35,1-2.19Zm1.3,2.51a1.47,1.47,0,0,0,.05.58s.28.08,1.09.08a2.47,2.47,0,0,0,1.62-.45,2.65,2.65,0,0,0,.79-2.18,2.46,2.46,0,0,0-2.52-2.7c-1,0-1,.07-1,.56Z"/><path class="cls-2" d="M283,35.3c0-3.51,2.37-6.2,5.62-6.2,3.65,0,5.49,2.94,5.49,6,0,3.54-2.44,6.12-5.49,6.12C285.1,41.25,283,38.46,283,35.3Zm9.53.37c0-2.9-1.16-6-4.18-6-1.64,0-3.77,1.25-3.77,5.09,0,2.6,1.14,6,4.25,6C290.7,40.71,292.51,39.13,292.51,35.67Z"/><path class="cls-2" d="M301.48,36.28c.36.83.71,1.64,1.09,2.41h0c.42-.83.82-1.74,1.21-2.63l1.49-3.36a10.87,10.87,0,0,0,1.2-3.37,9.51,9.51,0,0,0,1.19.06c.39,0,.91,0,1.4-.06a.39.39,0,0,1,0,.44l-.33,0c-1,.1-1.13.44-1.11,1.67,0,1.86.05,5.1.17,7.63.05.88,0,1.35.78,1.42l.5,0a.34.34,0,0,1,0,.44c-.65,0-1.29-.05-1.86-.05s-1.27,0-1.92.05a.36.36,0,0,1,0-.44l.46,0c.78-.09.78-.37.78-1.49l0-7.32h0c-.11.19-.71,1.6-1,2.28L304,37.07c-.71,1.55-1.42,3.2-1.7,4a.18.18,0,0,1-.16.06.18.18,0,0,1-.14-.06c-.27-.94-1-2.65-1.39-3.52l-1.43-3.38c-.33-.81-.66-1.72-1-2.53h0c-.06,1.09-.11,2.11-.16,3.12s-.11,2.64-.11,4.13c0,1.3.1,1.58.71,1.63l.6,0c.12.11.1.39,0,.44-.54,0-1.15-.05-1.75-.05s-1.08,0-1.62.05a.39.39,0,0,1,0-.44l.35,0c.66-.1.88-.21,1-1.44s.17-2.12.27-3.86c.08-1.46.14-2.95.17-3.91s-.09-1.37-1.06-1.51l-.25,0a.36.36,0,0,1,.06-.44c.48,0,.86.06,1.25.06a10.81,10.81,0,0,0,1.31-.06,7.16,7.16,0,0,0,.83,2.9Z"/><path class="cls-2" d="M179.41,61.29c0,1.85,0,2.11,1,2.2l.51,0a.39.39,0,0,1,0,.44c-.9,0-1.44,0-2.07,0s-1.19,0-2.2,0a.32.32,0,0,1,0-.44l.57,0c.9-.09,1-.35,1-2.2V53.45c0-.55,0-.56-.48-.56h-.87a2.94,2.94,0,0,0-1.94.44,3.18,3.18,0,0,0-.71,1.2.28.28,0,0,1-.41-.12,20.56,20.56,0,0,0,.6-2.61.35.35,0,0,1,.3,0c.09.56.62.54,1.34.54h6.4c.86,0,1,0,1.23-.49.08,0,.26,0,.29,0a11.3,11.3,0,0,0-.24,2.67c-.06.14-.33.14-.41,0a2.46,2.46,0,0,0-.39-1.28,2.92,2.92,0,0,0-1.84-.44h-1.12c-.47,0-.46,0-.46.59Z"/><path class="cls-2" d="M188.67,58.26c-.76,0-.79,0-.79.56v2.47c0,1.85.08,2.09,1,2.2l.46,0a.39.39,0,0,1,0,.44c-.85,0-1.39,0-2,0s-1.21,0-1.83,0c-.1,0-.13-.33,0-.44l.27,0c.88-.18.91-.35.91-2.2V55c0-1.84-.11-2.14-.93-2.21l-.41,0c-.1-.07-.06-.39,0-.44.78,0,1.31.05,2,.05s1.16,0,1.84-.05a.39.39,0,0,1,0,.44l-.3,0c-.92.11-1,.37-1,2.21v2c0,.55,0,.56.79.56h4.52c.76,0,.79,0,.79-.56V55c0-1.84,0-2.1-1-2.21l-.3,0a.38.38,0,0,1,0-.44c.72,0,1.26.05,1.91.05s1.15,0,1.86-.05a.36.36,0,0,1,0,.44l-.33,0c-.92.11-.95.37-.95,2.21v6.32c0,1.85,0,2.07.95,2.2l.38,0a.39.39,0,0,1,0,.44c-.76,0-1.3,0-1.91,0s-1.22,0-1.91,0c-.1,0-.13-.33,0-.44l.3,0c1-.18,1-.35,1-2.2V58.82c0-.53,0-.56-.79-.56Z"/><path class="cls-2" d="M199.83,55c0-1.82,0-2.08-1-2.21l-.25,0a.36.36,0,0,1,0-.44c.68,0,1.22.05,1.86.05h3a20.29,20.29,0,0,0,2.14-.05,22.4,22.4,0,0,1,.25,2.33.29.29,0,0,1-.4,0c-.23-.83-.37-1.44-1.2-1.67a6.68,6.68,0,0,0-1.53-.1H201.6c-.47,0-.47,0-.47.7V57.1c0,.49.05.49.52.49h.92a5.22,5.22,0,0,0,1.34-.11c.19-.06.3-.17.38-.61l.13-.72a.28.28,0,0,1,.41,0c0,.42-.07,1.1-.07,1.77s.07,1.3.07,1.69a.29.29,0,0,1-.41,0l-.15-.68c-.06-.32-.17-.58-.49-.67a4.71,4.71,0,0,0-1.21-.09h-.92c-.47,0-.52,0-.52.48v2.47a3.18,3.18,0,0,0,.3,1.83c.19.21.52.4,1.91.4a4.22,4.22,0,0,0,2-.26,4.35,4.35,0,0,0,1.13-1.7.27.27,0,0,1,.39.12,16.28,16.28,0,0,1-.71,2.44c-1.42,0-2.83,0-4.23,0h-1.43c-.68,0-1.21,0-2.15,0a.39.39,0,0,1,0-.44l.52,0c.91-.09,1-.35,1-2.2Z"/><path class="cls-2" d="M222.35,60.94c0,.53,0,2.62,0,3.07a.28.28,0,0,1-.3.2c-.19-.3-.65-.92-2-2.65l-3.67-4.64c-.42-.54-1.5-2-1.83-2.37h0a5.2,5.2,0,0,0-.08,1.14v3.83a15.65,15.65,0,0,0,.28,3.63c.1.2.42.3.81.34l.49,0a.34.34,0,0,1,0,.44c-.71,0-1.27,0-1.85,0s-1.09,0-1.64,0a.36.36,0,0,1,0-.44l.43,0c.37-.05.62-.16.7-.35a19,19,0,0,0,.2-3.62V54.45a1.69,1.69,0,0,0-.35-1.26,1.64,1.64,0,0,0-1-.43l-.26,0c-.1-.11-.1-.37,0-.44.66.05,1.5.05,1.78.05a5.23,5.23,0,0,0,.73-.05,24.13,24.13,0,0,0,2.7,3.86L219,58.06c1.09,1.36,1.86,2.34,2.6,3.18h0a1.79,1.79,0,0,0,.07-.74V56.75a13.71,13.71,0,0,0-.32-3.64c-.09-.15-.35-.26-1-.35l-.27,0c-.11-.11-.09-.39,0-.44.73,0,1.27.05,1.87.05s1.09,0,1.63-.05a.35.35,0,0,1,0,.44l-.22,0c-.51.09-.83.23-.89.37a15.65,15.65,0,0,0-.23,3.62Z"/><path class="cls-2" d="M226.75,55c0-1.66-.05-2-.69-2.05l-.51-.07a.32.32,0,0,1,0-.44,35.17,35.17,0,0,1,3.53-.14,5.11,5.11,0,0,1,2.64.53A2.65,2.65,0,0,1,233,55.27a3.2,3.2,0,0,1-2,2.93c-.08.11,0,.29.08.42a18.74,18.74,0,0,0,3.18,4.67,1.73,1.73,0,0,0,1.09.49.16.16,0,0,1,0,.25,2.25,2.25,0,0,1-.69.09c-1.34,0-2.15-.44-3.27-2.21-.41-.65-1.06-1.86-1.55-2.65a1.09,1.09,0,0,0-1.12-.56c-.71,0-.74,0-.74.38v2.21c0,1.85,0,2.06.94,2.2l.33,0a.36.36,0,0,1,0,.44c-.71,0-1.24,0-1.88,0s-1.23,0-2,0c-.1,0-.13-.32,0-.44l.39,0c.92-.13.95-.35.95-2.2Zm1.3,2.51a1.79,1.79,0,0,0,0,.58c0,.05.29.09,1.09.09a2.44,2.44,0,0,0,1.63-.46,2.63,2.63,0,0,0,.79-2.17,2.47,2.47,0,0,0-2.53-2.71c-1,0-1,.07-1,.56Z"/><path class="cls-2" d="M237.47,54.62c0-1.23-.08-1.59-.74-1.7l-.35-.05c-.12-.09-.14-.37,0-.44,1.34-.09,2.62-.14,4-.14a8.85,8.85,0,0,1,3.48.53A5.28,5.28,0,0,1,247.05,58a5.89,5.89,0,0,1-2.77,5.23,6.92,6.92,0,0,1-3.54.85c-1,0-2-.14-2.57-.14s-1.23,0-2,0a.39.39,0,0,1,0-.44l.37,0c.91-.14.94-.35.94-2.2Zm1.3,6.27a3.64,3.64,0,0,0,.31,1.91c.35.55.95.72,1.95.72,3.06,0,4.44-2.23,4.44-5.49,0-1.93-.84-5.2-5-5.2a3.09,3.09,0,0,0-1.56.25c-.13.11-.16.54-.16,1.33Z"/><path class="cls-2" d="M250.33,55c0-1.86,0-2.16-1-2.25l-.4,0a.39.39,0,0,1,0-.44c.79,0,1.33.05,2,.05s1.17,0,2-.05a.36.36,0,0,1,0,.44l-.39,0c-.93.09-1,.39-1,2.25v6.25c0,1.86,0,2.1,1,2.23l.39,0a.36.36,0,0,1,0,.44c-.79,0-1.32,0-2,0s-1.2,0-2,0a.39.39,0,0,1,0-.44l.4,0c.93-.13,1-.37,1-2.23Z"/><path class="cls-2" d="M261.73,57.29c0,.48,0,.48.53.48h1.07a5.28,5.28,0,0,0,1.34-.11c.18-.07.3-.16.4-.61l.14-.71a.32.32,0,0,1,.41,0c0,.43-.06,1.13-.06,1.78s.06,1.3.06,1.7c-.06.11-.3.11-.41,0l-.16-.69a.81.81,0,0,0-.5-.66,4.85,4.85,0,0,0-1.22-.09h-1.07c-.48,0-.53,0-.53.47v2.44c0,1.85,0,2.11,1,2.2l.54,0a.38.38,0,0,1,0,.44c-.93,0-1.47,0-2.1,0s-1.23,0-2,0c-.1,0-.13-.33,0-.44l.39,0c.92-.13.95-.35.95-2.2V55c0-1.84,0-2.08-.95-2.21l-.25,0c-.1-.07-.06-.39,0-.44.66,0,1.2.05,1.83.05H264a20.17,20.17,0,0,0,2.13-.05c0,.81,0,1.65.05,2.32a.27.27,0,0,1-.38,0c-.12-.79-.31-1.44-1.1-1.67a6.46,6.46,0,0,0-1.54-.1h-1c-.48,0-.48,0-.48.7Z"/><path class="cls-2" d="M277,56.75a13.94,13.94,0,0,0-.31-3.64.92.92,0,0,0-.79-.36l-.39,0a.34.34,0,0,1,0-.42c.6,0,1.19.05,1.8.05s1.09,0,1.66-.05a.32.32,0,0,1,0,.42l-.38,0a.9.9,0,0,0-.79.42,17.45,17.45,0,0,0-.22,3.58v2a6.65,6.65,0,0,1-1.1,4.2,4,4,0,0,1-3,1.28,4.19,4.19,0,0,1-3-1c-.83-.77-1.23-2.05-1.23-4.14V55c0-1.83,0-2.13-.95-2.21l-.39,0c-.1-.07-.06-.37,0-.42.79,0,1.33.05,2,.05s1.17,0,1.94-.05a.35.35,0,0,1,0,.42l-.38,0c-.92.08-.95.38-.95,2.21v3.79c0,2.82.79,4.69,3.21,4.69s3.16-2,3.16-4.67Z"/><path class="cls-2" d="M290.28,60.94c0,.53,0,2.62.05,3.07a.29.29,0,0,1-.3.2c-.19-.3-.65-.92-2-2.65l-3.66-4.64c-.43-.54-1.5-2-1.84-2.37h0a5.2,5.2,0,0,0-.08,1.14v3.83a15.09,15.09,0,0,0,.29,3.63c.09.2.41.3.8.34l.49,0a.34.34,0,0,1,0,.44c-.71,0-1.26,0-1.85,0s-1.09,0-1.64,0a.35.35,0,0,1,0-.44l.43,0c.36-.05.61-.16.69-.35a19,19,0,0,0,.21-3.62V54.45a1.73,1.73,0,0,0-.35-1.26,1.64,1.64,0,0,0-1-.43l-.27,0c-.09-.11-.09-.37,0-.44.67.05,1.5.05,1.79.05a5.19,5.19,0,0,0,.72-.05,24.18,24.18,0,0,0,2.71,3.86l1.53,1.91c1.09,1.36,1.86,2.34,2.61,3.18h0a2.08,2.08,0,0,0,.06-.74V56.75a13.71,13.71,0,0,0-.32-3.64c-.09-.15-.34-.26-1-.35l-.27,0c-.11-.11-.1-.39,0-.44.72,0,1.26.05,1.86.05s1.09,0,1.63-.05a.32.32,0,0,1,0,.44l-.22,0c-.51.09-.82.23-.88.37a15.63,15.63,0,0,0-.24,3.62Z"/><path class="cls-2" d="M294.68,54.62c0-1.23-.08-1.59-.74-1.7l-.35-.05c-.12-.09-.14-.37,0-.44,1.34-.09,2.62-.14,4-.14a8.85,8.85,0,0,1,3.48.53A5.28,5.28,0,0,1,304.26,58a5.89,5.89,0,0,1-2.77,5.23,7,7,0,0,1-3.54.85c-1,0-2-.14-2.57-.14s-1.23,0-2,0a.39.39,0,0,1,0-.44l.36,0c.92-.14.95-.35.95-2.2Zm1.3,6.27a3.64,3.64,0,0,0,.31,1.91c.35.55.95.72,1.95.72,3.06,0,4.44-2.23,4.44-5.49,0-1.93-.84-5.2-5-5.2a3.09,3.09,0,0,0-1.56.25c-.13.11-.16.54-.16,1.33Z"/><rect class="cls-1" x="27.49" y="1.89" width="111.97" height="67.46"/><g class="cls-3"><path class="cls-2" d="M90.37,16.06h-.79V12s0,0,0,0a.29.29,0,0,0-.09-.56.29.29,0,0,0-.28.29.28.28,0,0,0,.2.27s0,0,0,0v1.17L89,11.79l-.09-.06a.31.31,0,0,0,.32-.31.33.33,0,0,0-.15-.27.3.3,0,0,0-.24,0l-.23-.88,0-.05L85.81,8.31H84.09a.46.46,0,0,0,.14-.36.48.48,0,0,0-.15-.36.54.54,0,0,0-.36-.14h0l-.34-.51.34-.23h.09a.4.4,0,0,0,.27-.11.37.37,0,0,0,.1-.28A.36.36,0,0,0,84.05,6a.38.38,0,0,0-.27-.1.42.42,0,0,0-.26.1.41.41,0,0,0-.1.21l-.35.23L82.77,6V5.94a.36.36,0,0,0-.12-.27.34.34,0,0,0-.27-.1.36.36,0,0,0-.27.12A.39.39,0,0,0,82,6a.41.41,0,0,0,.11.26.42.42,0,0,0,.2.1l.3.45L82.27,7h-.09a.36.36,0,0,0-.27.12.39.39,0,0,0-.11.27.45.45,0,0,0,.12.27.37.37,0,0,0,.53,0,.44.44,0,0,0,.11-.2l.36-.25.35.52,0,.08,0,.14a.58.58,0,0,0,.15.35H81.64L78.9,10.18l0,.05-.22.88a.32.32,0,0,0-.25,0,.33.33,0,0,0-.15.27.32.32,0,0,0,.32.31l-.09.06-.41,1.36V12s0,0,0,0l.12-.07a.3.3,0,0,0,.08-.2.28.28,0,0,0-.08-.2.28.28,0,0,0-.49.2.29.29,0,0,0,.2.27s0,0,0,0v4.08h-.78l-.1.09V27a6.84,6.84,0,0,0,.11,1.11,6.53,6.53,0,0,0,.3,1.07h0A6.75,6.75,0,0,0,78,30.34a6.35,6.35,0,0,0,.83,1,5.94,5.94,0,0,0,.87.72,5.1,5.1,0,0,0,1,.54,18.67,18.67,0,0,0,1.81.62h0a6.88,6.88,0,0,1,1.2.43h.09a8,8,0,0,1,1.2-.42h0a16.27,16.27,0,0,0,1.81-.62,6.13,6.13,0,0,0,2.67-2.31,6.32,6.32,0,0,0,1-3.42V16.15Zm-1-4.39.1-.1.1.1-.1.1Zm.26,4.57V22a1,1,0,0,1-.48.14V20.65h0V19.07h0V16.24ZM85.45,27.16c0,.11,0,.21,0,.29a1.81,1.81,0,0,0-.26.56L85.15,28V25.86c.18.11.26.88.3,1.3m-.3-1.44V23.53h.49v2.24l0-.05-.17,0h0l-.08,0-.1,0Zm.23.15.07,0h0l0,.08,0,.06.08.07.09-.05h0l0,0h.07l.06.09.08.14v.08h0l0,.16-.06,0-.08-.08-.12,0,0,.11a.48.48,0,0,0,.09.19.39.39,0,0,0,.19.17l.12,0h-.41a3.6,3.6,0,0,0-.23-1m.32,0Zm.07.11,0,0h0Zm1,0h.11v-.13l-.09-.13,0-.13.16-.1h0l.08,0,.09,0,.16.1,0,.13-.08.13V26h.13l.15-.06.11.06,0,.07h0l.08.16,0,.1h0l-.06.11-.1,0-.17-.08h-.11l0,.11a.61.61,0,0,0,.27.34l.09,0H86.53l.09,0a.57.57,0,0,0,.27-.34l0-.11h-.11l-.17.08-.1,0-.07-.12-.06-.1.08-.16h0l0-.07.11-.06.16.06h0Zm1.2.17L87.87,26l-.07-.14,0,0V23.53h.52V25.8h-.08l0,0a.32.32,0,0,0-.12.17l-.07.12,0,.09,0,.12a.43.43,0,0,0,.1.28l.1,0,0,0H88l-.11-.05h-.1l0,0v-.08h0l.1-.17.07-.14Zm-.07.67.1,0a.28.28,0,0,0,.13,0h-.41a.67.67,0,0,0,.18-.07m-.27-.15v0h0l0,0Zm-1,0v0h0Zm-.12.2H86l.13,0,.09,0a.83.83,0,0,0,.18.07m-.07-1.07,0,0-.06.14-.08.15v.11l.07.14.1.17,0,0v.07l0,0H86.2l-.1.05H86l0,0,.09,0a.38.38,0,0,0,.11-.28l0-.12,0-.09L86.06,26a.34.34,0,0,0-.13-.17l0,0h0l-.08,0V23.53h.54Zm-.61.72Zm2.75.53v.11c0,.09,0,.16,0,.23h-2.8c0-.06,0-.14,0-.25v-.09Zm-.39-.18.12,0a.5.5,0,0,0,.19-.17,1.14,1.14,0,0,0,.09-.19l-.05-.11-.11,0-.09.08-.06,0,0-.16,0-.09.09-.14L88.3,26h.06l0,0v0l.1.05.08-.07v-.06l0-.08h0l.06,0a3.29,3.29,0,0,0-.22,1Zm.31-1Zm.25,1.3c0-.42.13-1.19.3-1.3V28l-.06.06a2.08,2.08,0,0,0-.27-.56c0-.07,0-.17,0-.29m.24-1.48-.09,0-.08,0h0l-.18,0,0,.05V23.53H89v2.19Zm-1.22-2.33-.09.09v2.28h0a.35.35,0,0,0-.1-.27.75.75,0,0,0-.23-.15h0l-.11-.05H87l-.11.05h0a.62.62,0,0,0-.22.15.32.32,0,0,0-.1.27h0V23.44l-.1-.09H85a1.21,1.21,0,0,0-.52.11V22.21a1.21,1.21,0,0,0,.52.12h1.44l.1-.09V20.46l-.1-.1H85.7a1.39,1.39,0,0,0-.55.12V19.23a1.39,1.39,0,0,0,.55.12h.75l.1-.1V17.79a1.39,1.39,0,0,0-.12-.55h1.28a1.38,1.38,0,0,0-.11.55v1.46l.09.1h.81a.91.91,0,0,0,.47-.12v1.24a1,1,0,0,0-.47-.11h-.81l-.09.1v1.78l.09.09h1.4a1.23,1.23,0,0,0,.55-.12v1.25a1.35,1.35,0,0,0-.55-.11ZM85,23.54v4.29a.88.88,0,0,0-.48-.14v-4a.9.9,0,0,1,.48-.13M84.49,22V16.24H85v5.9a.91.91,0,0,1-.48-.14m.66.14V20.69a1.08,1.08,0,0,1,.49-.14v1.59Zm.67-1.59h.54v1.59h-.54ZM85.15,19V16.24h.49v2.92a1,1,0,0,1-.49-.14m1-1.82a1.08,1.08,0,0,1,.16.59v1.37h-.54V16.24h.48v.82h0l-.08.05Zm.29-1H87v.82h-.48Zm.67,0h.48v.82h-.48Zm.71.82h-.05v-.82h.48v2.92h-.52V17.79a1.08,1.08,0,0,1,.16-.59v-.09Zm.62,2.1V16.24H89V19a.77.77,0,0,1-.47.14ZM89,20.69v1.45h-.48V20.55h0a.77.77,0,0,1,.47.14m-.67,1.45h-.52V20.55h.52Zm.86,1.39a1,1,0,0,1,.48.14v4h-.06a.87.87,0,0,0-.42.14Zm-.47-9.41-.1.1V15.3l.1.09h.7v.23H85.21V13.88h4.18v.24Zm.7,1.09h-.61v-.9h.61Zm-.18-2h-.65l.33-1.06Zm-.32-1.92a.13.13,0,0,1,.13.14.13.13,0,0,1-.13.13.13.13,0,0,1-.14-.13.15.15,0,0,1,.14-.14m-3.68-2.8h.52l2.69,1.83.2.8A4.64,4.64,0,0,0,87.27,9.6a5,5,0,0,0-2.06-.86Zm2,1.27a4.45,4.45,0,0,1,1.41,1.64v0a.31.31,0,0,0,.31.31l-.08.06L88.42,13V12.2a.79.79,0,0,0-.22-.54.75.75,0,0,0-1.28.54v.94l-.75-1.79-.09,0-.08,0-.78,1.85h0V8.93a4.62,4.62,0,0,1,2,.82m1.08,2.45v1H87.1v-1a.57.57,0,0,1,.57-.57.56.56,0,0,1,.4.17.53.53,0,0,1,.17.4m-1.49,1H85.42l.66-1.57ZM84.62,8.48H85v2.76a1.19,1.19,0,0,0-.25-.35l-.15-.12Zm-.93-1.05ZM83,7,82.9,7l-.47.31,0,.08-.06.13-.14,0-.14,0L82,7.39,82,7.25l.14-.07h.15l.47-.32,0-.13-.37-.55-.07,0-.14-.06,0-.14,0-.14.14-.06.14.06L82.6,6V6.1l.37.55,0,0h.07l.46-.31,0-.07.06-.13.14-.06.14.06.06.14-.06.14-.14.06h-.15l-.45.3,0,.13.43.64.09,0h0a.28.28,0,0,1,.23.09.29.29,0,0,1,.1.22.32.32,0,0,1-.09.23.32.32,0,0,1-.22.1.32.32,0,0,1-.23-.09.29.29,0,0,1-.1-.23V7.85l0-.08v-.1Zm0,1.45h1.43v2.17a1.44,1.44,0,0,0-1.43,0Zm-.58,0h.4v2.29l-.15.12a1.72,1.72,0,0,0-.25.35Zm0,3.4A1.29,1.29,0,0,1,84.64,11a1.22,1.22,0,0,1,.38.86V13.2H82.43ZM79,10.31l2.69-1.83h.52v.26a4.84,4.84,0,0,0-3.41,2.36Zm-.15,1.09a4.48,4.48,0,0,1,1.41-1.65,4.68,4.68,0,0,1,1.95-.82V13.2h0l-.78-1.85-.08,0-.08,0-.75,1.79V12.2a.76.76,0,0,0-.76-.76.75.75,0,0,0-.53.22.77.77,0,0,0-.22.54V13l-.38-1.24-.08-.06a.34.34,0,0,0,.24-.11.34.34,0,0,0,.07-.22M82,13.2H80.71l.66-1.57Zm-1.68-1v1H79.22v-1a.52.52,0,0,1,.16-.4.56.56,0,0,1,.4-.17.57.57,0,0,1,.57.57m-1.92-.78a.13.13,0,0,1,.13-.14.14.14,0,0,1,.14.14.13.13,0,0,1-.14.13.13.13,0,0,1-.13-.13m.13.72.33,1.06h-.65Zm-.5,1.25H89.39v.3H78.06Zm7,2.23H82.43V13.88H85Zm-7-1.31h.61v.9h-.61Zm0,1.08h.7l.09-.09V14.22l-.09-.1h-.7v-.24h4.18v1.74H78.06Zm-.19-3.72.09-.1.07,0h0l0,.07,0,.07h0l-.08,0Zm0,4.57h.48v2h-.48Zm-.66,0h.48v2h-.48Zm0,4.33h.48v2h-.48Zm0,4.33h.48v2h-.48Zm1.14,5.59-.17-.25c-.11-.17-.21-.35-.31-.54v-.47h.48Zm.67.72h-.07a6,6,0,0,1-.41-.47V29.23H79Zm4.64,2.25a8.71,8.71,0,0,0-1.08-.38h0a15.85,15.85,0,0,1-1.79-.61,5.35,5.35,0,0,1-.93-.52,5,5,0,0,1-.67-.55h4.51Zm-4.46-4.23h.49v2h-.49Zm.67,0h.48v2h-.48Zm.67,0H81v2h-.48Zm.66,0h.48v2h-.48Zm.67,0h.48v2h-.48Zm.67,0H83v2h-.48Zm1.12,2h-.46v-2h.46Zm0-2.17H77.56a6.16,6.16,0,0,1-.28-1,6.64,6.64,0,0,1-.1-1h6.45ZM77.84,24.9h.48v2h-.48Zm.67,0H79v2h-.48Zm.66,0h.49v2h-.49Zm.67,0h.48v2h-.48Zm.67,0H81v2h-.48Zm.66,0h.48v2h-.48Zm.67,0h.48v2h-.48Zm.67,0H83v2h-.48Zm1.12,2h-.46v-2h.46Zm0-2.16H77.18v-2h6.45Zm-5.79-4.15h.48v2h-.48Zm.67,0H79v2h-.48Zm.66,0h.49v2h-.49Zm.67,0h.48v2h-.48Zm.67,0H81v2h-.48Zm.66,0h.48v2h-.48Zm.67,0h.48v2h-.48Zm.67,0H83v2h-.48Zm1.12,2h-.46v-2h.46Zm0-2.16H77.18v-2h6.45Zm-5.12-4.15H79v2h-.48Zm.66,0h.49v2h-.49Zm.67,0h.48v2h-.48Zm.67,0H81v2h-.48Zm.66,0h.48v2h-.48Zm.67,0h.48v2h-.48Zm.67,0H83v2h-.48Zm1.12,2h-.46v-2h.46Zm-5.57-2.41H89.39v.25H78.06Zm6.24.43V27.72a1,1,0,0,0-.48.29V16.24Zm-.48,17.21v-.51l.37.37-.37.14m1.07-.36-.51.15-.56-.56V32l1.08,1.08Zm.22-.07-1.29-1.28v-.68l1.81,1.8-.52.16m.71-.22-2-2v-.68l2.51,2.51-.51.18m.91-.34-.22.09-2.69-2.7v-.68L87,32.34l-.26.12m.43-.21-3.34-3.34v-.62l0,0L87.58,32l-.42.26m.58-.36L84,28.12a.83.83,0,0,1,.45-.24l3.7,3.71-.38.3m.52-.43-3.55-3.55a1.44,1.44,0,0,1,.49.32l.09,0,.06-.07.08-.24,3.18,3.18-.35.33m.47-.47-3.22-3.22a.86.86,0,0,1,.11-.19H86l3,3c-.1.13-.2.25-.31.37m.59-.77-.17.24-2.89-2.88h.68l2.48,2.47-.1.17m.19-.34-2.31-2.3h.68l1.86,1.85c-.07.15-.15.31-.23.45m.31-.63-1.68-1.67h.36a1.71,1.71,0,0,1,.27.61l.07.07.08,0a2.23,2.23,0,0,1,.32-.25l.76.76c0,.17-.12.33-.18.5m.23-.71-.63-.63.17,0a.77.77,0,0,1,.57.24c0,.14-.07.28-.11.42m.23-1.64a6.77,6.77,0,0,1-.09,1,.87.87,0,0,0-.37-.19V16.24h.46ZM88,14.12h-.36a.31.31,0,0,0-.21.09.29.29,0,0,0-.09.21v.68a.29.29,0,0,0,.09.21.3.3,0,0,0,.21.08H88a.3.3,0,0,0,.21-.08l0,0h0a.26.26,0,0,0,.07-.18v-.68a.32.32,0,0,0-.08-.21.36.36,0,0,0-.22-.09m.12,1,0,.08-.08,0h-.36l-.08,0,0-.08v-.68l0-.08.08,0H88l.08,0,0,.08Zm-2.4-1-.09.1V15.3l.09.09h1.21L87,15.3V14.22l-.09-.1Zm1.12,1.09h-1v-.9h1Zm-3.77.1a2.13,2.13,0,0,0,1.35,0c.21-.08.32-.21.32-.35a1,1,0,0,0-2,0c0,.14.11.27.32.35m.68-1.09c.3,0,.81.42.81.74,0,.06-.08.13-.21.18a1.71,1.71,0,0,1-.6.1,1.77,1.77,0,0,1-.61-.1c-.13-.05-.2-.12-.2-.18,0-.32.51-.74.81-.74m-3.19-.1-.09.1V15.3l.09.09h1.21l.09-.09V14.22l-.09-.1Zm1.11,1.09h-1v-.9h1Zm-1.82-1.09h-.36a.31.31,0,0,0-.21.09.29.29,0,0,0-.09.21v.68a.29.29,0,0,0,.09.21.3.3,0,0,0,.21.08h.36a.3.3,0,0,0,.21-.08l0,0h0a.29.29,0,0,0,.07-.18v-.68a.29.29,0,0,0-.09-.21.31.31,0,0,0-.21-.09m.12,1,0,.08-.08,0h-.36l-.08,0,0-.08v-.68l0-.08.08,0h.36l.08,0,0,.08Zm4.13-4.78a.45.45,0,0,0,.16-.33.44.44,0,0,0-.16-.33.54.54,0,0,0-.35-.13.55.55,0,0,0-.36.13.42.42,0,0,0,0,.66.55.55,0,0,0,.36.13.54.54,0,0,0,.35-.13M83.4,10a.25.25,0,0,1,.09-.19.33.33,0,0,1,.24-.08A.31.31,0,0,1,84,9.8a.25.25,0,0,1,0,.38.36.36,0,0,1-.23.08.38.38,0,0,1-.24-.08A.25.25,0,0,1,83.4,10m2.68,1.27a.41.41,0,1,0-.4-.41.41.41,0,0,0,.4.41m0-.63a.22.22,0,1,1-.22.22.22.22,0,0,1,.22-.22m1.59.77a.33.33,0,1,0-.33-.33.33.33,0,0,0,.33.33m0-.47a.14.14,0,1,1,0,.28.14.14,0,1,1,0-.28m-6.3.33a.41.41,0,1,0,0-.82.45.45,0,0,0-.29.12.4.4,0,0,0-.12.29.41.41,0,0,0,.41.41m-.16-.57.16-.06a.22.22,0,1,1,0,.44L81.21,11l-.06-.16Zm-1.43.71a.33.33,0,1,0-.33-.33.33.33,0,0,0,.33.33m0-.47a.14.14,0,1,1,0,.28.14.14,0,0,1,0-.28"/><path class="cls-4" d="M30.79,45.21c0,.56.09.74.2.79a.63.63,0,0,0,.3,0q.09,0,.09.06c0,.06-.05.07-.13.07-.37,0-.6,0-.71,0l-.61,0c-.08,0-.13,0-.13-.07s0-.06.09-.06a.77.77,0,0,0,.26,0c.15-.06.17-.27.18-.89l.05-4.2c0-.14,0-.24.07-.24s.12.09.21.22.94,1.24,1.77,2.27c.39.48,1.16,1.51,1.26,1.63h0l-.06-3.21c0-.43-.06-.57-.19-.64a.85.85,0,0,0-.31,0q-.09,0-.09-.06c0-.06.06-.07.15-.07l.69,0,.56,0c.07,0,.13,0,.13.07s0,.06-.1.06a.5.5,0,0,0-.17,0c-.16.06-.21.21-.21.61l-.07,4.5c0,.15,0,.22-.07.22s-.13-.08-.19-.16c-.36-.43-1.1-1.36-1.69-2.1s-1.25-1.64-1.36-1.77h0Z"/><path class="cls-4" d="M36,44.65s0,0,0,0l-.27.82a1.34,1.34,0,0,0-.07.37c0,.11,0,.17.2.17h.07c.06,0,.08,0,.08.07s0,.06-.08.06l-.56,0-.59,0c-.06,0-.09,0-.09-.06s0-.07.06-.07h.15c.23,0,.31-.23.41-.54l1.32-3.78c0-.18.09-.25.15-.25s.09.06.14.2c.12.33,1,2.78,1.28,3.7.2.55.34.63.43.65a.65.65,0,0,0,.19,0,.06.06,0,0,1,.07.07c0,.05,0,.06-.22.06h-1c-.1,0-.15,0-.15-.05s0-.06.06-.07.07-.06.05-.13l-.39-1.23s0,0-.05,0Zm1.07-.34s0,0,0,0l-.47-1.52s0-.06,0-.06,0,0,0,.06l-.49,1.51s0,0,0,0Z"/><path class="cls-4" d="M39.66,42l-.75,0c-.29,0-.41,0-.48.18a1,1,0,0,0-.09.21s0,.08-.06.08,0,0,0-.1.1-.68.11-.73,0-.12,0-.12.1.05.22.07a4.07,4.07,0,0,0,.5,0h2a1.35,1.35,0,0,0,.34,0l.14,0s0,0,0,.13,0,.58,0,.74,0,.1-.05.1,0,0-.06-.13v-.06c0-.16-.14-.34-.59-.35h-.64v2.45c0,.56,0,1,0,1.3s0,.28.2.31a1,1,0,0,0,.25,0,.07.07,0,0,1,.08.07s0,.06-.1.06l-.81,0-.65,0c-.06,0-.1,0-.1-.06a.07.07,0,0,1,.08-.07.44.44,0,0,0,.18,0c.1,0,.13-.14.15-.32s0-.73,0-1.29Z"/><path class="cls-4" d="M42.6,43.35V42.07c0-.21-.07-.28-.17-.32a.58.58,0,0,0-.19,0c-.05,0-.08,0-.08-.07s0,0,.12,0H43.6c.06,0,.1,0,.1,0s0,.07-.08.07l-.14,0c-.14,0-.18.11-.19.33s0,.36,0,1.28v1.07c0,.58,0,1.07,0,1.33s.05.25.2.28a1.06,1.06,0,0,0,.25,0,.07.07,0,0,1,.08.07s0,.06-.09.06l-.81,0-.66,0c-.06,0-.1,0-.1-.06a.07.07,0,0,1,.08-.07.44.44,0,0,0,.18,0c.1,0,.13-.11.15-.29s0-.74,0-1.32Z"/><path class="cls-4" d="M44.32,43.89a2.18,2.18,0,0,1,2.11-2.38,2,2,0,0,1,2,2.27,2.22,2.22,0,0,1-2.11,2.48,2.15,2.15,0,0,1-2-2.37m3.41.11c0-1.34-.64-2.17-1.45-2.17-.56,0-1.22.37-1.22,1.87,0,1.25.57,2.23,1.52,2.23.35,0,1.15-.2,1.15-1.93"/><path class="cls-4" d="M49.73,45.35c0,.47.07.62.17.66a.59.59,0,0,0,.26,0c.06,0,.09,0,.09.07s0,.06-.12.06l-.65,0-.54,0c-.07,0-.11,0-.11-.06a.07.07,0,0,1,.08-.07.58.58,0,0,0,.22,0c.14,0,.15-.2.16-.73l0-3.59c0-.12,0-.21.09-.21s.13.09.22.2.81,1,1.54,1.93c.34.42,1,1.28,1.09,1.36h0l0-2.69c0-.37-.05-.48-.17-.54a.86.86,0,0,0-.27,0c-.06,0-.08,0-.08-.07s.06,0,.13,0H53c.07,0,.11,0,.11,0a.07.07,0,0,1-.08.07.5.5,0,0,0-.16,0c-.13,0-.17.16-.18.5l-.06,3.82c0,.13,0,.19-.08.19a.27.27,0,0,1-.2-.13c-.32-.36-.94-1.11-1.47-1.74s-1.08-1.39-1.17-1.5h0Z"/><path class="cls-4" d="M54.43,44.65s0,0,0,0l-.27.82a1.34,1.34,0,0,0-.07.37c0,.11,0,.17.2.17h.07c.07,0,.08,0,.08.07s0,.06-.08.06l-.56,0-.58,0c-.07,0-.1,0-.1-.06s0-.07.06-.07h.15c.23,0,.31-.23.42-.54L55,41.73c.06-.18.1-.25.15-.25s.09.06.15.2c.12.33.95,2.78,1.27,3.7.2.55.34.63.43.65a.68.68,0,0,0,.19,0s.07,0,.07.07,0,.06-.22.06h-1c-.09,0-.15,0-.15-.05s0-.06.06-.07.07-.06,0-.13l-.39-1.23s0,0,0,0Zm1.07-.34s0,0,0,0l-.47-1.52s0-.06,0-.06,0,0,0,.06l-.49,1.51s0,0,0,0Z"/><path class="cls-4" d="M58.49,44.42c0,.78,0,1.16.11,1.28s.28.12.66.12.47,0,.59-.17a.86.86,0,0,0,.13-.36c0-.06,0-.09.05-.09s0,.06,0,.13A5.64,5.64,0,0,1,60,46c0,.14-.06.17-.32.17s-.65,0-.9,0H57.48q-.09,0-.09-.06s0-.07.08-.07a.42.42,0,0,0,.17,0c.11,0,.14-.14.15-.32s0-.73,0-1.29V43.35c0-.92,0-1.09,0-1.28s-.06-.27-.22-.33l-.16,0c-.06,0-.09,0-.09-.07s0,0,.11,0h1.42c.07,0,.1,0,.1,0s0,.07-.09.07l-.19,0c-.14,0-.18.11-.19.33s0,.36,0,1.28Z"/><path class="cls-4" d="M62.79,42.86c0-1.08,0-1.28,0-1.51s-.06-.36-.25-.41l-.22,0c-.06,0-.1,0-.1-.06s0-.07.13-.07l.78,0,.8,0a1.5,1.5,0,0,1,1,.31,1.33,1.33,0,0,1,.39,1,2.13,2.13,0,0,1-.75,1.6c.51.8.9,1.43,1.24,1.88a1.08,1.08,0,0,0,.64.48.47.47,0,0,0,.16,0,.05.05,0,0,1,.06.06c0,.06,0,.07-.1.07h-.55a1,1,0,0,1-.61-.13,3.4,3.4,0,0,1-.78-1c-.23-.39-.49-.88-.56-1A.13.13,0,0,0,64,44h-.49s0,0,0,.06v.1c0,.66,0,1.22,0,1.52s0,.36.22.39a1.49,1.49,0,0,0,.28,0c.05,0,.07,0,.07.06s0,.07-.11.07l-.84,0-.7,0c-.07,0-.11,0-.11-.07s0-.06.09-.06a.62.62,0,0,0,.21,0c.11,0,.14-.18.16-.39s0-.86,0-1.52Zm.67.56c0,.08,0,.11,0,.13a1.23,1.23,0,0,0,.44.07.48.48,0,0,0,.4-.12,1.42,1.42,0,0,0,.34-1.07c0-1-.54-1.3-.87-1.3a1.2,1.2,0,0,0-.31,0s0,.05,0,.1Z"/><path class="cls-4" d="M67,43.35V42.07c0-.21-.06-.27-.22-.33l-.2,0s-.09,0-.09-.07,0,0,.12,0h2.09l.21,0,.08,0s0,0,0,.05a3.4,3.4,0,0,0,0,.4c0,.06,0,.32,0,.4s0,.1-.06.1,0,0,0-.08a.61.61,0,0,0,0-.22c0-.11-.08-.2-.33-.22-.09,0-.69,0-.79,0a0,0,0,0,0,0,0v1.5s0,.06,0,.06h.88a.36.36,0,0,0,.24-.09c0-.05,0-.08.08-.08s0,0,0,.06,0,.14,0,.45c0,.12,0,.36,0,.4s0,.14,0,.14,0,0,0,0,0-.15,0-.22a.28.28,0,0,0-.28-.24l-.79,0s0,0,0,.07v1.38c0,.41.17.51.68.51a1.16,1.16,0,0,0,.48-.08c.12-.07.18-.2.21-.45,0-.07,0-.09.06-.09s0,.07,0,.14a4.9,4.9,0,0,1-.07.67c0,.15-.08.15-.27.15-.38,0-.68,0-.92,0H66.65c-.06,0-.1,0-.1-.06a.07.07,0,0,1,.08-.07.47.47,0,0,0,.18,0c.1,0,.13-.14.15-.32s0-.73,0-1.29Z"/><path class="cls-4" d="M70,46.1c-.08,0-.09-.07-.09-.21,0-.32,0-.7,0-.8s0-.16.07-.16S70,45,70,45a2.14,2.14,0,0,0,0,.32.78.78,0,0,0,.8.6.71.71,0,0,0,.7-.77,1,1,0,0,0-.5-.86l-.29-.21A1.59,1.59,0,0,1,70,42.73a1.21,1.21,0,0,1,1.27-1.22,2.45,2.45,0,0,1,.71.1s.07,0,.07.08,0,.25,0,.73c0,.13,0,.19-.07.19s0,0,0-.11a.8.8,0,0,0-.13-.4.62.62,0,0,0-.56-.28.64.64,0,0,0-.68.65c0,.27.08.48.53.8l.2.14a1.67,1.67,0,0,1,.87,1.47,1.42,1.42,0,0,1-.5,1.13,1.26,1.26,0,0,1-.84.25A1.8,1.8,0,0,1,70,46.1"/><path class="cls-4" d="M73.23,43.35V42.07c0-.21-.06-.27-.22-.33l-.2,0s-.08,0-.08-.07,0,0,.11,0h2.09l.21,0,.08,0s0,0,0,.05a3.4,3.4,0,0,0,0,.4c0,.06,0,.32,0,.4s0,.1-.06.1,0,0,0-.08a.61.61,0,0,0,0-.22c0-.11-.08-.2-.33-.22-.09,0-.69,0-.79,0s0,0,0,0v1.5s0,.06,0,.06h.88a.36.36,0,0,0,.24-.09c0-.05.06-.08.08-.08s0,0,0,.06,0,.14,0,.45c0,.12,0,.36,0,.4s0,.14-.06.14,0,0,0,0,0-.15,0-.22a.28.28,0,0,0-.28-.24l-.78,0s0,0,0,.07v.48c0,.21,0,.72,0,.9,0,.41.16.51.67.51a1.13,1.13,0,0,0,.48-.08c.12-.07.18-.2.21-.45,0-.07,0-.09.06-.09s0,.07,0,.14a4.9,4.9,0,0,1-.07.67c0,.15-.08.15-.27.15-.37,0-.68,0-.92,0H72.9c-.06,0-.1,0-.1-.06a.07.07,0,0,1,.08-.07.44.44,0,0,0,.18,0c.1,0,.13-.14.15-.32s0-.73,0-1.29Z"/><path class="cls-4" d="M76.74,44.65s0,0,0,0l-.27.82a1.34,1.34,0,0,0-.07.37c0,.11,0,.17.2.17h.07c.06,0,.08,0,.08.07s0,.06-.08.06l-.56,0-.59,0c-.06,0-.09,0-.09-.06s0-.07.06-.07h.15c.23,0,.31-.23.41-.54l1.32-3.78c.05-.18.09-.25.15-.25s.09.06.14.2c.12.33,1,2.78,1.28,3.7.2.55.34.63.43.65a.65.65,0,0,0,.19,0,.06.06,0,0,1,.07.07c0,.05,0,.06-.22.06h-1c-.1,0-.15,0-.15-.05s0-.06.06-.07.07-.06,0-.13L78,44.69s0,0,0,0Zm1.07-.34s0,0,0,0l-.47-1.52s0-.06,0-.06,0,0,0,.06l-.49,1.51s0,0,0,0Z"/><path class="cls-4" d="M80.12,43.35V42.07c0-.21-.06-.27-.22-.33l-.2,0s-.08,0-.08-.07,0,0,.11,0H81.2a1.47,1.47,0,0,1,1,.25,1.18,1.18,0,0,1,.35.84A1.86,1.86,0,0,1,81.81,44c.44.68.79,1.23,1.1,1.61s.45.38.53.4h.12a.08.08,0,0,1,.07.07c0,.05,0,.06-.1.06h-.48a1,1,0,0,1-.55-.12,2.8,2.8,0,0,1-.68-.89c-.2-.33-.41-.74-.48-.83a.11.11,0,0,0-.09,0l-.45,0a0,0,0,0,0,0,0v.09c0,.56,0,1,0,1.29s0,.29.2.32a1,1,0,0,0,.24,0,.07.07,0,0,1,.06.07s0,.06-.1.06l-.78,0-.62,0q-.09,0-.09-.06s0-.07.08-.07A.42.42,0,0,0,80,46c.11,0,.13-.14.15-.32s0-.73,0-1.29Zm.64.47c0,.07,0,.09,0,.11a1.17,1.17,0,0,0,.38,0c.2,0,.27,0,.35-.09a1.12,1.12,0,0,0,.33-.9c0-.86-.47-1.08-.77-1.08l-.29,0s0,0,0,.09Z"/><path class="cls-4" d="M84.09,45.6a2.51,2.51,0,0,1-.63-1.79,2.57,2.57,0,0,1,.59-1.66,2,2,0,0,1,1.59-.64,4.88,4.88,0,0,1,.73.06l.5.11c.06,0,.08,0,.08.07s0,.12,0,.33,0,.54,0,.66,0,.15-.07.15,0,0,0-.13a1,1,0,0,0-.2-.56,1.23,1.23,0,0,0-1-.36,1.16,1.16,0,0,0-.94.34,2.24,2.24,0,0,0-.47,1.58c0,1.44.89,2.12,1.57,2.12.44,0,.69,0,.89-.32a1.19,1.19,0,0,0,.17-.41c0-.09,0-.12.06-.12s.06.06.06.11a7.13,7.13,0,0,1-.11.81.2.2,0,0,1-.13.17,2.38,2.38,0,0,1-.91.14,2.23,2.23,0,0,1-1.72-.66"/><path class="cls-4" d="M90.63,43.57s0,0,0,0V43.4c0-.92,0-1.14,0-1.33s-.06-.27-.22-.33l-.19,0c-.06,0-.09,0-.09-.07s0,0,.11,0h1.4c.07,0,.11,0,.11,0s0,.07-.1.07l-.14,0c-.14,0-.18.11-.19.33s0,.36,0,1.28v1.07c0,.56,0,1,0,1.3s.05.28.2.31a1.1,1.1,0,0,0,.26,0,.08.08,0,0,1,.08.07s0,.06-.1.06l-.79,0-.67,0c-.06,0-.1,0-.1-.06a.07.07,0,0,1,.08-.07.47.47,0,0,0,.18,0c.1,0,.13-.14.15-.32s0-.72,0-1.28V44a0,0,0,0,0,0,0H88.74s0,0,0,0v.46c0,.56,0,1,0,1.29s0,.28.19.31a1.14,1.14,0,0,0,.26,0,.07.07,0,0,1,.08.07s0,.06-.1.06l-.82,0-.64,0c-.06,0-.1,0-.1-.06a.07.07,0,0,1,.08-.07.5.5,0,0,0,.18,0c.1,0,.13-.14.15-.32s0-.73,0-1.29V43.35c0-.92,0-1.09,0-1.28s0-.27-.21-.33l-.2,0s-.09,0-.09-.07,0,0,.11,0H89c.07,0,.11,0,.11,0s0,.07-.1.07l-.14,0c-.14,0-.17.11-.19.33s0,.41,0,1.33v.13a0,0,0,0,0,0,0Z"/><path class="cls-4" d="M93,45.16s.06,0,.14.18a.75.75,0,0,1,.12.37,1.28,1.28,0,0,1-.07.34,4.44,4.44,0,0,1-.45,1s-.06.09-.1.09a.1.1,0,0,1,0-.08.84.84,0,0,1,0-.12,1.45,1.45,0,0,0,.17-.62c0-.4-.24-.52-.24-.62a.53.53,0,0,1,.43-.49"/><path class="cls-4" d="M96.11,43.35V42.07c0-.21-.06-.27-.22-.33l-.2,0s-.09,0-.09-.07,0,0,.12,0h1.54a2.36,2.36,0,0,1,2,.69,2.43,2.43,0,0,1,.47,1.54,2.65,2.65,0,0,1-.55,1.69,2.12,2.12,0,0,1-1.68.71c-.18,0-.4,0-.6,0l-.51,0h-.63c-.06,0-.1,0-.1-.06a.07.07,0,0,1,.08-.07.47.47,0,0,0,.18,0c.1,0,.13-.14.15-.32s0-.73,0-1.29Zm.67.67c0,.64,0,1.11,0,1.23a1.17,1.17,0,0,0,0,.42c.07.12.26.25.66.25a1.34,1.34,0,0,0,1.09-.42A2.09,2.09,0,0,0,99,44a2.19,2.19,0,0,0-.47-1.51,1.78,1.78,0,0,0-1.4-.58.86.86,0,0,0-.31,0,.12.12,0,0,0-.06.12c0,.21,0,.71,0,1.19Z"/><path class="cls-4" d="M100.79,43.35V42.07c0-.21-.06-.27-.22-.33l-.2,0c-.05,0-.08,0-.08-.07s0,0,.11,0h2.09l.22,0a.19.19,0,0,1,.08,0s0,0,0,.05a3.4,3.4,0,0,0,0,.4c0,.06,0,.32,0,.4s0,.1-.06.1,0,0,0-.08a.61.61,0,0,0,0-.22c0-.11-.08-.2-.33-.22-.09,0-.69,0-.79,0s0,0,0,0v1.5s0,.06,0,.06h.88a.36.36,0,0,0,.24-.09c0-.05.06-.08.08-.08s0,0,0,.06,0,.14,0,.45c0,.12,0,.36,0,.4s0,.14-.05.14,0,0,0,0,0-.15,0-.22a.28.28,0,0,0-.28-.24l-.78,0s0,0,0,.07v.48c0,.21,0,.72,0,.9,0,.41.16.51.68.51a1.11,1.11,0,0,0,.47-.08c.13-.07.18-.2.22-.45,0-.07,0-.09,0-.09s0,.07,0,.14a4.9,4.9,0,0,1-.07.67c0,.15-.08.15-.27.15-.37,0-.68,0-.92,0h-1.22q-.09,0-.09-.06s0-.07.08-.07a.42.42,0,0,0,.17,0c.11,0,.13-.14.15-.32s0-.73,0-1.29Z"/><path class="cls-4" d="M103.63,42.19c-.11-.34-.18-.39-.37-.45a.72.72,0,0,0-.19,0s-.06,0-.06-.07,0,0,.13,0h1.37c.06,0,.12,0,.12,0a.07.07,0,0,1-.08.07.37.37,0,0,0-.2,0,.15.15,0,0,0,0,.12,2.05,2.05,0,0,0,.12.46l.84,2.72h0c.21-.63.86-2.59,1-3a1,1,0,0,0,0-.22.09.09,0,0,0-.06-.1.69.69,0,0,0-.2,0c-.05,0-.09,0-.09-.07s0,0,.14,0h1c.07,0,.11,0,.11,0s0,.07-.08.07a.33.33,0,0,0-.25.07,1.26,1.26,0,0,0-.26.53c-.2.57-.33.9-.61,1.64s-.55,1.55-.66,1.86-.18.44-.24.44-.11-.08-.21-.36Z"/><path class="cls-4" d="M107.74,43.35V42.07c0-.21-.06-.27-.22-.33l-.2,0s-.09,0-.09-.07,0,0,.12,0h2.09l.21,0,.08,0s0,0,0,.05a3.4,3.4,0,0,0,0,.4c0,.06,0,.32,0,.4s0,.1-.06.1,0,0,0-.08a.61.61,0,0,0,0-.22c0-.11-.08-.2-.33-.22-.09,0-.69,0-.79,0s0,0,0,0v1.5s0,.06,0,.06h.88a.36.36,0,0,0,.24-.09c0-.05.05-.08.08-.08s0,0,0,.06,0,.14,0,.45c0,.12,0,.36,0,.4s0,.14-.05.14,0,0,0,0,0-.15,0-.22a.28.28,0,0,0-.28-.24l-.79,0s0,0,0,.07v.48c0,.21,0,.72,0,.9,0,.41.16.51.67.51a1.13,1.13,0,0,0,.48-.08c.12-.07.18-.2.21-.45,0-.07,0-.09.06-.09s0,.07,0,.14a4.9,4.9,0,0,1-.07.67c0,.15-.08.15-.27.15-.38,0-.68,0-.92,0h-1.22c-.06,0-.1,0-.1-.06a.07.07,0,0,1,.08-.07.47.47,0,0,0,.18,0c.1,0,.13-.14.15-.32s0-.73,0-1.29Z"/><path class="cls-4" d="M111.59,44.42c0,.78,0,1.16.1,1.28s.28.12.67.12.46,0,.59-.17a1,1,0,0,0,.13-.36c0-.06,0-.09,0-.09s.05.06.05.13a6,6,0,0,1-.08.7c0,.14,0,.17-.32.17s-.65,0-.9,0h-1.3c-.06,0-.1,0-.1-.06a.07.07,0,0,1,.08-.07.44.44,0,0,0,.18,0c.1,0,.13-.14.15-.32s0-.73,0-1.29V42.07c0-.21-.06-.27-.22-.33l-.17,0s-.08,0-.08-.07,0,0,.11,0H112c.08,0,.11,0,.11,0s0,.07-.09.07l-.19,0c-.14,0-.18.11-.19.33s0,.36,0,1.28Z"/><path class="cls-4" d="M113.4,43.89a2.18,2.18,0,0,1,2.11-2.38,2,2,0,0,1,2,2.27,2.22,2.22,0,0,1-2.11,2.48,2.15,2.15,0,0,1-2-2.37m3.41.11c0-1.34-.64-2.17-1.45-2.17-.56,0-1.22.37-1.22,1.87,0,1.25.57,2.23,1.52,2.23.35,0,1.15-.2,1.15-1.93"/><path class="cls-4" d="M118.49,43.35V42.07c0-.21-.06-.27-.22-.33l-.2,0s-.08,0-.08-.07,0,0,.11,0h1.56a1.12,1.12,0,0,1,.93.34,1.18,1.18,0,0,1,.25.73,1.34,1.34,0,0,1-1.26,1.47h-.15a.07.07,0,0,1-.06-.07c0-.05.06-.08.17-.08.28,0,.67-.36.67-1a1.3,1.3,0,0,0-.3-.9.64.64,0,0,0-.5-.22.75.75,0,0,0-.22,0,.15.15,0,0,0,0,.12v2.4c0,.56,0,1,0,1.3s0,.28.19.31a1.14,1.14,0,0,0,.26,0,.07.07,0,0,1,.08.07s0,.06-.09.06l-.82,0-.64,0q-.09,0-.09-.06s0-.07.08-.07a.42.42,0,0,0,.17,0c.1,0,.13-.14.15-.32s0-.73,0-1.29Z"/><path class="cls-4" d="M122.08,41.65c0-.1.06-.16.1-.16s.08,0,.15.19L123.68,45,125,41.64c0-.1.09-.15.14-.15s.09.06.11.19l.46,3.73c0,.38.09.54.24.6a.9.9,0,0,0,.29.06s.08,0,.08,0-.06.08-.13.08l-1,0c-.12,0-.15,0-.15-.07s0-.05.06-.07,0-.08,0-.25l-.28-2.62h0l-1.08,2.68c-.11.29-.14.34-.2.34s-.11-.12-.19-.3-.52-1.21-.58-1.38-.34-.85-.5-1.27h0L122,45.56c0,.11,0,.19,0,.29s.07.15.16.17a.43.43,0,0,0,.17,0s.08,0,.08.06,0,.07-.12.07l-.53,0-.49,0s-.1,0-.1-.07,0-.06.09-.06h.15c.14,0,.18-.27.2-.47Z"/><path class="cls-4" d="M127.16,43.35c0-.92,0-1.09,0-1.28s-.05-.27-.21-.33l-.21,0s-.08,0-.08-.07,0,0,.11,0h2.1l.21,0,.08,0s0,0,0,.05a3.4,3.4,0,0,0,0,.4,2.91,2.91,0,0,1,0,.4s0,.1-.05.1,0,0,0-.08a.64.64,0,0,0,0-.22c0-.11-.08-.2-.33-.22-.08,0-.68,0-.79,0s0,0,0,0v1.5s0,.06,0,.06h.88a.36.36,0,0,0,.24-.09c0-.05.06-.08.08-.08s0,0,0,.06,0,.14,0,.45c0,.12,0,.36,0,.4s0,.14,0,.14-.05,0-.05,0a1.62,1.62,0,0,0,0-.22.29.29,0,0,0-.28-.24l-.79,0s0,0,0,.07v1.38c0,.41.17.51.68.51a1.11,1.11,0,0,0,.47-.08c.13-.07.19-.2.22-.45,0-.07,0-.09.06-.09s0,.07,0,.14a4.9,4.9,0,0,1-.07.67c0,.15-.08.15-.26.15-.38,0-.68,0-.93,0h-1.21c-.07,0-.1,0-.1-.06a.07.07,0,0,1,.08-.07.5.5,0,0,0,.18,0c.1,0,.13-.14.14-.32s0-.73,0-1.29Z"/><path class="cls-4" d="M130.64,45.35c0,.47.08.62.17.66a.66.66,0,0,0,.27,0,.07.07,0,0,1,.08.07c0,.05,0,.06-.11.06-.33,0-.56,0-.65,0l-.55,0c-.06,0-.11,0-.11-.06a.08.08,0,0,1,.08-.07.61.61,0,0,0,.23,0c.13,0,.15-.2.15-.73l.05-3.59c0-.12,0-.21.08-.21s.14.09.22.2.82,1,1.55,1.93L133.18,45h0l0-2.69c0-.37-.05-.48-.17-.54a.77.77,0,0,0-.26,0c-.06,0-.08,0-.08-.07s.05,0,.13,0h1.12c.07,0,.12,0,.12,0s0,.07-.09.07a.41.41,0,0,0-.15,0c-.14,0-.18.16-.18.5l-.06,3.82c0,.13,0,.19-.08.19a.28.28,0,0,1-.21-.13c-.31-.36-.94-1.11-1.46-1.74s-1.08-1.39-1.18-1.5h0Z"/><path class="cls-4" d="M135.79,42l-.74,0c-.3,0-.41,0-.49.18a.83.83,0,0,0-.08.21s0,.08-.06.08,0,0,0-.1.1-.68.11-.73,0-.12.06-.12.09.05.21.07a4.12,4.12,0,0,0,.51,0h2a1.5,1.5,0,0,0,.35,0l.13,0s0,0,0,.13,0,.58,0,.74,0,.1,0,.1-.06,0-.06-.13v-.06c0-.16-.14-.34-.59-.35h-.63v2.45c0,.56,0,1,0,1.3s0,.28.19.31a1.1,1.1,0,0,0,.26,0,.08.08,0,0,1,.08.07s0,.06-.1.06l-.81,0-.66,0q-.09,0-.09-.06s0-.07.08-.07a.42.42,0,0,0,.17,0c.1,0,.13-.14.15-.32s0-.73,0-1.29Z"/><path class="cls-4" d="M46.8,53.2s0,0,0,0l-.27.82a1.45,1.45,0,0,0-.08.37c0,.1.05.17.2.17h.08c.06,0,.07,0,.07.06s0,.07-.08.07l-.56,0-.58,0c-.06,0-.09,0-.09-.07a.06.06,0,0,1,.06-.06h.14c.23,0,.32-.23.42-.53l1.31-3.79c.06-.17.1-.24.15-.24s.1.06.15.19L49,53.94c.19.55.33.63.43.65l.18,0s.07,0,.07.06,0,.07-.21.07-.55,0-1,0c-.09,0-.15,0-.15,0s0-.05.07-.06a.12.12,0,0,0,0-.14L48,53.25s0,0-.05,0Zm1.07-.33s0,0,0,0l-.48-1.52s0-.05,0-.05,0,0,0,.05l-.48,1.52s0,0,0,0Z"/><path class="cls-4" d="M50.5,53.91c0,.47.08.61.17.66a.88.88,0,0,0,.27,0c.05,0,.08,0,.08.06s0,.07-.11.07c-.33,0-.56,0-.65,0l-.54,0c-.07,0-.12,0-.12-.07s0-.06.08-.06a.91.91,0,0,0,.23,0c.13,0,.15-.21.15-.73l0-3.6c0-.12,0-.2.08-.2s.14.09.22.2.82,1,1.55,1.93L53,53.54h0L53,50.84c0-.37,0-.47-.17-.53a.59.59,0,0,0-.26,0c-.06,0-.08,0-.08-.06s0-.06.12-.06l.64,0,.49,0c.07,0,.12,0,.12.06s0,.06-.09.06a.29.29,0,0,0-.15,0c-.14.05-.18.15-.18.5l-.06,3.82c0,.13,0,.19-.08.19s-.15-.07-.21-.13c-.31-.36-.94-1.11-1.46-1.75s-1.08-1.39-1.18-1.49h0Z"/><path class="cls-4" d="M55,51.91c0-.92,0-1.09,0-1.29s-.06-.27-.22-.32a.53.53,0,0,0-.2,0c-.05,0-.08,0-.08-.06s0-.06.11-.06l.73,0,.81,0a2.34,2.34,0,0,1,2,.7,2.39,2.39,0,0,1,.47,1.53,2.67,2.67,0,0,1-.54,1.69,2.09,2.09,0,0,1-1.69.72c-.18,0-.39,0-.59,0l-.51,0H55l-.35,0c-.06,0-.09,0-.09-.07s0-.06.08-.06l.17,0c.11,0,.14-.15.15-.32s0-.74,0-1.29Zm.67.67c0,.64,0,1.1,0,1.22a1.47,1.47,0,0,0,.06.43c.06.12.26.24.65.24a1.39,1.39,0,0,0,1.1-.41,2.15,2.15,0,0,0,.43-1.5A2.3,2.3,0,0,0,57.44,51a1.77,1.77,0,0,0-1.4-.57.83.83,0,0,0-.31,0s-.06.05-.06.12,0,.71,0,1.18Z"/><path class="cls-4" d="M61.55,51.41c0-1.08,0-1.28,0-1.51s-.07-.36-.19-.4a.75.75,0,0,0-.21,0c-.06,0-.09,0-.09-.08s.05,0,.14,0l.74,0,.69,0c.08,0,.12,0,.12,0s0,.08-.09.08a.56.56,0,0,0-.17,0c-.15,0-.2.15-.21.4s0,.43,0,1.51v1.26c0,.69,0,1.25,0,1.56s.06.32.23.35l.29,0c.06,0,.09,0,.09,0s0,.08-.11.08l-.89,0-.72,0c-.07,0-.11,0-.11-.08s0,0,.09,0a1,1,0,0,0,.21,0c.11,0,.14-.15.16-.36s0-.86,0-1.55Z"/><path class="cls-4" d="M64.21,53.91c0,.47.08.61.18.66a.78.78,0,0,0,.26,0c.06,0,.08,0,.08.06s0,.07-.11.07c-.33,0-.56,0-.65,0l-.54,0c-.07,0-.12,0-.12-.07s0-.06.08-.06a.91.91,0,0,0,.23,0c.13,0,.15-.21.16-.73l0-3.6c0-.12,0-.2.09-.2s.13.09.21.2.82,1,1.55,1.93l1.08,1.36h0l0-2.7c0-.37-.06-.47-.18-.53a.59.59,0,0,0-.26,0c-.06,0-.08,0-.08-.06s.05-.06.13-.06l.64,0s.24,0,.49,0c.07,0,.11,0,.11.06s0,.06-.08.06a.3.3,0,0,0-.16,0c-.14.05-.18.15-.18.5l-.06,3.82c0,.13,0,.19-.08.19a.3.3,0,0,1-.2-.13c-.32-.36-.95-1.11-1.47-1.75s-1.08-1.39-1.18-1.49h0Z"/><path class="cls-4" d="M69,53.91c0,.47.08.61.17.66a.87.87,0,0,0,.26,0c.06,0,.09,0,.09.06s0,.07-.11.07c-.33,0-.56,0-.65,0l-.54,0c-.07,0-.12,0-.12-.07s0-.06.08-.06a.91.91,0,0,0,.23,0c.13,0,.15-.21.15-.73l.05-3.6c0-.12,0-.2.08-.2s.13.09.22.2.82,1,1.55,1.93l1.08,1.36h0l0-2.7c0-.37,0-.47-.17-.53a.59.59,0,0,0-.26,0c-.06,0-.08,0-.08-.06s0-.06.12-.06l.64,0,.49,0c.07,0,.12,0,.12.06s0,.06-.09.06a.29.29,0,0,0-.15,0c-.14.05-.18.15-.18.5l-.06,3.82c0,.13,0,.19-.08.19s-.15-.07-.21-.13c-.31-.36-.94-1.11-1.46-1.75S69.07,51.54,69,51.44h0Z"/><path class="cls-4" d="M72.89,52.44A2.17,2.17,0,0,1,75,50.07a2,2,0,0,1,2,2.26,2.22,2.22,0,0,1-2.11,2.48,2.15,2.15,0,0,1-2-2.37m3.41.12c0-1.34-.64-2.17-1.45-2.17-.56,0-1.22.37-1.22,1.87,0,1.24.57,2.23,1.52,2.23.35,0,1.15-.21,1.15-1.93"/><path class="cls-4" d="M77.68,50.74c-.11-.33-.19-.39-.37-.44a.49.49,0,0,0-.19,0c-.05,0-.06,0-.06-.06s0-.06.13-.06l.73,0,.63,0c.07,0,.12,0,.12.06s0,.06-.08.06a.27.27,0,0,0-.19,0,.15.15,0,0,0-.05.12,1.83,1.83,0,0,0,.11.45l.85,2.72h0c.22-.63.87-2.58,1-3a1.15,1.15,0,0,0,0-.22.1.1,0,0,0-.07-.11.6.6,0,0,0-.2,0s-.08,0-.08-.06,0-.06.14-.06l.54,0,.47,0c.06,0,.1,0,.1.06s0,.06-.08.06a.33.33,0,0,0-.24.08c-.07,0-.13.14-.26.53-.2.57-.34.9-.61,1.64s-.55,1.55-.67,1.85-.17.44-.24.44-.11-.07-.2-.36Z"/><path class="cls-4" d="M81.69,53.2s0,0,0,0l-.27.82a1.45,1.45,0,0,0-.08.37c0,.1,0,.17.2.17h.08c.06,0,.07,0,.07.06s0,.07-.08.07l-.56,0-.58,0c-.06,0-.09,0-.09-.07a.06.06,0,0,1,.06-.06h.15c.22,0,.31-.23.41-.53l1.31-3.79c.06-.17.1-.24.15-.24s.1.06.15.19l1.28,3.71c.19.55.33.63.43.65l.18,0c.05,0,.07,0,.07.06s0,.07-.21.07-.55,0-1,0c-.09,0-.15,0-.15,0s0-.05.07-.06a.12.12,0,0,0,0-.14l-.39-1.22s0,0,0,0Zm1.07-.33s0,0,0,0l-.48-1.52s0-.05,0-.05,0,0,0,.05l-.48,1.52s0,0,0,0Z"/><path class="cls-4" d="M85.38,50.52l-.75,0c-.29,0-.41,0-.49.18a.71.71,0,0,0-.08.21c0,.05,0,.08-.06.08s0,0,0-.1.09-.69.1-.74,0-.11.06-.11a2,2,0,0,0,.22.07,4,4,0,0,0,.5,0h2a2.09,2.09,0,0,0,.34,0l.14,0s0,0,0,.13,0,.58,0,.73,0,.1,0,.1,0,0-.06-.12v-.06c0-.16-.15-.34-.6-.35l-.63,0V53c0,.55,0,1,0,1.29s0,.29.19.32l.26,0c.06,0,.08,0,.08.06s0,.07-.1.07l-.81,0-.65,0c-.07,0-.1,0-.1-.07s0-.06.08-.06l.18,0c.1,0,.13-.15.14-.32s0-.74,0-1.29Z"/><path class="cls-4" d="M88.32,51.91c0-.92,0-1.09,0-1.29s-.06-.27-.17-.32a.52.52,0,0,0-.18,0s-.08,0-.08-.07,0-.05.12-.05l.67,0,.65,0c.06,0,.1,0,.1.05s0,.07-.08.07l-.15,0c-.13,0-.17.11-.19.32s0,.37,0,1.29V53c0,.58,0,1.07,0,1.32s0,.26.2.29l.25,0c.06,0,.08,0,.08.06s0,.07-.09.07l-.82,0-.65,0c-.06,0-.1,0-.1-.07s0-.06.08-.06l.18,0c.1,0,.13-.12.15-.29s0-.74,0-1.32Z"/><path class="cls-4" d="M90,52.44a2.17,2.17,0,0,1,2.1-2.37,2,2,0,0,1,2.06,2.26,2.22,2.22,0,0,1-2.11,2.48,2.15,2.15,0,0,1-2-2.37m3.41.12c0-1.34-.65-2.17-1.46-2.17-.56,0-1.21.37-1.21,1.87,0,1.24.57,2.23,1.52,2.23.35,0,1.15-.21,1.15-1.93"/><path class="cls-4" d="M95.44,53.91c0,.47.08.61.18.66a.78.78,0,0,0,.26,0c.05,0,.08,0,.08.06s0,.07-.11.07c-.33,0-.56,0-.65,0l-.54,0c-.07,0-.12,0-.12-.07s0-.06.08-.06a.91.91,0,0,0,.23,0c.13,0,.15-.21.16-.73l0-3.6c0-.12,0-.2.09-.2s.13.09.21.2.82,1,1.55,1.93L98,53.54h0L98,50.84c0-.37,0-.47-.17-.53a.59.59,0,0,0-.26,0c-.06,0-.08,0-.08-.06s0-.06.13-.06l.64,0c.05,0,.24,0,.49,0,.06,0,.11,0,.11.06s0,.06-.09.06a.29.29,0,0,0-.15,0c-.14.05-.18.15-.18.5l-.06,3.82c0,.13,0,.19-.08.19a.3.3,0,0,1-.2-.13c-.32-.36-1-1.11-1.47-1.75s-1.08-1.39-1.18-1.49h0Z"/><path class="cls-4" d="M101.13,52a2.52,2.52,0,0,1,2.36-2.79c1.42,0,2.3,1,2.3,2.66s-.91,2.93-2.36,2.93c-1.64,0-2.3-1.54-2.3-2.8m3.86.14c0-1.6-.73-2.59-1.67-2.59-.65,0-1.4.46-1.4,2.23,0,1.48.65,2.66,1.75,2.66.4,0,1.32-.24,1.32-2.3"/><path class="cls-4" d="M107.37,53c0,.58,0,1,0,1.27s0,.29.2.32l.24,0c.07,0,.09,0,.09.06s0,.07-.11.07l-.8,0-.64,0c-.07,0-.1,0-.1-.07s0-.06.07-.06l.18,0c.1,0,.13-.15.15-.32s0-.71,0-1.29V51.91c0-.92,0-1.09,0-1.29s0-.27-.21-.32a.56.56,0,0,0-.2,0s-.09,0-.09-.06,0-.06.12-.06l.72,0h1.43l.2,0s0,0,.08,0,0,0,0,.06,0,.11,0,.27,0,.42,0,.49,0,.12,0,.12-.06,0-.06-.1a.64.64,0,0,0,0-.22.33.33,0,0,0-.32-.19l-.83,0s0,0,0,.09v1.46s0,.06,0,.06h.93a.25.25,0,0,0,.21-.11s0-.06.07-.06,0,0,0,.05,0,.2,0,.39,0,.4,0,.45,0,.13-.06.13,0,0,0-.08a.74.74,0,0,0,0-.19.28.28,0,0,0-.24-.22l-.8,0s0,0,0,0Z"/><path class="cls-4" d="M110.49,53c0,.58,0,1,0,1.27s0,.29.2.32l.24,0c.07,0,.09,0,.09.06s0,.07-.11.07l-.8,0-.64,0c-.07,0-.1,0-.1-.07s0-.06.07-.06l.18,0c.1,0,.13-.15.15-.32s0-.71,0-1.29V51.91c0-.92,0-1.09,0-1.29s0-.27-.21-.32a.56.56,0,0,0-.2,0c-.05,0-.09,0-.09-.06s0-.06.12-.06l.72,0h1.43l.2,0s0,0,.08,0,0,0,0,.06,0,.11,0,.27,0,.42,0,.49,0,.12,0,.12-.06,0-.06-.1a.64.64,0,0,0,0-.22.33.33,0,0,0-.32-.19l-.83,0s-.05,0-.05.09v1.46s0,.06,0,.06h.93a.25.25,0,0,0,.21-.11s0-.06.07-.06,0,0,0,.05,0,.2,0,.39,0,.4,0,.45,0,.13-.06.13-.05,0-.05-.08a.74.74,0,0,0,0-.19.28.28,0,0,0-.24-.22l-.8,0s0,0,0,0Z"/><path class="cls-4" d="M112.94,51.91c0-.92,0-1.09,0-1.29s-.06-.27-.17-.32l-.18,0s-.08,0-.08-.07,0-.05.12-.05l.67,0,.65,0c.06,0,.1,0,.1.05s0,.07-.08.07l-.15,0c-.14,0-.18.11-.19.32s0,.37,0,1.29V53c0,.58,0,1.07,0,1.32s.06.26.2.29l.26,0c.06,0,.08,0,.08.06s0,.07-.1.07l-.81,0-.65,0c-.07,0-.1,0-.1-.07s0-.06.08-.06l.18,0c.1,0,.13-.12.15-.29s0-.74,0-1.32Z"/><path class="cls-4" d="M115.28,54.16a2.56,2.56,0,0,1-.62-1.79,2.54,2.54,0,0,1,.58-1.66,2,2,0,0,1,1.59-.64,4.66,4.66,0,0,1,.73.06l.51.1c.05,0,.07,0,.07.07s0,.12,0,.34,0,.53,0,.65,0,.15-.07.15,0,0,0-.13a1,1,0,0,0-.19-.56,1.27,1.27,0,0,0-1-.36,1.2,1.2,0,0,0-.95.35,2.26,2.26,0,0,0-.46,1.57c0,1.44.89,2.13,1.56,2.13.45,0,.69,0,.89-.32a1.09,1.09,0,0,0,.17-.41c0-.09,0-.12.06-.12s.06.06.06.11a7,7,0,0,1-.11.8c0,.11,0,.14-.13.18a2.38,2.38,0,0,1-.9.13,2.25,2.25,0,0,1-1.73-.65"/><path class="cls-4" d="M119.22,51.91V50.62c0-.2-.06-.27-.22-.32a.53.53,0,0,0-.2,0s-.08,0-.08-.06,0-.06.11-.06l.72,0h1.37l.21,0s.06,0,.08,0,0,0,0,.06a2.79,2.79,0,0,0,0,.39c0,.07,0,.33,0,.4s0,.1-.06.1,0,0,0-.08a.64.64,0,0,0,0-.22c0-.11-.08-.19-.33-.22l-.79,0s0,0,0,.06v1.5s0,.06,0,.06h.88a.36.36,0,0,0,.24-.1s.06-.07.08-.07,0,0,0,.06,0,.14,0,.44c0,.12,0,.37,0,.41s0,.13,0,.13,0,0,0,0,0-.14,0-.22a.28.28,0,0,0-.28-.23c-.09,0-.66,0-.78,0s0,0,0,.06V53c0,.2,0,.72,0,.9,0,.41.16.5.68.5a1.11,1.11,0,0,0,.47-.08c.12-.07.18-.2.22-.44,0-.07,0-.1,0-.1s.05.08.05.14a4.74,4.74,0,0,1-.07.67c0,.16-.08.16-.27.16l-.92,0h-.87l-.35,0c-.06,0-.09,0-.09-.07s0-.06.08-.06l.17,0c.11,0,.13-.15.15-.32s0-.74,0-1.29Z"/><path class="cls-5" d="M69.05,61.49s0,0,0-.06v-.2c0-1.44,0-1.71,0-2s-.08-.47-.33-.54a1.17,1.17,0,0,0-.29,0c-.08,0-.13,0-.13-.08s0-.09.16-.09c.41,0,.88,0,1.08,0l1,0c.11,0,.16,0,.16.09s0,.08-.13.08l-.22,0c-.21,0-.27.21-.28.54s0,.57,0,2V62.9c0,.87,0,1.62,0,2s.07.47.29.51a2.58,2.58,0,0,0,.39,0c.08,0,.12,0,.12.08s-.06.09-.15.09c-.49,0-1,0-1.18,0l-.94,0c-.1,0-.16,0-.16-.09s0-.08.12-.08a1,1,0,0,0,.28,0c.15,0,.18-.24.21-.52s0-1.14,0-2v-.84s0-.05,0-.05H66.17a0,0,0,0,0,0,.05v.84c0,.87,0,1.62,0,2s.07.47.3.51a2.33,2.33,0,0,0,.38,0c.08,0,.12,0,.12.08s-.06.09-.15.09c-.49,0-1,0-1.18,0l-.94,0q-.15,0-.15-.09s0-.08.12-.08a1,1,0,0,0,.27,0c.15,0,.19-.24.22-.52s0-1.14,0-2V61.23c0-1.44,0-1.71,0-2s-.08-.47-.33-.54a1.12,1.12,0,0,0-.29,0c-.08,0-.13,0-.13-.08s0-.09.16-.09c.41,0,.88,0,1.09,0l.94,0c.11,0,.16,0,.16.09s0,.08-.13.08l-.22,0c-.21,0-.27.21-.28.54s0,.57,0,2v.2s0,.06,0,.06Z"/><path class="cls-5" d="M72.06,61.88c0-1.22,0-1.45,0-1.7s-.08-.36-.29-.44a.93.93,0,0,0-.26,0c-.07,0-.11,0-.11-.08s0-.08.14-.08l1,0,.85,0c.1,0,.14,0,.14.08s0,.08-.1.08a.69.69,0,0,0-.2,0c-.17,0-.23.15-.24.44s0,.48,0,1.7V63c0,1.17.19,1.63.51,1.95a1.19,1.19,0,0,0,1.72-.1,3.11,3.11,0,0,0,.39-2v-1c0-1.22,0-1.45,0-1.7s-.06-.36-.28-.44a.83.83,0,0,0-.24,0c-.07,0-.11,0-.11-.08s0-.08.14-.08l.79,0,.77,0c.09,0,.14,0,.14.08s0,.08-.11.08a.69.69,0,0,0-.2,0c-.18,0-.23.15-.24.44s0,.48,0,1.7v.86a3.48,3.48,0,0,1-.63,2.43,1.81,1.81,0,0,1-1.4.58,2,2,0,0,1-1.51-.55,3,3,0,0,1-.61-2.13Z"/><path class="cls-5" d="M78.33,64.54c0,.63.1.82.23.87a.86.86,0,0,0,.35.06c.07,0,.11,0,.11.09s-.06.08-.15.08c-.43,0-.74,0-.86,0s-.38,0-.71,0c-.09,0-.16,0-.16-.08a.1.1,0,0,1,.11-.09,1,1,0,0,0,.3,0c.18-.05.2-.27.2-1l.06-4.77c0-.16,0-.28.12-.28s.17.12.28.27,1.08,1.38,2.05,2.56c.45.56,1.33,1.7,1.43,1.81h0l-.07-3.58c0-.49-.07-.63-.23-.71a.83.83,0,0,0-.34,0c-.09,0-.11,0-.11-.08s.07-.08.17-.08l.84,0c.07,0,.32,0,.65,0,.09,0,.15,0,.15.08s0,.08-.11.08a.53.53,0,0,0-.21,0c-.18.07-.23.21-.24.66l-.07,5.08c0,.18-.06.26-.11.26a.4.4,0,0,1-.27-.17c-.42-.49-1.24-1.48-1.94-2.32s-1.42-1.85-1.55-2h0Z"/><path class="cls-5" d="M88.22,65.1c0,.22,0,.23-.08.29a3.35,3.35,0,0,1-1.62.36,2.88,2.88,0,0,1-3.07-3.16A3.2,3.2,0,0,1,84.61,60a2.82,2.82,0,0,1,1.79-.52,5.82,5.82,0,0,1,1.17.13,4.18,4.18,0,0,0,.53.09c.08,0,.09,0,.09.09s0,.31,0,1.33c0,.12,0,.18-.1.18s-.06,0-.06-.11a1.31,1.31,0,0,0-.23-.66,1.8,1.8,0,0,0-1.44-.62,1.62,1.62,0,0,0-1.28.48,2.66,2.66,0,0,0-.61,2c0,1.73.89,3,2.31,3a.9.9,0,0,0,.46-.08.29.29,0,0,0,.13-.29v-.74c0-.39,0-.7,0-.94s-.07-.36-.28-.44a.93.93,0,0,0-.26,0,.09.09,0,0,1-.1-.08c0-.07,0-.08.14-.08l1,0,.77,0c.09,0,.14,0,.14.08a.09.09,0,0,1-.08.08l-.19,0c-.18,0-.24.15-.25.44s0,.56,0,1Z"/><path class="cls-5" d="M90.36,63.61s0,0-.06,0l-.36,1.09a1.64,1.64,0,0,0-.09.49c0,.15.06.23.26.23h.1c.08,0,.1,0,.1.09s0,.08-.11.08l-.74,0c-.07,0-.42,0-.77,0-.08,0-.12,0-.12-.08a.08.08,0,0,1,.08-.09h.19c.3-.06.42-.3.55-.71l1.73-5c.08-.22.13-.32.2-.32s.13.08.2.26c.16.44,1.26,3.7,1.68,4.92.26.73.45.83.57.86l.25,0a.08.08,0,0,1,.09.09c0,.06,0,.08-.29.08s-.71,0-1.27,0c-.12,0-.2,0-.2-.06s0-.08.09-.09.09-.08.06-.18L92,63.66s0,0-.06,0Zm1.41-.45s0,0,0,0l-.62-2s0-.08,0-.08,0,0,0,.08l-.64,2s0,.06,0,.06Z"/><path class="cls-5" d="M94.83,61.88c0-1.22,0-1.45,0-1.7s-.07-.36-.28-.44a1,1,0,0,0-.27,0c-.07,0-.11,0-.11-.08s0-.08.15-.08l.9,0,1,0a1.93,1.93,0,0,1,1.25.34A1.54,1.54,0,0,1,98,61a2.48,2.48,0,0,1-.92,1.78c.59.91,1.06,1.64,1.45,2.14a1.19,1.19,0,0,0,.71.53.5.5,0,0,0,.16,0,.09.09,0,0,1,.08.09c0,.06,0,.08-.13.08h-.63a1.2,1.2,0,0,1-.72-.16,3.38,3.38,0,0,1-.9-1.18c-.27-.44-.55-1-.63-1.1a.13.13,0,0,0-.12-.06l-.6,0s0,0,0,.07v.11c0,.75,0,1.38,0,1.72s.05.38.26.42a1.82,1.82,0,0,0,.32,0,.09.09,0,0,1,.08.09s-.05.08-.13.08c-.39,0-.94,0-1,0l-.82,0c-.08,0-.13,0-.13-.08s0-.09.11-.09a.71.71,0,0,0,.23,0c.14,0,.18-.19.2-.42s0-1,0-1.72Zm.84.63a.14.14,0,0,0,.06.14,1.44,1.44,0,0,0,.51.08c.26,0,.35,0,.46-.14a1.48,1.48,0,0,0,.43-1.19c0-1.14-.61-1.43-1-1.43a1.85,1.85,0,0,0-.39,0,.11.11,0,0,0-.06.11Z"/><path class="cls-5" d="M100.56,63.55a1.9,1.9,0,0,0-.15-.84c0-.13-1-1.9-1.18-2.32a1.63,1.63,0,0,0-.44-.57.52.52,0,0,0-.27-.11c-.06,0-.1,0-.1-.08s0-.08.13-.08l.83,0,.75,0c.06,0,.1,0,.1.08s0,.06-.15.1a.13.13,0,0,0-.1.13.84.84,0,0,0,.09.27l1.1,2.36c.08-.19.89-1.91,1-2.16a1.23,1.23,0,0,0,.1-.43.17.17,0,0,0-.14-.18c-.06,0-.12,0-.12-.09s0-.08.11-.08l.65,0,.71,0c.07,0,.12,0,.12.07s-.06.09-.13.09a.67.67,0,0,0-.29.1.92.92,0,0,0-.34.38,28,28,0,0,0-1.29,2.57,2.3,2.3,0,0,0-.08.81v.64c0,.13,0,.47,0,.81s.08.38.27.42a1.93,1.93,0,0,0,.33,0c.08,0,.12,0,.12.09s-.06.08-.15.08c-.41,0-.85,0-1,0l-.86,0c-.09,0-.15,0-.15-.08s0-.09.11-.09a.75.75,0,0,0,.23,0c.14,0,.19-.19.21-.42s0-.68,0-.81Z"/></g><polygon class="cls-6" points="4.77 66.63 9.39 66.63 26.24 3.73 21.62 3.73 4.77 66.63"/><polygon class="cls-6" points="142.34 66.63 146.96 66.63 163.82 3.73 159.2 3.73 142.34 66.63"/></svg>